<svg width="50" height="51" viewBox="0 0 50 51" fill="none" xmlns="http://www.w3.org/2000/svg">
<path d="M33.0967 10.1074L33.1611 10.2949C33.2821 10.6917 33.3965 11.3069 33.7432 11.8223L33.7451 11.8262C34.2551 12.5685 34.9922 12.8984 35.5762 13.1729C36.0973 13.4197 36.5052 13.724 36.8076 14.1064C37.1086 14.4872 37.3239 14.9704 37.4258 15.6055L37.5879 16.6162L38.2852 15.8672C39.2567 14.8235 40.323 14.415 41.585 14.4893H41.5859C42.7648 14.5575 43.6432 13.9696 44.335 13.1865V13.1855C44.4329 13.0744 44.4643 13.0331 44.5088 12.9971L44.5156 12.9922L44.5215 12.9863C44.615 12.9052 44.6983 12.8083 44.75 12.75C44.798 12.6959 44.8314 12.6639 44.8564 12.6406C44.9191 12.6792 44.9499 12.7241 44.9707 12.791C45 12.8853 45.0075 13.0199 44.9922 13.207C44.7732 15.8295 43.8598 17.9139 41.667 19.1865C41.0022 19.5655 40.2833 19.8206 39.541 19.9414L39.2246 19.9844C39.0274 20.0048 38.7476 20.062 38.5586 20.3027C38.3822 20.5274 38.3793 20.7996 38.3828 20.957V20.958C38.3965 21.5379 38.4658 21.8322 38.3877 22.4082C37.8434 26.3054 36.8799 28.8287 35.8389 30.6572C34.788 32.5028 33.6663 33.6391 32.6973 34.8545L32.3887 35.2412L32.7725 35.5537C32.9478 35.6965 33.0772 35.7992 33.2188 35.8711C33.3478 35.9366 33.5011 35.9794 33.6299 36.0225C33.948 36.1288 34.6393 36.3851 36.4541 37.2812C36.4587 37.2875 36.4697 37.3026 36.4805 37.334C36.5025 37.3979 36.5123 37.4901 36.4912 37.5898C36.4553 37.7597 36.32 37.9968 35.8721 38.0977C35.0935 38.2701 34.1184 38.4195 33.1191 38.3203L33.1143 38.3193C31.7337 38.194 30.9749 38.0323 30.2627 37.6562L29.9756 37.5049L29.7734 37.373C29.4593 37.1689 29.1292 36.9043 28.7324 36.5615L28.3115 36.1914C26.8833 34.9129 25.7145 33.3797 24.626 31.7305L24.1641 31.0166C23.0904 29.3277 22.0109 27.5425 20.624 26.0059L20.3428 25.7021C17.6741 22.8957 14.4773 21.1102 10.7158 20.5264L10.7129 20.5254L10.3643 20.4814C9.55313 20.3977 8.73415 20.4374 7.93262 20.5996C7.57534 20.6687 7.20597 20.7925 6.96387 21.1094C6.72535 21.4218 6.69462 21.8128 6.71289 22.1875C6.84295 25.1537 7.63268 27.9311 8.98633 30.5156V30.5166C10.4013 33.2279 12.4142 35.2076 14.8037 36.7012L14.8213 36.7119L14.8379 36.7207C14.9021 36.7541 15.4639 37.0377 16.1719 37.2148C16.8505 37.3846 17.8215 37.4962 18.583 36.9971C18.9586 36.7523 19.1602 36.4165 19.1748 36.0391C19.1877 35.7048 19.0498 35.4172 18.9287 35.2266H18.9297C18.725 34.8916 18.5764 34.6308 18.458 34.3281L18.3486 34.0068C18.2793 33.7551 18.2384 33.5053 18.2598 33.3379C18.2642 33.303 18.2699 33.2811 18.2744 33.2686C18.2808 33.2674 18.2896 33.2655 18.3018 33.2646C18.3696 33.2613 18.5282 33.282 18.8174 33.4023C19.1002 33.5201 19.4687 33.7162 19.9395 34.0137C20.8801 34.6082 22.1854 35.5804 23.9619 37.0615V37.0625C25.4682 38.328 27.536 38.4428 28.96 38.3438C26.2022 40.5261 23.7473 40.831 21.4668 40.9697H21.4658C17.4386 41.2216 13.912 39.9127 10.8291 37.2148C7.8531 34.6099 5.92167 31.2856 5.25293 27.2656C4.61521 23.4402 5.14006 19.8121 7.32422 16.6279C9.13892 13.9833 11.5852 12.4514 14.6533 12.0889H14.6553C16.2432 11.8935 17.8498 11.9536 19.4209 12.2676L19.5254 12.2881L19.6279 12.2656C19.8512 12.2159 20.0714 12.1516 20.2871 12.0742L20.502 11.9922C22.253 11.2818 23.5283 10.7968 24.9062 10.79C25.2144 10.7885 25.4447 10.8167 25.6123 10.8525C25.5363 10.9072 25.4589 10.9677 25.3828 11.0332C25.1362 11.2453 24.864 11.5389 24.667 11.9033C24.4679 12.2717 24.34 12.7247 24.4082 13.2314C24.4767 13.7389 24.7346 14.2474 25.2129 14.7402L25.25 14.7783L25.2939 14.8076C25.6851 15.0694 26.0673 15.3461 26.4395 15.6377V15.6387C28.0563 16.9098 29.3155 18.4986 30.8271 20.0479C31.72 20.9983 32.7774 21.7605 33.9434 22.292L33.9551 22.2979C34.1343 22.3741 34.432 22.4751 34.7285 22.3389C34.955 22.2348 35.0734 22.042 35.1406 21.876L35.1934 21.7227C35.3252 21.2658 35.5146 20.6953 35.6494 20.207L35.6484 20.2061C35.7024 20.0198 35.7243 19.8027 35.6416 19.5791C35.5592 19.3569 35.4006 19.1991 35.2393 19.083L35.2383 19.082L34.8887 18.8184C33.199 17.4652 32.3474 15.6329 32.3066 13.332C32.2873 12.2408 32.4824 11.1838 32.9717 10.2354C33.0099 10.1626 33.0343 10.1148 33.0635 10.0645C33.0658 10.0605 33.0681 10.0564 33.0703 10.0527C33.0775 10.0682 33.0881 10.0854 33.0967 10.1074ZM28.0166 21.9082C27.3661 21.6794 26.5899 21.586 25.876 22.0156L25.8477 22.0332L25.8223 22.0527C25.7577 22.1041 25.6628 22.205 25.5947 22.2812C25.5555 22.3252 25.5132 22.3745 25.4756 22.4229C25.4441 22.4633 25.3927 22.5313 25.3564 22.6055L25.3555 22.6074C25.2248 22.8781 25.215 23.1604 25.3115 23.4082C25.3972 23.6283 25.5577 23.7925 25.7344 23.8945L25.7334 23.8965C25.7421 23.902 25.7519 23.9058 25.7607 23.9111C25.7638 23.9128 25.7664 23.9154 25.7695 23.917V23.916C25.8681 23.9745 25.9722 24.0215 26.0811 24.0547C26.0254 24.0816 25.9719 24.1127 25.9219 24.1494C25.7854 24.2495 25.6763 24.3813 25.6025 24.5312C25.5473 24.6435 25.5128 24.7643 25.499 24.8877L25.4922 25.002C25.49 25.1451 25.5183 25.2808 25.5635 25.4004C25.6115 25.5273 25.6831 25.6448 25.7764 25.7451C25.8699 25.8456 25.9834 25.9273 26.1104 25.9834C26.2347 26.0383 26.3693 26.0666 26.5059 26.0674V26.0684C26.5074 26.0684 26.5092 26.0674 26.5107 26.0674C26.512 26.0674 26.5133 26.0684 26.5146 26.0684L26.5137 26.0674C26.651 26.0682 26.7864 26.0411 26.9121 25.9873C27.0401 25.9325 27.155 25.8526 27.25 25.7529C27.3449 25.6532 27.419 25.5353 27.4688 25.4082C27.5059 25.3132 27.5289 25.2134 27.5381 25.1123L27.543 25.0107C27.544 24.8193 27.4918 24.6309 27.3945 24.4648C27.4668 24.547 27.5073 24.6213 27.5303 24.6934C27.5643 24.8003 27.5771 24.9526 27.5283 25.1943L27.5264 25.2002C27.45 25.6039 27.4396 26.0184 27.4951 26.4258L27.4971 26.4395L27.5 26.4531C27.584 26.8879 27.7342 27.2027 27.9482 27.4717C28.1428 27.7161 28.3937 27.9204 28.6016 28.1055L28.6104 28.1133L28.6191 28.1201C29.1014 28.5099 29.7009 28.7141 30.3154 28.6914H30.3223C30.7467 28.6701 31.1596 28.5084 31.502 28.3613L31.5098 28.3584C31.7738 28.2396 32.0141 28.0574 32.1533 27.7891C32.2975 27.511 32.2985 27.2081 32.208 26.9287L32.207 26.9258L32.126 26.6982C31.9844 26.3242 31.8105 25.9818 31.624 25.6592L31.3955 25.2812C31.0118 24.6642 30.8765 24.416 30.1885 23.5742L30.1758 23.5576L30.1611 23.543C29.5297 22.8889 29.0029 22.3236 28.291 22.0146L28.2871 22.0137L28.0166 21.9082Z" stroke="#FF5D84"/>
</svg>
