<svg width="50" height="50" viewBox="0 0 50 50" fill="none" xmlns="http://www.w3.org/2000/svg">
<path d="M37.5 38.75V40H12.5V38.75H37.5ZM38.75 37.5V12.5C38.75 11.8096 38.1904 11.25 37.5 11.25H12.5C11.8096 11.25 11.25 11.8096 11.25 12.5V37.5C11.25 38.1904 11.8096 38.75 12.5 38.75V40L12.2449 39.9866C11.0679 39.8673 10.1327 38.9321 10.0134 37.7551L10 37.5V12.5C10 11.1193 11.1193 10 12.5 10H37.5C38.8807 10 40 11.1193 40 12.5V37.5C40 38.7946 39.016 39.8587 37.7551 39.9866L37.5 40V38.75C38.1904 38.75 38.75 38.1904 38.75 37.5Z" fill="#C4FE0A"/>
<path d="M40 22.0675L32.085 33.8737L26.7411 31.6447L21.4772 35.2778L21.1386 35.5108L20.7913 35.2917L17.138 32.9745L10.7326 35.8332L10.2278 34.6519L16.9385 31.6573L17.2414 31.5225L17.5222 31.7001L21.109 33.9757L26.3151 30.3828L26.5933 30.1914L31.6196 32.2857L38.9608 21.3371L40 22.0675ZM39.9384 15.0531L31.7747 23.8759L31.4546 24.2209L31.0384 24.0106L27.2078 22.0801L20.7199 30.6309L15.5126 26.9549L10.9604 32.4368L10 31.6006L15.291 25.2322L20.4539 28.8754L26.8421 20.4593L31.1776 22.6443L39.0223 14.1665L39.9384 15.0531Z" fill="#C4FE0A"/>
</svg>
