<svg width="50" height="51" viewBox="0 0 50 51" fill="none" xmlns="http://www.w3.org/2000/svg">
<path d="M28.125 12.8906V19.0864C28.125 19.9265 28.125 20.3466 28.2953 20.6674C28.4452 20.9497 28.6841 21.1791 28.9781 21.3229C29.3123 21.4864 29.7498 21.4864 30.625 21.4864H37.0789M28.125 34.9863H18.75M31.25 28.9863H18.75M37.5 24.4687V35.2863C37.5 37.8066 37.5 39.0666 36.9891 40.0293C36.5397 40.8761 35.8227 41.5644 34.9406 41.9958C33.9378 42.4863 32.6253 42.4863 30 42.4863H20C17.3748 42.4863 16.0621 42.4863 15.0594 41.9958C14.1774 41.5644 13.4603 40.8761 13.0109 40.0293C12.5 39.0666 12.5 37.8066 12.5 35.2863V19.6863C12.5 17.1661 12.5 15.906 13.0109 14.9434C13.4603 14.0966 14.1774 13.4082 15.0594 12.9768C16.0621 12.4863 17.3748 12.4863 20 12.4863H25.0184C26.1648 12.4863 26.7381 12.4863 27.2777 12.6107C27.7559 12.7209 28.2131 12.9027 28.6327 13.1494C29.1056 13.4277 29.5109 13.8169 30.3217 14.5952L35.3033 19.3775C36.1141 20.1558 36.5194 20.5449 36.8092 20.9991C37.0662 21.4017 37.2556 21.8406 37.3705 22.2998C37.5 22.8177 37.5 23.368 37.5 24.4687Z" stroke="#C4FE0A" stroke-linecap="round" stroke-linejoin="round"/>
</svg>
