<svg width="50" height="51" viewBox="0 0 50 51" fill="none" xmlns="http://www.w3.org/2000/svg">
<path d="M23.9805 17.335H23.7779C22.0758 17.335 21.2247 17.335 20.5745 17.6641C20.0026 17.9535 19.5377 18.4155 19.2463 18.9836C18.915 19.6295 18.915 20.475 18.915 22.1661V22.3674M23.9805 35.4516H23.7779C22.0758 35.4516 21.2247 35.4516 20.5745 35.1225C20.0026 34.833 19.5377 34.3711 19.2463 33.803C18.915 33.157 18.915 32.3116 18.915 30.6205V30.4192M37.1509 22.3674V22.1661C37.1509 20.475 37.1509 19.6295 36.8196 18.9836C36.5282 18.4155 36.0633 17.9535 35.4914 17.6641C34.8412 17.335 33.9902 17.335 32.288 17.335H32.0854M37.1509 30.4192V30.6205C37.1509 32.3116 37.1509 33.157 36.8196 33.803C36.5282 34.3711 36.0633 34.833 35.4914 35.1225C34.8412 35.4516 33.9902 35.4516 32.288 35.4516H32.0854M23.474 22.3674V23.8771M32.5919 22.3674V23.8771M27.0198 26.9973C27.8303 26.9973 28.5395 26.2927 28.5395 25.4875V22.3674M31.2751 29.614C29.4515 31.4257 26.5135 31.4257 24.6899 29.614" stroke="#FF5B80" stroke-linecap="round" stroke-linejoin="round"/>
<path d="M10.1592 31.4546C11.6707 36.0661 17.365 44.5881 28.0507 41.7842" stroke="#FF5B80" stroke-width="0.7"/>
<path d="M31.3008 8.53418C36.1463 8.80062 45.8518 12.0953 45.9091 23.1425" stroke="#FF5B80" stroke-width="0.7"/>
<path d="M9.44434 34.5535L10.1595 31.4546L13.2584 32.2849" stroke="#FF5B80" stroke-width="0.7"/>
<path d="M47.4612 20.3627L45.9684 23.1709L43.19 21.5668" stroke="#FF5B80" stroke-width="0.7"/>
</svg>
