<svg width="53" height="56" viewBox="0 0 53 56" fill="none" xmlns="http://www.w3.org/2000/svg">
<path d="M19.3512 47.1952V17.9162C19.3512 15.9713 19.3512 14.9989 19.5436 14.201C20.0657 12.0359 21.5878 10.3447 23.5363 9.76456C24.2544 9.55078 25.1296 9.55078 26.8801 9.55078C28.6305 9.55078 29.5058 9.55078 30.2239 9.76456C32.1723 10.3447 33.6945 12.0359 34.2166 14.201C34.409 14.9989 34.409 15.9713 34.409 17.9162V47.1952M14.081 47.1952H39.6792C41.7875 47.1952 42.8417 47.1952 43.6469 46.7393C44.3552 46.3384 44.9312 45.6984 45.292 44.9115C45.7023 44.0168 45.7023 42.8454 45.7023 40.5029V24.6086C45.7023 22.266 45.7023 21.0947 45.292 20.2C44.9312 19.413 44.3552 18.7731 43.6469 18.3721C42.8417 17.9162 41.7875 17.9162 39.6792 17.9162H14.081C11.9727 17.9162 10.9185 17.9162 10.1133 18.3721C9.40495 18.7731 8.82906 19.413 8.46817 20.2C8.05786 21.0947 8.05786 22.266 8.05786 24.6086V40.5029C8.05786 42.8454 8.05786 44.0168 8.46817 44.9115C8.82906 45.6984 9.40495 46.3384 10.1133 46.7393C10.9185 47.1952 11.9727 47.1952 14.081 47.1952Z" stroke="#C4FE0A" stroke-width="0.746667" stroke-linecap="round" stroke-linejoin="round"/>
</svg>
