<svg xmlns="http://www.w3.org/2000/svg" xmlns:xlink="http://www.w3.org/1999/xlink" viewBox="0 0 2119.1 218.22"><defs><style>.cls-1{fill:none;}.cls-2{fill:#f0191e;}.cls-3{fill:#b2b2b2;}.cls-4{clip-path:url(#clip-path);}.cls-5{fill:url(#linear-gradient);}.cls-6{fill:#868686;}.cls-7{fill:#fff;}.cls-8{clip-path:url(#clip-path-2);}.cls-9{fill:url(#linear-gradient-2);}</style><clipPath id="clip-path" transform="translate(-346.4 -174.27)"><rect id="SVGID" class="cls-1" x="2382.72" y="332.11" width="49.33" height="49.41"/></clipPath><linearGradient id="linear-gradient" x1="147.1" y1="460.72" x2="148.01" y2="460.72" gradientTransform="matrix(0, 54.5, 54.5, 0, -23048.09, -7859.24)" gradientUnits="userSpaceOnUse"><stop offset="0" stop-color="#b2b2b2"/><stop offset="0.18" stop-color="#929292"/><stop offset="0.57" stop-color="#535352"/><stop offset="0.85" stop-color="#2c2c2a"/><stop offset="1" stop-color="#1d1d1b"/></linearGradient><clipPath id="clip-path-2" transform="translate(-346.4 -174.27)"><rect id="SVGID-2" data-name="SVGID" class="cls-1" x="2333.39" y="184.22" width="49.33" height="49.41"/></clipPath><linearGradient id="linear-gradient-2" x1="147.39" y1="467.19" x2="148.29" y2="467.19" gradientTransform="matrix(0, -54.5, -54.5, 0, 27472.68, 8091.75)" gradientUnits="userSpaceOnUse"><stop offset="0" stop-color="#fff"/><stop offset="1" stop-color="#1d1d1b"/></linearGradient></defs><title>SP_GROUP_Logo_pos_en_RGB</title><g id="ICON_RGB" data-name="ICON RGB"><rect x="1904.63" y="1.97" width="214.46" height="214.46"/><rect class="cls-2" x="1986.99" y="108.6" width="49.33" height="49.33"/><rect class="cls-3" x="2036.31" y="108.6" width="49.33" height="49.33"/><g class="cls-4"><rect class="cls-5" x="2036.31" y="157.84" width="49.33" height="49.41"/></g><rect class="cls-6" x="1937.66" y="59.27" width="49.33" height="49.33"/><rect class="cls-7" x="1986.99" y="59.27" width="49.33" height="49.33"/><g class="cls-8"><rect class="cls-9" x="1986.99" y="9.95" width="49.33" height="49.41"/></g></g><g id="House_of_Communication_HDK_Englisch" data-name="House of Communication – HDK Englisch"><path class="cls-3" d="M400.8,390.53v-37.3H372.48v37.3H346.4V295.89h26.08v34.49H400.8V295.89h26.07v94.64Z" transform="translate(-346.4 -174.27)"/><path class="cls-3" d="M486.46,392.49c-29.72,0-44.3-17.95-44.3-47.95,0-30.56,21.59-50.61,48.08-50.61,24.68,0,44.31,13.32,44.31,47.67C534.55,372.44,513.38,392.49,486.46,392.49Zm1.82-74.73c-9.11,0-18.36,7-18.36,24.82,0,16.12,5.18,25.93,17.8,25.93,8.13,0,19.07-5.6,19.07-25.65C506.79,326.31,500.76,317.76,488.28,317.76Z" transform="translate(-346.4 -174.27)"/><path class="cls-3" d="M588.24,392.49c-30.42,0-38.41-16.12-38.41-36.17V295.89h26.08v59.17c0,10.09,3.08,15.56,13.88,15.56,10.51,0,13.88-4.49,13.88-16.27V295.89h25.79V353C629.46,380.43,613.62,392.49,588.24,392.49Z" transform="translate(-346.4 -174.27)"/><path class="cls-3" d="M668.16,392.35a90.54,90.54,0,0,1-19.49-2l1.4-23.83a66.11,66.11,0,0,0,20.19,3.37c6.31,0,10.37-2.67,10.37-7,0-13.74-35.33-5.61-35.33-38,0-18.78,14.44-30.84,39.4-30.84a113.68,113.68,0,0,1,17.24,1.54l-1.4,22.57a61.92,61.92,0,0,0-16.82-2.52c-7.29,0-10.38,2.94-10.38,6.59,0,11.92,35.33,7.29,35.33,36.87C708.67,378.05,693.39,392.35,668.16,392.35Z" transform="translate(-346.4 -174.27)"/><path class="cls-3" d="M724.52,390.53V295.89h55.37V318h-29.3v13.32h27.76v21.31H750.59V368h29.3v22.58Z" transform="translate(-346.4 -174.27)"/><path class="cls-3" d="M874.11,392.49c-29.73,0-44.31-17.95-44.31-47.95,0-30.56,21.59-50.61,48.09-50.61,24.68,0,44.3,13.32,44.3,47.67C922.19,372.44,901,392.49,874.11,392.49Zm1.82-74.73c-9.11,0-18.37,7-18.37,24.82,0,16.12,5.19,25.93,17.81,25.93,8.13,0,19.07-5.6,19.07-25.65C894.44,326.31,888.41,317.76,875.93,317.76Z" transform="translate(-346.4 -174.27)"/><path class="cls-3" d="M963.27,318.32v15.29h26.36v21.45H963.27v35.47H937.19V295.89h54v22.43Z" transform="translate(-346.4 -174.27)"/><path class="cls-3" d="M1085.38,391.79c-37.15,0-44.86-25.66-44.86-44.73,0-31.54,17.8-51.87,48.79-51.87a76.46,76.46,0,0,1,18.22,2.24L1104.59,321a58.44,58.44,0,0,0-15.28-2.11c-12.34,0-20,8.56-20,23.84,0,16.4,6.31,25.23,21,25.23a42.4,42.4,0,0,0,14.3-2.66l3.08,23.27A76.25,76.25,0,0,1,1085.38,391.79Z" transform="translate(-346.4 -174.27)"/><path class="cls-3" d="M1160.65,392.49c-29.73,0-44.31-17.95-44.31-47.95,0-30.56,21.59-50.61,48.09-50.61,24.68,0,44.3,13.32,44.3,47.67C1208.73,372.44,1187.56,392.49,1160.65,392.49Zm1.82-74.73c-9.11,0-18.37,7-18.37,24.82,0,16.12,5.19,25.93,17.81,25.93,8.13,0,19.06-5.6,19.06-25.65C1181,326.31,1175,317.76,1162.47,317.76Z" transform="translate(-346.4 -174.27)"/><path class="cls-3" d="M1308.55,390.53,1303.37,359c-1-6.31-2-13.32-2.81-21.45h-.28c-1.54,8.27-3.36,16.12-5.75,24.82L1287,390.53h-24.39l-7.43-25.1a193,193,0,0,1-6.17-27.9h-.28c-.84,9.39-1.82,16.54-2.8,23.69L1242,390.53h-26.22l15.71-94.64h29.44l9.95,32.81a203.5,203.5,0,0,1,5.05,21.45h.28a154.72,154.72,0,0,1,5.47-21.87l10.09-32.39h28.6l15.56,94.64Z" transform="translate(-346.4 -174.27)"/><path class="cls-3" d="M1437.54,390.53,1432.35,359c-1-6.31-2-13.32-2.8-21.45h-.28c-1.55,8.27-3.37,16.12-5.75,24.82L1416,390.53h-24.4l-7.43-25.1a194.36,194.36,0,0,1-6.17-27.9h-.28c-.84,9.39-1.82,16.54-2.8,23.69l-3.93,29.31h-26.21l15.7-94.64h29.44l10,32.81a201,201,0,0,1,5,21.45h.28a156.09,156.09,0,0,1,5.47-21.87l10.09-32.39h28.6l15.57,94.64Z" transform="translate(-346.4 -174.27)"/><path class="cls-3" d="M1515.75,392.49c-30.42,0-38.41-16.12-38.41-36.17V295.89h26.07v59.17c0,10.09,3.09,15.56,13.88,15.56,10.52,0,13.88-4.49,13.88-16.27V295.89H1557V353C1557,380.43,1541.13,392.49,1515.75,392.49Z" transform="translate(-346.4 -174.27)"/><path class="cls-3" d="M1626.21,390.53l-15.84-32.39c-3.65-7.43-7-15-9.4-21.31a128.32,128.32,0,0,1,.71,15v38.7h-25.1V295.89H1610l13.74,28.18c4.06,8.41,8.27,17,11.49,24.54a191.87,191.87,0,0,1-1-19.63V295.89h25.1v94.64Z" transform="translate(-346.4 -174.27)"/><path class="cls-3" d="M1679.44,390.53V295.89h26.08v94.64Z" transform="translate(-346.4 -174.27)"/><path class="cls-3" d="M1765.11,391.79c-37.16,0-44.87-25.66-44.87-44.73,0-31.54,17.81-51.87,48.79-51.87a76.48,76.48,0,0,1,18.23,2.24l-3,23.56a58.32,58.32,0,0,0-15.28-2.11c-12.34,0-20,8.56-20,23.84,0,16.4,6.31,25.23,21,25.23a42.31,42.31,0,0,0,14.3-2.66l3.09,23.27A76.25,76.25,0,0,1,1765.11,391.79Z" transform="translate(-346.4 -174.27)"/><path class="cls-3" d="M1861,390.53l-4.91-15.43h-29.16l-4.76,15.43h-25.8l30.84-94.64h29.87l32.38,94.64Zm-15.28-47.81a122.63,122.63,0,0,1-4.35-16.41h-.28a125.8,125.8,0,0,1-4.62,17.95l-3.23,10.37h16.26Z" transform="translate(-346.4 -174.27)"/><path class="cls-3" d="M1931.79,318.32v72.21h-26.08V318.32h-20.46V295.89h67v22.43Z" transform="translate(-346.4 -174.27)"/><path class="cls-3" d="M1964.88,390.53V295.89H1991v94.64Z" transform="translate(-346.4 -174.27)"/><path class="cls-3" d="M2050.54,392.49c-29.72,0-44.3-17.95-44.3-47.95,0-30.56,21.59-50.61,48.08-50.61,24.68,0,44.31,13.32,44.31,47.67C2098.63,372.44,2077.46,392.49,2050.54,392.49Zm1.82-74.73c-9.11,0-18.36,7-18.36,24.82,0,16.12,5.18,25.93,17.8,25.93,8.13,0,19.07-5.6,19.07-25.65C2070.87,326.31,2064.84,317.76,2052.36,317.76Z" transform="translate(-346.4 -174.27)"/><path class="cls-3" d="M2163.54,390.53l-15.84-32.39c-3.65-7.43-7-15-9.4-21.31a128.39,128.39,0,0,1,.7,15v38.7h-25.09V295.89h33.37L2161,324.07c4.07,8.41,8.28,17,11.5,24.54a191.87,191.87,0,0,1-1-19.63V295.89h25.1v94.64Z" transform="translate(-346.4 -174.27)"/></g><g id="Serviceplan_Group" data-name="Serviceplan Group"><path d="M1818.33,203.39a69.67,69.67,0,0,0-25.09-4.62c-17.24,0-26.22,10.79-26.22,26.07,0,14.72,7,24.4,23.14,24.4a19.6,19.6,0,0,0,5.32-.7V219.8h26.08v46.68c-9.11,4.07-21.17,6.59-34.07,6.59-31.82,0-48.79-18.08-48.79-46.4,0-30.71,21.31-51.46,55.8-51.46a98.73,98.73,0,0,1,27.76,4.21Z" transform="translate(-346.4 -174.27)"/><path d="M1885.35,271.39l-17.81-34.49h-1v34.49h-26.07V176.76c8.83-.57,20.46-.71,32.38-.71,24.12,0,37.57,8.56,37.57,29.59,0,11.21-6.3,22-17.24,25.93,2.52,3.79,4.77,7.29,6.87,10.94l17,28.88Zm-13.88-73.89a42,42,0,0,0-4.91.29v20.32a37.84,37.84,0,0,0,4.35.28c7.15,0,12.06-3.78,12.06-10.79C1883,202,1880,197.5,1871.47,197.5Z" transform="translate(-346.4 -174.27)"/><path d="M1967.36,273.35c-29.72,0-44.3-17.94-44.3-48,0-30.56,21.59-50.61,48.09-50.61,24.68,0,44.3,13.32,44.3,47.67C2015.45,253.3,1994.28,273.35,1967.36,273.35Zm1.83-74.72c-9.12,0-18.37,7-18.37,24.81,0,16.12,5.19,25.94,17.81,25.94,8.13,0,19.06-5.61,19.06-25.66C1987.69,207.18,1981.67,198.63,1969.19,198.63Z" transform="translate(-346.4 -174.27)"/><path d="M2069.15,273.35c-30.42,0-38.42-16.12-38.42-36.17V176.76h26.08v59.16c0,10.09,3.09,15.56,13.88,15.56,10.52,0,13.88-4.49,13.88-16.26V176.76h25.8v57.06C2110.37,261.29,2094.52,273.35,2069.15,273.35Z" transform="translate(-346.4 -174.27)"/><path d="M2161.11,242.37c-.56,0-2.1,0-3.92-.14v29.16h-26.08V176.76c8.69-.43,18.23-.71,28.6-.71,25.24,0,39.12,10.8,39.12,31.69C2198.83,226.11,2186.49,242.37,2161.11,242.37Zm-1.4-45.15a20.13,20.13,0,0,0-2.52.14V220.5a12.32,12.32,0,0,0,2,.14c6.73,0,12.76-4.21,12.76-12.06C2171.91,202.41,2168.68,197.22,2159.71,197.22Z" transform="translate(-346.4 -174.27)"/><path d="M909.63,252.69a31.15,31.15,0,0,1-8,10.54,37.22,37.22,0,0,1-12.79,7,53.45,53.45,0,0,1-17,2.53q-4.92,0-9.84-.42a67,67,0,0,1-9.69-1.55l1.4-23.89a58.44,58.44,0,0,0,9.42,2.39,60.74,60.74,0,0,0,10.82,1,13.45,13.45,0,0,0,7.59-1.9,5.89,5.89,0,0,0,2.81-5.13,6.35,6.35,0,0,0-2.6-5.34,26,26,0,0,0-6.54-3.44c-2.62-1-5.48-2.06-8.57-3.24a32.28,32.28,0,0,1-8.57-4.84,24.52,24.52,0,0,1-6.54-8.08q-2.6-5-2.6-13.14,0-14.2,10.33-22.56t29.16-8.36q3.66,0,8.22.42t9.07,1.13l-1.41,22.62a82.1,82.1,0,0,0-8.29-1.83,53,53,0,0,0-8.57-.7c-3.66,0-6.3.64-7.94,1.9a5.73,5.73,0,0,0-2.46,4.71,5.59,5.59,0,0,0,2.6,4.78,37.13,37.13,0,0,0,6.53,3.51c2.63,1.12,5.48,2.32,8.58,3.58a36,36,0,0,1,8.57,5,25.15,25.15,0,0,1,6.53,7.87q2.61,4.78,2.6,12.23a30.87,30.87,0,0,1-2.81,13.21" transform="translate(-346.4 -174.27)"/><polygon points="578.47 96.69 578.47 1.83 633.98 1.83 633.98 24.03 604.61 24.03 604.61 37.38 632.43 37.38 632.43 58.74 604.61 58.74 604.61 74.2 633.98 74.2 633.98 96.69 578.47 96.69"/><path d="M1045.72,271l-17.85-34.58h-1V271h-26.14V176.1q6.75-.42,15.11-.56t17.36-.15q18.12,0,27.89,7t9.77,22.7a28.49,28.49,0,0,1-1.2,8.22,31,31,0,0,1-3.37,7.52,25.28,25.28,0,0,1-5.41,6.18,23.18,23.18,0,0,1-7.31,4.07q2,2.82,3.66,5.48c1.12,1.79,2.2,3.61,3.23,5.49l17,28.95Zm-4.92-71.25q-2.52-3-9-3c-.84,0-1.76,0-2.74.08a14.31,14.31,0,0,0-2.18.21v20.37a13,13,0,0,0,2,.21c.84,0,1.64.07,2.39.07A13.35,13.35,0,0,0,1040,215c2.25-1.82,3.37-4.52,3.37-8.08a10.59,10.59,0,0,0-2.53-7.16" transform="translate(-346.4 -174.27)"/><path d="M1137,271h-30.77L1075,176.1h28.1l14.48,47.5q1.13,3.79,2.32,7.87c.79,2.71,1.57,5.71,2.32,9h.28c.28-1.5.54-2.88.77-4.15s.51-2.57.84-3.93.73-2.86,1.2-4.5,1-3.53,1.68-5.69L1141,176.1h26.7Z" transform="translate(-346.4 -174.27)"/><rect x="831.17" y="1.83" width="26.14" height="94.86"/><path d="M1274.72,271.4a81.13,81.13,0,0,1-11.59.85q-13.91,0-22.69-4.29a37.12,37.12,0,0,1-13.78-11,37.9,37.9,0,0,1-6.74-14.55,69.08,69.08,0,0,1-1.76-15,65.74,65.74,0,0,1,3.3-21.43,46.13,46.13,0,0,1,9.56-16.45,41.67,41.67,0,0,1,15.32-10.47,55.19,55.19,0,0,1,20.73-3.65,81.44,81.44,0,0,1,9.41.56,59.94,59.94,0,0,1,8.85,1.69l-2.95,23.61a52.94,52.94,0,0,0-7.3-1.55,57.43,57.43,0,0,0-8-.56q-9.28,0-14.69,6.18T1247,223.06q0,12.36,5,18.83t16.09,6.47a44.08,44.08,0,0,0,7.24-.71,31.07,31.07,0,0,0,7.09-2l3.1,23.33a68.8,68.8,0,0,1-10.76,2.39" transform="translate(-346.4 -174.27)"/><polygon points="954 96.71 954 1.85 1009.51 1.85 1009.51 24.06 980.14 24.06 980.14 37.41 1007.97 37.41 1007.97 58.77 980.14 58.77 980.14 74.23 1009.51 74.23 1009.51 96.71 954 96.71"/><path d="M1441.75,220.36a30.68,30.68,0,0,1-7,11.1,33.92,33.92,0,0,1-11.8,7.59,45.15,45.15,0,0,1-16.65,2.81h-1.55c-.66,0-1.45-.05-2.39-.14V271h-26.14V176.09q6.61-.28,13.7-.49c4.74-.14,9.72-.21,15-.21q19.11,0,29.16,8t10,23.75a38,38,0,0,1-2.32,13.21m-27.4-20.26q-2.74-3.36-9.49-3.35h-1a8.82,8.82,0,0,0-1.55.14v23a5.53,5.53,0,0,0,1.13.14h.84a13.9,13.9,0,0,0,8.92-3.07q3.87-3.08,3.87-8.94a12.22,12.22,0,0,0-2.74-8" transform="translate(-346.4 -174.27)"/><polygon points="1107.82 96.68 1107.82 1.82 1133.96 1.82 1133.96 73.35 1159.43 73.35 1151.18 96.68 1107.82 96.68"/><path d="M1573.53,271l-4.92-15.46h-29.23L1534.6,271h-25.85l30.91-94.86h29.93L1602.06,271ZM1558.21,223q-1.26-4.08-2.46-8a63.09,63.09,0,0,1-1.9-8.44h-.28q-.71,4.08-1.89,8.72t-2.74,9.27L1545.7,235H1562Z" transform="translate(-346.4 -174.27)"/><path d="M1660.59,271l-15.88-32.46q-2.81-5.62-5.2-11.11t-4.22-10.26c.29,2.82.47,5.25.57,7.31s.14,4.64.14,7.73V271h-25.16V176.09h33.45l13.77,28.25q3.09,6.32,6.11,12.57t5.41,12q-.55-4.92-.77-10.05c-.14-3.42-.21-6.62-.21-9.62V176.09h25.15V271Z" transform="translate(-346.4 -174.27)"/><path d="M1818.9,203.39a69.67,69.67,0,0,0-25.09-4.62c-17.25,0-26.22,10.79-26.22,26.07,0,14.72,7,24.4,23.13,24.4a19.63,19.63,0,0,0,5.33-.7V219.8h26.08v46.68c-9.12,4.07-21.17,6.59-34.07,6.59-31.83,0-48.79-18.08-48.79-46.4,0-30.71,21.31-51.46,55.8-51.46a98.79,98.79,0,0,1,27.76,4.21Z" transform="translate(-346.4 -174.27)"/><path d="M1885.92,271.39l-17.81-34.49h-1v34.49h-26.08V176.76c8.84-.57,20.47-.71,32.39-.71,24.11,0,37.57,8.56,37.57,29.59,0,11.21-6.31,22-17.24,25.93,2.52,3.79,4.76,7.29,6.87,10.94l17,28.88ZM1872,197.5a41.81,41.81,0,0,0-4.91.29v20.32a37.68,37.68,0,0,0,4.35.28c7.15,0,12-3.78,12-10.79C1883.53,202,1880.59,197.5,1872,197.5Z" transform="translate(-346.4 -174.27)"/><path d="M1967.93,273.35c-29.72,0-44.3-17.94-44.3-48,0-30.56,21.59-50.61,48.09-50.61,24.67,0,44.3,13.32,44.3,47.67C2016,253.3,1994.85,273.35,1967.93,273.35Zm1.82-74.72c-9.11,0-18.36,7-18.36,24.81,0,16.12,5.19,25.94,17.8,25.94,8.13,0,19.07-5.61,19.07-25.66C1988.26,207.18,1982.23,198.63,1969.75,198.63Z" transform="translate(-346.4 -174.27)"/><path d="M2069.72,273.35c-30.43,0-38.42-16.12-38.42-36.17V176.76h26.08v59.16c0,10.09,3.08,15.56,13.88,15.56,10.51,0,13.88-4.49,13.88-16.26V176.76h25.79v57.06C2110.93,261.29,2095.09,273.35,2069.72,273.35Z" transform="translate(-346.4 -174.27)"/><path d="M2161.68,242.37c-.56,0-2.1,0-3.93-.14v29.16h-26.07V176.76c8.69-.43,18.22-.71,28.6-.71,25.23,0,39.11,10.8,39.11,31.69C2199.39,226.11,2187.06,242.37,2161.68,242.37Zm-1.4-45.15a20.35,20.35,0,0,0-2.53.14V220.5a12.49,12.49,0,0,0,2,.14c6.73,0,12.76-4.21,12.76-12.06C2172.48,202.41,2169.25,197.22,2160.28,197.22Z" transform="translate(-346.4 -174.27)"/></g></svg>