<svg width="50" height="50" viewBox="0 0 50 50" fill="none" xmlns="http://www.w3.org/2000/svg">
<path d="M18 28.5833V35.7499M32 24.9999V35.7499M25 17.8333V35.7499M39 15.6833V34.3166C39 37.3269 39 38.8319 38.4277 39.9818C37.9244 40.9932 37.1214 41.8154 36.1335 42.3307C35.0103 42.9166 33.5403 42.9166 30.6 42.9166H19.4C16.4597 42.9166 14.9896 42.9166 13.8666 42.3307C12.8787 41.8154 12.0756 40.9932 11.5722 39.9818C11 38.8319 11 37.3269 11 34.3166V15.6833C11 12.673 11 11.1678 11.5722 10.0181C12.0756 9.00668 12.8787 8.18441 13.8666 7.66909C14.9896 7.08325 16.4597 7.08325 19.4 7.08325H30.6C33.5403 7.08325 35.0103 7.08325 36.1335 7.66909C37.1214 8.18441 37.9244 9.00668 38.4277 10.0181C39 11.1678 39 12.673 39 15.6833Z" stroke="#AA6EF9" stroke-linecap="round" stroke-linejoin="round"/>
</svg>
