<svg width="1200" height="675" viewBox="0 0 1200 675" fill="none" xmlns="http://www.w3.org/2000/svg">
<rect width="1200" height="675" fill="#0F0F15"/>
<path d="M439.478 338.279C439.161 371.719 419.23 403.33 386.384 416.935C353.539 430.54 317.093 422.281 293.222 398.86L439.478 338.279Z" fill="white"/>
<path d="M320.578 258.065C364.449 239.893 414.744 260.727 432.916 304.597C435.578 311.023 437.401 317.587 438.44 324.168L283.979 388.147C280.06 382.76 276.708 376.829 274.046 370.403C255.875 326.532 276.708 276.237 320.578 258.065Z" fill="white"/>
<path d="M667.212 368.903C667.212 374.612 668.779 379.426 671.914 383.345C675.16 387.263 680.03 389.222 686.524 389.222C691.338 389.222 695.592 388.103 699.286 385.864C703.093 383.625 706.003 380.546 708.019 376.628C710.146 372.597 711.209 368.119 711.209 363.193V305.258H729.513V401.985H711.545V387.846C710.498 389.656 709.323 391.347 708.019 392.917C701.413 400.753 692.401 404.672 680.982 404.672C671.354 404.672 663.573 401.761 657.64 395.939C651.818 390.006 648.907 381.777 648.907 371.254V305.258H667.212V368.903Z" fill="white"/>
<path fill-rule="evenodd" clip-rule="evenodd" d="M890.806 302.571C899.651 302.571 907.543 304.81 914.484 309.288C921.425 313.766 926.855 319.979 930.773 327.928C934.692 335.765 936.651 344.833 936.651 355.133V358.323H862.601C863.266 367.346 865.837 374.623 870.319 380.154C875.693 386.647 882.97 389.894 892.15 389.894C898.083 389.894 903.233 388.55 907.599 385.864C911.965 383.065 915.044 378.923 916.835 373.437H934.636C932.509 383.177 927.583 390.846 919.858 396.443C912.133 401.929 902.841 404.672 891.982 404.672C882.578 404.672 874.237 402.545 866.96 398.29C859.795 393.924 854.198 387.935 850.167 380.322C846.249 372.597 844.29 363.865 844.29 354.125C844.29 344.273 846.305 335.429 850.335 327.592C854.366 319.755 859.907 313.654 866.96 309.288C874.013 304.81 881.962 302.571 890.806 302.571ZM891.478 317.348C882.41 317.348 875.301 320.595 870.151 327.088C866.483 331.633 864.123 337.399 863.068 344.385H917.536C916.675 337.286 914.65 331.465 911.462 326.92C906.983 320.539 900.322 317.348 891.478 317.348Z" fill="white"/>
<path fill-rule="evenodd" clip-rule="evenodd" d="M569.605 273.015C583.039 273.015 594.626 275.59 604.366 280.74C614.218 285.89 621.719 293.335 626.869 303.074C632.019 312.702 634.593 324.178 634.593 337.5C634.593 350.822 632.019 362.354 626.869 372.093C621.719 381.721 614.218 389.11 604.366 394.26C594.626 399.41 583.039 401.985 569.605 401.985H525.439V273.015H569.605ZM544.415 385.192H567.758C582.871 385.192 594.514 381.106 602.687 372.933C610.859 364.649 614.946 352.838 614.946 337.5C614.946 322.162 610.859 310.407 602.687 302.235C594.514 293.95 582.871 289.808 567.758 289.808H544.415V385.192Z" fill="white"/>
<path d="M797.733 302.571C807.585 302.571 815.478 305.537 821.411 311.471C827.345 317.292 830.312 325.465 830.312 335.989V401.985H812.007V338.34C812.007 332.63 810.384 327.816 807.137 323.898C803.891 319.979 798.909 318.02 792.192 318.02C784.691 318.02 778.59 320.483 773.887 325.409C769.297 330.335 767.002 336.548 767.002 344.049V401.985H748.698V305.258H766.834V319.242C767.884 317.484 769.059 315.845 770.361 314.326C777.078 306.489 786.202 302.571 797.733 302.571Z" fill="white"/>
</svg>
