<svg width="1080" height="1080" viewBox="0 0 1080 1080" fill="none" xmlns="http://www.w3.org/2000/svg">
<path fill-rule="evenodd" clip-rule="evenodd" d="M1069 544.5C1069 834.173 834.173 1069 544.5 1069C254.827 1069 20 834.173 20 544.5C20 254.827 254.827 20 544.5 20C834.173 20 1069 254.827 1069 544.5ZM620.15 274.055C469.578 274.055 347.5 395.383 347.5 545.09H423.243C423.243 437.144 511.563 349.351 620.15 349.351C728.737 349.351 817.057 437.176 817.057 545.09H892.799C892.799 395.415 770.722 274.055 620.15 274.055ZM741.498 545.064C741.498 694.77 619.421 816.099 468.849 816.099C318.277 816.099 196.199 694.739 196.199 545.064H271.942C271.942 652.978 360.262 740.802 468.849 740.802C577.436 740.802 665.755 653.009 665.755 545.064H741.498Z" fill="#FF003D"/>
</svg>
