<svg width="33" height="69" viewBox="0 0 33 69" fill="none" xmlns="http://www.w3.org/2000/svg">
<mask id="mask0_4231_2600" style="mask-type:luminance" maskUnits="userSpaceOnUse" x="0" y="0" width="33" height="69">
<path d="M33 0H0V68.6012H33V0Z" fill="white"/>
</mask>
<g mask="url(#mask0_4231_2600)">
<path d="M28.5703 67.8481C26.645 67.368 25.3359 67.11 23.0309 67.098C21.7816 67.098 19.2782 67.0957 16.2254 67.0933C12.9935 67.0933 9.47254 67.0933 5.84886 67.0933C5.395 67.0933 4.94115 67.0933 4.4849 67.0933C4.10033 67.0933 3.75158 67.0337 3.4076 66.9045C2.72683 66.6515 2.14399 66.1282 1.8215 65.4713C1.65907 65.1442 1.55874 64.7882 1.5253 64.4227L1.51097 64.1408V63.797V63.1067C1.51097 62.187 1.51097 61.2721 1.51097 60.3596C1.51097 53.0668 1.51097 46.1061 1.50858 40.968C1.50858 40.6479 1.50858 40.335 1.50858 40.0269C1.51814 39.7833 1.53725 39.5442 1.59935 39.3198C1.71162 38.8706 1.92183 38.4742 2.18697 38.1589C2.72204 37.5259 3.41954 37.2177 3.99283 37.1437C4.13616 37.1126 4.27709 37.1175 4.40607 37.1078C4.56612 37.1078 4.719 37.1078 4.85756 37.1078C5.14181 37.1078 5.38306 37.1078 5.57894 37.1078C5.97069 37.1078 6.17611 37.1078 6.17611 37.1078C6.17611 37.1078 9.49164 37.1078 14.6298 37.1078C17.1976 37.1078 20.2241 37.1078 23.518 37.1078C25.1617 37.1078 26.8694 37.1103 28.6227 37.1126C29.325 37.1175 30.0203 37.4017 30.5458 37.8866C31.0736 38.369 31.4152 39.0546 31.4772 39.7761L31.4917 40.0531V40.3948V41.0802C31.4917 41.5389 31.4917 41.9976 31.4917 42.4561C31.4917 43.3757 31.4917 44.2954 31.4917 45.2176C31.4917 47.0592 31.4917 48.896 31.4917 50.7092C31.4917 54.3041 31.4917 57.7965 31.4917 61.0021C31.4917 61.7642 31.4917 62.4568 31.4917 63.0374C31.4917 63.3288 31.4917 63.5891 31.4917 63.8184C31.4917 63.9331 31.4917 64.0381 31.4917 64.136C31.4892 64.2148 31.4845 64.2866 31.4822 64.3512C31.4558 64.8097 31.3483 65.211 31.1955 65.567C31.0427 65.9228 30.8467 66.2381 30.6126 66.5224C30.3785 66.8066 30.1063 67.0671 29.7742 67.2939C29.4422 67.5208 29.048 67.7168 28.5654 67.8409C29.5329 68.075 30.5099 67.896 31.3339 67.3538C31.7472 67.079 32.1247 66.7063 32.4208 66.2214C32.717 65.7388 32.9321 65.137 32.9775 64.4442C32.9822 64.3534 32.9895 64.2388 32.9917 64.1338C32.9917 64.0358 32.9917 63.9306 32.9917 63.8159C32.9917 63.5866 32.9917 63.3238 32.9917 63.0349C32.9917 62.4545 32.9917 61.7592 32.9917 60.9998C32.9917 57.7941 32.9917 54.3018 32.9917 50.7067C32.9917 48.8938 32.9917 47.0569 32.9917 45.2151C32.9917 44.2954 32.9917 43.3735 32.9917 42.4538C32.9917 41.9951 32.9917 41.5366 32.9917 41.0779V40.3923V40.0508C32.9895 39.9217 32.9798 39.7783 32.9725 39.6447C32.8795 38.5483 32.3587 37.5044 31.561 36.7735C30.7679 36.0401 29.7025 35.6102 28.6444 35.6005C26.8814 35.6005 25.1617 35.6005 23.511 35.5983C20.217 35.5983 17.1928 35.5983 14.6226 35.5983C9.48449 35.5983 6.16896 35.5983 6.16896 35.5983C6.16896 35.5983 5.96114 35.5983 5.57178 35.5983C5.3759 35.5983 5.13463 35.5983 4.85038 35.5983C4.70706 35.5983 4.55179 35.5983 4.38458 35.5983C4.18871 35.6102 3.9785 35.6102 3.76113 35.6507C2.88925 35.7678 1.83106 36.2312 1.02367 37.1891C0.62476 37.6645 0.304672 38.2663 0.132686 38.9471C0.0395261 39.2864 0.00608417 39.647 -0.00347067 40.0149C-0.00347067 40.323 -0.00347067 40.6359 -0.00347067 40.9585C-0.00347067 46.0966 -0.00347067 53.0573 -0.00585938 60.3499C-0.00585938 61.2626 -0.00585938 62.1773 -0.00585938 63.097V63.7873V64.1313C-0.00347067 64.2579 0.00608417 64.4036 0.0132503 64.5397C0.0610244 65.0916 0.213901 65.6361 0.462327 66.133C0.954401 67.1291 1.83345 67.9197 2.87015 68.3068C3.38371 68.5026 3.95222 68.5933 4.47775 68.5933C4.93399 68.5933 5.38785 68.5933 5.8417 68.5933C9.46776 68.5933 12.9887 68.5933 16.2182 68.5933C19.2686 68.5933 21.7719 68.5886 23.0237 68.5886C25.3287 68.5766 26.6378 68.3188 28.5631 67.8386L28.5703 67.8481Z" fill="black" fill-opacity="0.99"/>
<path d="M28.1784 42.4408C26.8621 42.7704 25.7395 43.2648 24.8078 43.9217C24.6717 44.3876 24.5762 44.8987 24.5164 45.4624C24.4591 46.0238 24.3898 46.5374 24.3135 47.0031C24.2369 47.469 24.1008 47.7986 23.9074 47.9898C23.5967 48.262 23.0951 48.4149 22.3976 48.4555C21.7001 48.4937 20.9262 48.5034 20.0734 48.4842C19.5694 48.465 19.0606 48.4555 18.5494 48.4555C18.0383 48.4555 17.5271 48.4747 17.0255 48.5128C16.9681 48.551 16.9323 48.6347 16.9227 48.7589C16.9132 48.8855 16.9084 49.005 16.9084 49.1219C16.9084 49.2964 16.8988 49.4038 16.8797 49.442C17.1711 49.5592 17.4602 49.6021 17.7516 49.5734C18.043 49.5447 18.3416 49.5018 18.6521 49.442C18.8074 49.423 18.9675 49.3991 19.1323 49.3704C19.2971 49.3418 19.4667 49.3178 19.6411 49.2987C20.1833 49.2797 20.7161 49.3513 21.2391 49.516C21.7624 49.6808 22.2567 49.8506 22.7202 50.0249C22.8371 50.0822 22.9565 50.1373 23.0832 50.1849C23.2098 50.2328 23.3292 50.2781 23.4464 50.3163C23.2911 50.6269 22.9997 50.8251 22.5744 50.9111C22.1493 50.9971 21.6739 51.0425 21.1508 51.0425H20.4532C20.0854 51.0233 19.6793 51.0138 19.2326 51.0138C18.7859 51.0138 18.3655 51.0281 17.969 51.0567C17.5725 51.0854 17.2667 51.1405 17.0541 51.2168C16.918 51.2741 16.8129 51.4055 16.734 51.6087C16.6576 51.8116 16.617 51.9814 16.617 52.1175H17.5032C17.8042 52.1175 18.1075 52.127 18.4181 52.1461C19.3664 52.1651 20.286 52.1604 21.177 52.1317C22.068 52.103 22.7942 51.9335 23.3554 51.6229C23.7426 51.7974 24.1582 51.924 24.6049 52.0003C25.0492 52.0768 25.4815 52.1556 25.8971 52.2322C26.3126 52.3085 26.6759 52.4446 26.9863 52.6381C27.2969 52.8317 27.5095 53.1326 27.6265 53.5387C27.0269 53.7512 26.3296 53.8444 25.5341 53.8157C24.7385 53.7871 23.9934 53.7345 23.2981 53.6557C23.6087 53.9471 23.9719 54.1837 24.3875 54.3677C24.8031 54.5514 25.2307 54.7307 25.6654 54.9049C26.1002 55.0794 26.4727 55.3016 26.7833 55.5738C26.7833 55.8844 26.8312 56.1018 26.9291 56.2285C27.0269 56.3549 27.1463 56.4863 27.2921 56.6201C27.4377 56.7562 27.5788 57.007 27.7125 57.375C27.6362 57.5685 27.4544 57.7333 27.175 57.8694C26.8932 58.0055 26.53 58.0534 26.0858 58.0152C25.9305 57.996 25.6797 57.8455 25.3309 57.5637C24.9823 57.2842 24.6286 56.9545 24.2704 56.5772C23.9121 56.1998 23.6064 55.8558 23.3554 55.5451C23.162 55.2754 23.0116 55.0126 22.9042 54.7618C22.7965 54.5108 22.6771 54.2767 22.541 54.0643C22.4048 53.8516 22.1827 53.6868 21.8721 53.5697C21.3682 53.5889 20.9382 53.5984 20.5798 53.5984C20.2215 53.5984 19.868 53.5889 19.5193 53.5697H18.3273C18.6187 53.8015 18.8982 54.0882 19.1705 54.4273C19.4404 54.7666 19.6387 55.1487 19.7653 55.5738C19.8919 55.9991 19.8776 56.4935 19.7223 57.0549C19.6244 57.2292 19.5288 57.3224 19.4309 57.3319C19.3329 57.3416 19.2278 57.3366 19.1108 57.3177C19.0535 57.2985 18.9842 57.2795 18.9078 57.2603C18.8313 57.2411 18.7429 57.2411 18.6474 57.2603C18.3966 57.0858 18.2055 56.8542 18.0812 56.5628C17.9547 56.2714 17.8352 55.9824 17.7182 55.691C17.6011 55.3995 17.4172 55.1677 17.1664 54.9934C17.379 54.8381 17.4817 54.6304 17.4721 54.3699C17.4626 54.1096 17.4196 53.8803 17.3407 53.6868C16.992 53.6677 16.6433 53.6677 16.2945 53.6868C15.9458 53.7058 15.6066 53.7345 15.2769 53.7728C14.8708 53.811 14.4671 53.8421 14.0706 53.8588C13.6741 53.8778 13.2919 53.8492 12.924 53.7728C12.9622 54.0643 13.065 54.2959 13.2298 54.4704C13.3946 54.6447 13.5642 54.8142 13.7386 54.979C13.913 55.144 14.0181 55.3709 14.0587 55.6623C14.6009 55.5262 15.1288 55.5953 15.6424 55.8652C16.156 56.1377 16.6002 56.496 16.9777 56.9402C17.3551 57.387 17.5916 57.812 17.6895 58.2181H17.7182C18.1434 58.2563 18.5494 58.2613 18.9388 58.2326C19.3258 58.2039 19.751 58.0439 20.2168 57.7524C22.2114 57.8886 23.7019 58.5263 24.6909 59.6706C24.0507 59.7875 23.4464 59.8545 22.8755 59.8735C22.3046 59.8927 21.7001 59.9022 21.0601 59.9022C20.5942 59.9022 20.1021 59.9069 19.579 59.9166C19.0558 59.9261 18.4754 59.9595 17.8352 60.0193C17.6226 60.1171 17.496 60.2509 17.4578 60.4254C17.4196 60.5997 17.3647 60.7503 17.2978 60.8767C17.2285 61.0033 17.0517 61.0654 16.7603 61.0654C16.7221 61.2018 16.7985 61.2686 16.992 61.2686C17.1282 61.2686 17.2046 61.2876 17.2237 61.3259C17.1855 61.4812 17.0302 61.5575 16.7579 61.5575C16.9514 61.732 17.1927 61.8537 17.4841 61.9207C17.7755 61.9898 18.0932 62.0235 18.442 62.0235C18.6737 62.0235 18.9173 62.0185 19.1681 62.009C19.4189 61.9995 19.6817 61.9851 19.9516 61.9661C20.2813 61.9469 20.6205 61.9327 20.9691 61.923C21.3179 61.9135 21.6572 61.9183 21.9868 61.9375C22.0822 61.9375 22.1134 61.8801 22.0728 61.763C22.0346 61.6268 22.0728 61.5503 22.1899 61.5313C22.8683 61.5503 23.5753 61.6293 24.311 61.763C25.0467 61.8991 25.725 62.1022 26.3438 62.3722C26.9625 62.642 27.4377 63.0219 27.7675 63.5043C27.5167 63.8149 27.2348 63.975 26.9242 63.9845C26.6138 63.994 26.2555 63.9703 25.8494 63.9129C25.6941 63.8937 25.5246 63.8698 25.3406 63.8411C25.1566 63.8125 24.9679 63.7982 24.7744 63.7982C24.7171 63.7982 24.6096 63.8172 24.4543 63.8556C24.2801 63.9129 24.1629 63.9319 24.1056 63.9129C23.9694 63.8937 23.8381 63.8508 23.7139 63.7815C23.5873 63.7145 23.4678 63.6691 23.3507 63.6502C21.7624 63.4948 20.0973 63.4567 18.3536 63.533C16.6098 63.6095 14.964 63.717 13.4161 63.8531C12.7568 63.9104 12.0808 63.9703 11.3833 64.0276C10.6858 64.0849 10.1149 64.2879 9.67062 64.6366C8.85845 64.7728 8.18005 64.6558 7.63782 64.2879C7.09559 63.9199 6.58201 63.5043 6.09711 63.0386C5.98007 62.9407 5.87018 62.8404 5.7627 62.7328C5.6552 62.6253 5.54531 62.5251 5.42826 62.4271C6.10666 62.4844 6.57963 62.5131 6.85195 62.5131C7.41328 62.5131 8.01763 62.4844 8.66736 62.4271C9.31709 62.3698 9.97876 62.3005 10.6572 62.2239C11.4693 62.1476 12.2695 62.0736 13.053 62.0068C13.8365 61.9397 14.5293 61.9255 15.1312 61.9636C15.2482 61.8083 15.2912 61.6101 15.2626 61.3688C15.2339 61.1277 15.2005 60.8887 15.1599 60.6571C15.1408 60.5399 15.1216 60.4349 15.1025 60.337C15.0834 60.2415 15.0739 60.153 15.0739 60.0767C14.0085 60.0956 13.1127 60.134 12.3866 60.1936C11.6604 60.2509 10.939 60.3108 10.2224 60.3681C9.85455 60.1171 9.51536 59.8401 9.20483 59.5392C8.8943 59.2381 8.5551 58.9635 8.18723 58.7103C8.86563 58.5741 9.5464 58.4929 10.2343 58.4642C10.9223 58.4355 11.6341 58.4213 12.3699 58.4213C12.7759 58.4213 13.1916 58.4164 13.6192 58.4069C14.0443 58.3974 14.4815 58.3829 14.9258 58.364C15.081 58.2874 15.1814 58.1752 15.2315 58.0294C15.2793 57.8838 15.3127 57.7238 15.3342 57.5493C15.1216 57.4919 14.9664 57.3558 14.8685 57.1432C14.7705 56.9307 14.6797 56.7037 14.5914 56.4601C14.5054 56.2188 14.3644 56.0492 14.1709 55.9513C14.0157 56.4361 13.9201 56.8662 13.8795 57.2436C13.8413 57.6211 13.5976 57.9075 13.1534 58.1012C12.7282 57.9459 12.4367 57.7285 12.2815 57.4466C12.1262 57.1671 12.0211 56.8567 11.9614 56.5174C11.9041 56.1781 11.787 55.8749 11.6126 55.6025L11.8443 55.3995C11.8252 55.1677 11.8157 54.9313 11.8157 54.6876C11.8157 54.444 11.8539 54.2194 11.9327 54.0045C11.4669 53.909 11.0465 53.885 10.6691 53.9329C10.2917 53.9805 9.91905 54.0546 9.55118 54.1503C9.27887 54.2076 8.99938 54.2672 8.70797 54.3246C8.41654 54.3819 8.09885 54.4011 7.7501 54.3819C7.9818 54.6541 8.15617 54.9862 8.27321 55.3828C8.39026 55.7792 8.56465 56.1138 8.79635 56.386C8.42848 56.5987 8.11319 56.9188 7.85282 57.3439C7.59245 57.7691 7.31056 58.1823 7.0096 58.5789C6.70862 58.9753 6.30732 59.243 5.80329 59.3767C5.47366 59.2024 5.25151 58.9658 5.13446 58.6649C5.01741 58.364 4.94098 58.0461 4.90276 57.7071C4.86454 57.3678 4.76659 57.0644 4.61133 56.7921C5.25151 56.5222 5.75791 56.1352 6.13533 55.6312C6.51275 55.1273 6.94272 54.6828 7.42761 54.2959C7.02155 54.0451 6.59397 53.8015 6.14966 53.5697C5.70297 53.3381 5.37571 53.1541 5.16313 53.018C6.05411 52.7265 7.01198 52.5523 8.03912 52.4949C9.06627 52.4376 10.1101 52.3969 11.1755 52.3778C11.7751 52.3778 12.377 52.3683 12.9766 52.3491C13.5762 52.3299 14.1686 52.2918 14.749 52.2322C14.8469 51.9407 14.9138 51.6613 14.952 51.3888C14.2928 51.2933 13.6168 51.2574 12.9193 51.2861C12.2217 51.3148 11.5625 51.2908 10.9438 51.2145C10.4398 51.138 9.98115 50.9971 9.56312 50.794C9.14749 50.591 8.8035 50.2662 8.53119 49.8219C8.9755 49.8982 9.45562 49.9294 9.96921 49.9079C10.4828 49.8887 11.0393 49.8506 11.6389 49.7908C12.1429 49.7526 12.6756 49.7192 13.237 49.6881C13.7983 49.6594 14.3883 49.6546 15.0094 49.6738C15.0094 49.5973 14.9998 49.509 14.9807 49.4133C14.9616 49.3154 14.9329 49.2199 14.8947 49.1219C14.8756 49.0456 14.8517 48.9668 14.8231 48.8903C14.7944 48.8138 14.7801 48.735 14.7801 48.6585C14.1208 48.5607 13.3946 48.5557 12.6016 48.6442C11.8061 48.7302 11.1683 48.8808 10.6834 49.0957C10.2367 48.9212 9.7781 48.7614 9.30275 48.6156C8.82741 48.4699 8.43566 48.2429 8.1275 47.9325V46.7403C8.14662 46.1599 8.1514 45.5342 8.14183 44.8676C8.13228 44.1989 8.03912 43.5468 7.86715 42.9066L6.82088 42.209C6.47214 41.9774 6.19028 41.6763 5.97767 41.3085C6.03501 41.3085 6.13294 41.2799 6.2691 41.2225C6.44347 41.1844 6.64652 41.1413 6.87822 41.0911C7.10992 41.0433 7.36312 41.0672 7.63306 41.1627C8.50492 40.8929 9.53445 40.7185 10.7264 40.6397C11.9184 40.5631 13.1653 40.513 14.4743 40.4941C15.7809 40.4749 17.0541 40.427 18.2939 40.3482V40.6397C20.0161 40.2909 21.6931 40.1308 23.3198 40.1595C24.9464 40.1882 26.554 40.6205 28.1425 41.4519C28.1617 41.49 28.1807 41.5498 28.1998 41.6262C28.2572 41.7433 28.2953 41.8627 28.3168 41.9894C28.336 42.1158 28.2881 42.2664 28.1712 42.4384L28.1784 42.4408ZM14.6128 41.9487C13.9153 42.0061 13.2226 42.0418 12.5371 42.0514C11.8491 42.0609 11.1755 42.1542 10.5186 42.3284C10.4207 42.5792 10.4063 42.8804 10.4756 43.2289C10.5425 43.5777 10.6165 43.8788 10.693 44.1296C11.2925 43.9743 11.9662 43.9025 12.7114 43.9122C13.4567 43.9217 14.1017 43.831 14.6439 43.635L14.6152 41.951L14.6128 41.9487ZM14.7586 47.2923C14.7395 47.0604 14.7299 46.7356 14.7299 46.32C14.7299 45.9044 14.6917 45.5412 14.6128 45.2308C13.8771 45.2689 13.1701 45.3143 12.4917 45.3622C11.8133 45.4098 11.2233 45.503 10.7193 45.6369V46.1026C10.7002 46.3344 10.7002 46.5636 10.7193 46.7859C10.7384 47.008 10.8244 47.2063 10.9796 47.3805C11.2902 47.3424 11.5935 47.3232 11.8945 47.3232H13.7386C14.0491 47.3232 14.3883 47.3137 14.7562 47.2945L14.7586 47.2923ZM21.8746 41.5713C21.1005 41.6095 20.2335 41.6429 19.2756 41.674C18.3177 41.7027 17.3814 41.7266 16.4737 41.7456C16.6289 41.9774 16.7698 42.2497 16.8941 42.5578C17.0207 42.8684 17.035 43.1788 16.9371 43.4869C17.4602 43.5253 17.9881 43.6041 18.5208 43.7188C19.0535 43.8357 19.524 43.991 19.9301 44.1845C20.3362 44.3779 20.6085 44.6193 20.7422 44.9107C20.587 44.9299 20.4318 44.9441 20.2765 44.9536C20.1212 44.9633 19.9659 44.9775 19.8107 44.9967C19.3855 45.054 18.9388 45.1042 18.4754 45.1423C18.0096 45.1807 17.5462 45.1807 17.0804 45.1423C16.9633 45.3741 16.8965 45.6225 16.8773 45.883C16.8582 46.1432 16.8487 46.3918 16.8487 46.6234C16.8487 46.7214 16.8439 46.8074 16.8343 46.8837C16.8248 46.9602 16.82 47.039 16.82 47.1155C16.9944 47.1345 17.2118 47.1394 17.4745 47.1297C17.7349 47.1202 18.0215 47.1058 18.3321 47.0868C18.8361 47.0485 19.3783 47.0248 19.9588 47.0151C20.5392 47.0056 21.0718 47.0677 21.5567 47.2038C21.5951 47.0103 21.6332 46.8216 21.6739 46.6376C21.712 46.4539 21.7504 46.2746 21.7908 46.1003C21.9653 45.2881 22.0967 44.5021 22.1827 43.7474C22.2687 42.9926 22.1683 42.2664 21.8768 41.5688L21.8746 41.5713Z" fill="black" fill-opacity="0.99"/>
<path d="M4.43213 0.756786C6.35743 1.23692 7.66644 1.4949 9.97155 1.50684C11.2208 1.50684 13.7242 1.50923 16.777 1.51162C20.0089 1.51162 23.5299 1.51162 27.1535 1.51162C27.6074 1.51162 28.0612 1.51162 28.5174 1.51162C28.902 1.51162 29.2508 1.57133 29.5948 1.70032C30.2757 1.95353 30.8583 2.47665 31.1809 3.13356C31.3434 3.46079 31.4437 3.81672 31.4771 4.18219L31.4915 4.46405V4.80804V5.49838C31.4915 6.41803 31.4915 7.33289 31.4915 8.24538C31.4915 15.5381 31.4915 22.4987 31.4938 27.6368C31.4938 27.9569 31.4938 28.27 31.4938 28.5781C31.4843 28.8217 31.4651 29.0606 31.403 29.2852C31.2908 29.7342 31.0807 30.1308 30.8154 30.4459C30.2804 31.0791 29.5829 31.3873 29.0095 31.4613C28.8662 31.4923 28.7253 31.4875 28.5964 31.497C28.4363 31.497 28.2833 31.497 28.1449 31.497C27.8607 31.497 27.6194 31.497 27.4234 31.497C27.0318 31.497 26.8263 31.497 26.8263 31.497C26.8263 31.497 23.5107 31.497 18.3726 31.497C15.8048 31.497 12.7783 31.497 9.48424 31.497C7.84082 31.497 6.13289 31.4947 4.37958 31.4923C3.6773 31.4875 2.98219 31.2033 2.45667 30.7184C1.92877 30.2358 1.58719 29.5502 1.52508 28.8289L1.51074 28.5517V28.2102V27.5246C1.51074 27.0659 1.51074 26.6074 1.51074 26.1487C1.51074 25.2291 1.51074 24.3094 1.51074 23.3875C1.51074 21.5456 1.51074 19.7088 1.51074 17.8958C1.51074 14.3008 1.51074 10.8085 1.51074 7.60283C1.51074 6.84082 1.51074 6.14811 1.51074 5.56764C1.51074 5.27623 1.51074 5.01586 1.51074 4.78653C1.51074 4.67187 1.51074 4.56677 1.51074 4.46884C1.51314 4.39001 1.51791 4.31834 1.5203 4.25385C1.54658 3.79523 1.65407 3.39393 1.80694 3.038C1.95982 2.68208 2.15571 2.36678 2.38978 2.08253C2.62387 1.79826 2.89621 1.53789 3.22823 1.31097C3.56025 1.08404 3.95439 0.888163 4.43691 0.763951C3.46948 0.529857 2.49251 0.70901 1.6684 1.25125C1.25515 1.52595 0.877739 1.89859 0.581539 2.38349C0.28056 2.86125 0.065577 3.46079 0.0201916 4.15353C0.0154142 4.2443 0.00824808 4.35895 0.00585938 4.46405C0.00585938 4.562 0.00585938 4.66711 0.00585938 4.78176C0.00585938 5.01107 0.00585938 5.27383 0.00585938 5.56287C0.00585938 6.14332 0.00585938 6.83843 0.00585938 7.59804C0.00585938 10.8037 0.00585938 14.296 0.00585938 17.891C0.00585938 19.704 0.00585938 21.5409 0.00585938 23.3827C0.00585938 24.3024 0.00585938 25.2243 0.00585938 26.144C0.00585938 26.6027 0.00585938 27.0612 0.00585938 27.5199V28.2055V28.547C0.00824808 28.6759 0.0178029 28.8193 0.0249691 28.9531C0.118129 30.0495 0.638868 31.0934 1.43669 31.8243C2.22975 32.5577 3.29511 32.9876 4.3533 32.9973C6.11618 32.9973 7.83604 32.9973 9.48664 32.9995C12.7807 32.9995 15.8048 32.9995 18.375 32.9995C23.5131 32.9995 26.8286 32.9995 26.8286 32.9995C26.8286 32.9995 27.0365 32.9995 27.4259 32.9995C27.6216 32.9995 27.863 32.9995 28.1472 32.9995C28.2905 32.9995 28.4458 32.9995 28.6131 32.9995C28.8088 32.9876 29.0192 32.9876 29.2366 32.9469C30.1084 32.83 31.1665 32.3665 31.9739 31.4087C32.3728 30.9333 32.6929 30.3315 32.8649 29.6506C32.9582 29.3114 32.9916 28.9506 33.0011 28.5829C33.0011 28.2748 33.0011 27.9619 33.0011 27.6393C33.0011 22.5012 33.0011 15.5405 33.0035 8.24777C33.0035 7.33528 33.0035 6.42042 33.0035 5.50075V4.81043V4.46645C33.0011 4.33985 32.9916 4.19414 32.9844 4.05797C32.9365 3.50619 32.7837 2.96157 32.5353 2.46471C32.0432 1.46862 31.1642 0.677957 30.1274 0.290987C29.6138 0.092724 29.0454 0.00195312 28.5174 0.00195312C28.0612 0.00195312 27.6074 0.00195312 27.1535 0.00195312C23.5274 0.00195312 20.0065 0.00195312 16.777 0.00195312C13.7266 0.00195312 11.2232 0.00673055 9.97155 0.00673055C7.66644 0.0186741 6.35743 0.276654 4.43213 0.756786Z" fill="black" fill-opacity="0.99"/>
<path d="M29.9231 23.7258C29.3617 23.8235 28.7407 23.8571 28.0646 23.8285C27.3863 23.7998 26.6695 23.7567 25.9149 23.6971C25.8169 23.6971 25.7262 23.6921 25.6377 23.6827C25.5517 23.6732 25.4587 23.6684 25.363 23.6684C24.7038 23.6301 24.0229 23.5966 23.3159 23.5657C22.6089 23.537 21.8874 23.5513 21.1517 23.6086C21.8301 23.9382 22.5012 24.3443 23.1701 24.8292C23.839 25.3141 24.3859 25.885 24.8112 26.5419C25.0812 26.9886 25.2794 27.476 25.4061 28.0085C25.5327 28.5413 25.5374 29.1266 25.4203 29.7666C24.5677 29.8838 23.9058 29.8289 23.4306 29.6068C22.9552 29.3844 22.573 29.0693 22.2841 28.6632C21.9543 28.1973 21.6748 27.655 21.4407 27.0365C21.2066 26.4177 20.889 25.8349 20.4829 25.2926C20.2106 24.9057 19.9359 24.5809 19.654 24.3204C19.3721 24.0601 19.0974 23.7831 18.8251 23.4917C18.0129 23.5106 17.2462 23.5777 16.5296 23.6946C15.813 23.8118 15.1154 23.8881 14.4371 23.9262C14.3797 24.0028 14.4275 24.1294 14.5828 24.3037C14.6592 24.3802 14.7333 24.4782 14.8001 24.5951C14.867 24.7123 14.8909 24.8364 14.8718 24.9725C14.3296 25.3978 13.7969 25.9066 13.2738 26.4965C12.7506 27.0866 12.2179 27.5189 11.6757 27.7889C11.7139 28.0803 11.6279 28.3216 11.4153 28.5151C11.2027 28.7085 10.9591 28.8925 10.6892 29.0668C10.553 29.1623 10.4169 29.2603 10.2831 29.3582C10.1469 29.4562 10.0323 29.5612 9.93434 29.6783C9.56647 29.5804 9.19862 29.5375 8.83076 29.547C8.46289 29.5564 8.05682 29.4944 7.61013 29.3582C7.88005 28.8352 8.29329 28.3359 8.84509 27.8629C9.39687 27.3875 9.94389 26.8954 10.4861 26.3818C11.0284 25.8683 11.4249 25.2926 11.6781 24.6524C11.2529 24.361 10.7728 24.2942 10.2401 24.4495C9.70742 24.6048 9.18905 24.7886 8.68504 25.0012C8.39363 25.1373 8.12369 25.252 7.87289 25.35C7.62207 25.4479 7.38798 25.4958 7.17537 25.4958C6.57583 25.5148 6.01687 25.3834 5.50568 25.1039C4.99211 24.8245 4.50241 24.5188 4.03901 24.189C3.88375 24.0912 3.72848 23.9955 3.57322 23.8976C3.41795 23.7998 3.26269 23.7041 3.10742 23.6061C3.16474 23.5106 3.27224 23.4653 3.4275 23.475C3.58277 23.4844 3.6592 23.4224 3.6592 23.2862C5.0136 23.1691 6.48266 23.021 8.0592 22.8348C9.63814 22.6508 11.2696 22.4763 12.9537 22.3115C14.6377 22.1467 16.3026 22.056 17.9508 22.0345H18.7487C19.0281 22.0345 19.3243 22.044 19.6349 22.0632C20.0027 22.0632 20.3754 22.0679 20.7529 22.0774C21.1303 22.0871 21.5028 22.0822 21.8707 22.0632C22.4511 22.0248 23.0078 21.9508 23.5403 21.8458C24.0731 21.7383 24.5532 21.5591 24.9785 21.3083C25.5016 21.4063 26.0677 21.497 26.6768 21.5853C27.2858 21.6713 27.8545 21.8219 28.3752 22.0368C28.743 22.1921 29.0678 22.4 29.3473 22.6603C29.6268 22.9208 29.8155 23.2743 29.9134 23.7208L29.9231 23.7258ZM24.9855 12.1046C24.8494 12.3363 24.6464 12.5011 24.3765 12.5991C24.1042 12.697 23.8295 12.7925 23.5475 12.8905C23.2658 12.9884 23.0484 13.1413 22.8931 13.3563C22.8143 14.2664 22.776 15.0761 22.776 15.7808C22.776 16.4855 22.7857 17.1902 22.8046 17.8877C22.8238 18.4681 22.8333 19.0701 22.8333 19.6887C22.8333 20.3074 22.8143 20.9857 22.776 21.7216C22.6017 21.6643 22.4559 21.6404 22.3414 21.6498C22.2242 21.6593 22.1096 21.6643 21.9926 21.6643C21.8755 21.6833 21.7561 21.6977 21.6294 21.7072C21.5028 21.7167 21.3427 21.693 21.1493 21.6356C20.9558 21.5376 20.7958 21.4085 20.6691 21.2437C20.5426 21.079 20.4016 20.9284 20.2488 20.7923C19.5322 20.9668 18.7917 21.0647 18.0273 21.0837C17.2629 21.1029 16.5176 21.1171 15.7914 21.1268C15.0653 21.1363 14.3917 21.2295 13.773 21.4038C13.5222 21.4803 13.2881 21.607 13.0755 21.7812C12.8629 21.9557 12.6192 22.0417 12.3493 22.0417C11.9241 22.0417 11.4774 21.8817 11.014 21.5616C10.5482 21.2415 10.1517 20.9476 9.82208 20.6753C9.91761 20.618 10.0347 20.5893 10.1708 20.5893C10.307 20.5893 10.4121 20.5511 10.4909 20.4722C10.2186 20.2979 10.0801 20.0662 10.0705 19.7747C10.0609 19.4833 10.0753 19.1847 10.1135 18.8742C10.1517 18.6234 10.1708 18.375 10.1708 18.1337C10.1708 17.8925 10.0944 17.6942 9.93912 17.5389C10.0944 17.5007 10.2162 17.3454 10.3022 17.0731C10.3882 16.8032 10.4336 16.4879 10.4336 16.1296C10.4336 15.7713 10.3954 15.4416 10.3165 15.1406C10.2401 14.8397 10.1135 14.6319 9.93912 14.5172C9.93912 14.4599 10.006 14.4193 10.1422 14.4001C10.3165 14.381 10.393 14.3142 10.3739 14.1971C10.1231 13.791 9.7528 13.4805 9.27028 13.2679C8.78538 13.0553 8.31241 12.8427 7.84661 12.6301C8.58233 12.1643 9.29416 11.8156 9.98211 11.5839C10.6701 11.3522 11.4153 11.173 12.2179 11.0464C13.0206 10.9198 13.9474 10.8195 14.9912 10.7406C15.0868 10.528 15.1417 10.2653 15.1513 9.95715C15.1608 9.64662 15.1465 9.42446 15.1083 9.28832C14.3128 9.4818 13.5293 9.61318 12.7554 9.68007C11.9815 9.74933 11.2935 9.92611 10.694 10.2175C10.1517 9.83055 9.62859 9.42447 9.12456 8.99689C8.62055 8.5717 8.2718 8.0008 8.07832 7.28419C8.58233 7.26509 9.08397 7.26985 9.58798 7.29852C10.092 7.32719 10.5841 7.36062 11.069 7.40124C11.2242 7.40124 11.3747 7.40602 11.518 7.41557C11.6638 7.42512 11.8142 7.43945 11.9671 7.45857C12.4712 7.47767 12.9847 7.49201 13.5078 7.50155C14.031 7.51112 14.5637 7.47767 15.1059 7.39884C15.125 6.97366 15.0725 6.61536 14.9458 6.32393C14.8192 6.0325 14.6688 5.77213 14.4968 5.54043C14.4586 5.48311 14.4108 5.41862 14.3511 5.35173C14.2937 5.28484 14.2436 5.22035 14.2053 5.16301C13.9736 4.8716 13.7754 4.57301 13.6106 4.26248C13.4457 3.95193 13.4314 3.5363 13.5676 3.01318C14.3033 3.08962 15.0342 3.25922 15.7604 3.52198C16.4866 3.78472 17.0431 4.13586 17.4301 4.58256C17.7 4.89309 17.8601 5.24662 17.9102 5.64314C17.958 6.03968 17.8266 6.48159 17.5185 6.96411C17.9437 7.11937 18.4238 7.11459 18.9565 6.94977C19.4892 6.78494 19.9597 6.62491 20.3658 6.46964C20.4423 6.43143 20.5211 6.39797 20.5975 6.36693C20.6741 6.33826 20.7432 6.31438 20.8005 6.29526C21.2066 6.50786 21.6725 6.66789 22.1956 6.77539C22.7186 6.88289 23.2085 7.01666 23.6622 7.18148C24.1162 7.34629 24.441 7.64248 24.6345 8.06769C24.1496 8.41644 23.5308 8.62426 22.776 8.69114C22.0213 8.7604 21.2258 8.8034 20.3945 8.82252C19.9096 8.82252 19.4366 8.82729 18.9708 8.83686C18.505 8.84641 18.0607 8.88939 17.6355 8.96822C17.4229 9.10439 17.2677 9.29787 17.1697 9.54869C17.0718 9.79949 17.0049 10.0909 16.9667 10.4206C17.4325 10.5185 17.9532 10.552 18.5361 10.5233C19.1165 10.4946 19.5823 10.325 19.9311 10.0145C20.2225 10.0718 20.5641 10.1172 20.963 10.1459C21.3594 10.1745 21.7608 10.2319 22.1694 10.3202C22.5755 10.4062 22.9385 10.5472 23.2586 10.7406C23.5787 10.9341 23.7864 11.216 23.8821 11.5839C24.0945 11.6412 24.3311 11.677 24.5938 11.6866C24.8541 11.6961 24.9855 11.8371 24.9855 12.107V12.1046ZM20.0457 19.629C20.1222 18.4084 20.1174 17.1448 20.0314 15.8382C19.9454 14.5315 19.7639 13.2488 19.4939 11.9899C18.8156 11.8729 18.0655 11.8442 17.2438 11.904C16.4197 11.9613 15.6027 12.0735 14.7882 12.2384C13.976 12.4032 13.2379 12.6015 12.581 12.8332C12.7172 13.0266 12.8032 13.2297 12.8414 13.4423C12.8796 13.6549 12.8223 13.8675 12.667 14.0825C12.7243 14.0825 12.8223 14.0729 12.9584 14.0538C13.8112 13.9176 14.6138 13.8221 15.3687 13.7624C16.1235 13.705 16.8114 13.7528 17.4301 13.9081C18.0488 14.0633 18.591 14.4025 19.0568 14.9257C18.5528 14.9448 18.0536 14.9973 17.5615 15.0857C17.067 15.1717 16.5773 15.2553 16.0948 15.3318C15.4953 15.4488 14.8933 15.5491 14.2937 15.6375C13.6942 15.7235 13.0827 15.7689 12.464 15.7689C12.4449 15.8453 12.4353 15.9337 12.4353 16.0293V16.3207C12.4544 16.4568 12.4592 16.593 12.4497 16.7267C12.4401 16.8629 12.4067 16.9991 12.3469 17.1328C13.1209 17.0755 13.8757 16.9871 14.6138 16.8725C15.3495 16.7554 15.9897 16.6312 16.5319 16.495C17.036 16.6503 17.5376 16.8151 18.0416 16.9895C18.5456 17.1639 18.9517 17.4147 19.2622 17.7443C18.7773 17.7635 18.2996 17.8136 17.8242 17.8901C17.3489 17.9689 16.8711 18.0549 16.3862 18.1504C15.727 18.2675 15.0653 18.3726 14.3965 18.4705C13.7276 18.5685 13.0444 18.6067 12.3493 18.5876C12.4067 18.6855 12.4258 18.7858 12.4067 18.8933C12.3875 19.0008 12.3589 19.1107 12.3207 19.2277C12.3016 19.3257 12.2777 19.4308 12.249 19.5478C12.2203 19.6649 12.2156 19.7986 12.2347 19.9539C12.7578 19.9921 13.3144 19.9873 13.9044 19.9396C14.4944 19.8918 15.0892 19.8297 15.6911 19.7509C16.4651 19.6553 17.2247 19.5813 17.9723 19.5335C18.7176 19.4857 19.4104 19.5191 20.0481 19.6362L20.0457 19.629Z" fill="black" fill-opacity="0.99"/>
</g>
</svg>
