<svg width="32" height="32" viewBox="0 0 1080 1080" fill="none" xmlns="http://www.w3.org/2000/svg">
<path d="M26 540.5C26 256.35 256.35 26 540.5 26V26C824.65 26 1055 256.35 1055 540.5V540.5C1055 824.65 824.65 1055 540.5 1055V1055C256.35 1055 26 824.65 26 540.5V540.5Z" fill="#C4FE0A"/>
<path d="M614.707 274.643C467.006 274.643 347.256 393.658 347.256 540.51H421.555C421.555 434.622 508.19 348.503 614.707 348.503C721.224 348.503 807.859 434.653 807.859 540.51H882.158C882.158 393.689 762.408 274.643 614.707 274.643Z" fill="#0A0A0A"/>
<path d="M466.292 806.356C613.993 806.356 733.743 687.341 733.743 540.488H659.444C659.444 646.376 572.808 732.495 466.292 732.495C359.775 732.495 273.139 646.345 273.139 540.488H198.84C198.84 687.31 318.59 806.356 466.292 806.356Z" fill="#0A0A0A"/>
</svg>
