<svg width="50" height="50" viewBox="0 0 50 50" fill="none" xmlns="http://www.w3.org/2000/svg">
<path d="M40.5039 40.3447C40.5039 40.4748 40.4656 40.6016 40.3945 40.708L40.3125 40.8076C40.1886 40.9312 40.0212 41 39.8477 41H9.16992C8.99511 40.9999 8.82682 40.9295 8.70312 40.8047C8.58042 40.6806 8.5117 40.511 8.51367 40.335V38.4775C10.1289 38.4798 15.0041 38.3099 18.8867 36.2949C21.0801 35.1587 22.9358 33.4843 24.2354 32.1084C24.8871 31.4183 25.4042 30.7983 25.7588 30.3496C25.9362 30.1251 26.0737 29.943 26.167 29.8164C26.2135 29.7533 26.2491 29.704 26.2734 29.6699C26.2856 29.653 26.2943 29.6391 26.3008 29.6299C26.304 29.6253 26.3068 29.6217 26.3086 29.6191C26.3094 29.618 26.31 29.6169 26.3105 29.6162L26.3115 29.6152L27.4346 27.999L27.8057 27.4717L27.8037 27.4707C27.8457 27.4166 27.9038 27.3395 27.9541 27.2686C28.0272 27.1654 28.1138 27.0423 28.2031 26.918L28.208 26.9111L29.4268 25.1504C30.6049 23.5087 32.1155 22.1328 33.8604 21.1113C34.8349 20.6086 36.5084 20.3149 38.0107 20.1523C38.7529 20.0721 39.4307 20.0259 39.9229 20C40.1681 19.9871 40.3669 19.9793 40.5039 19.9746V40.3447ZM9.17773 9H39.8564C40.0392 9.00011 40.2127 9.0744 40.3359 9.20508C40.4599 9.33658 40.5238 9.51361 40.5127 9.69434L40.5117 9.70996V11.5781C40.3452 11.5776 40.1331 11.5773 39.8828 11.583C39.2285 11.598 38.3087 11.6429 37.2432 11.7627C35.1199 12.0014 32.3808 12.5412 30.0068 13.7598L29.9961 13.7656L29.9863 13.7715C27.0773 15.4459 24.5552 17.7153 22.5859 20.4326L22.5781 20.4434C22.3316 20.8028 22.0811 21.1628 21.877 21.4551C21.6747 21.7447 21.5141 21.9733 21.4531 22.0625C21.3944 22.1486 21.3144 22.2653 21.2441 22.3662C21.209 22.4167 21.1767 22.4618 21.1514 22.4971C21.1293 22.5278 21.1188 22.5424 21.1162 22.5459L21.1016 22.5635L21.0879 22.582L20.6953 23.1396L19.4521 24.8916C18.2759 26.5335 16.7682 27.9108 15.0264 28.9365C14.066 29.4386 12.391 29.7334 10.8828 29.8955C10.1412 29.9752 9.46325 30.0211 8.9707 30.0469C8.79605 30.056 8.64456 30.0607 8.52246 30.0654V9.65527C8.52246 9.48238 8.59058 9.31567 8.71387 9.19238L8.71484 9.19141C8.80643 9.09954 8.92344 9.03782 9.0498 9.0127L9.17773 9Z" stroke="#C4FE0A"/>
</svg>
