<svg width="50" height="50" viewBox="0 0 50 50" fill="none" xmlns="http://www.w3.org/2000/svg">
<path d="M16.75 21.8571H16.7672M24.5 21.8571H24.5172M32.25 21.8571H32.2672M20.8833 36.7714L23.3978 40.1086C23.7717 40.6049 23.9587 40.853 24.1879 40.9418C24.3886 41.0194 24.6114 41.0194 24.8121 40.9418C25.0413 40.853 25.2283 40.6049 25.6022 40.1086L28.1167 36.7714C28.6214 36.1013 28.8739 35.7663 29.1819 35.5106C29.5924 35.1696 30.0771 34.9282 30.5975 34.806C30.9878 34.7143 31.4085 34.7143 32.25 34.7143C34.6573 34.7143 35.861 34.7143 36.8106 34.3227C38.0764 33.8009 39.0824 32.7996 39.6066 31.5396C40 30.5943 40 29.3962 40 27V17.2286C40 14.3483 40 12.9082 39.4368 11.8081C38.9415 10.8404 38.1512 10.0536 37.179 9.56054C36.0737 9 34.627 9 31.7333 9H17.2667C14.3731 9 12.9263 9 11.8211 9.56054C10.8489 10.0536 10.0585 10.8404 9.56313 11.8081C9 12.9082 9 14.3483 9 17.2286V27C9 29.3962 9 30.5943 9.39329 31.5396C9.91767 32.7996 10.9235 33.8009 12.1895 34.3227C13.1389 34.7143 14.3426 34.7143 16.75 34.7143C17.5914 34.7143 18.0122 34.7143 18.4025 34.806C18.9229 34.9282 19.4076 35.1696 19.8181 35.5106C20.126 35.7663 20.3785 36.1013 20.8833 36.7714ZM17.6111 21.8571C17.6111 22.3305 17.2256 22.7143 16.75 22.7143C16.2744 22.7143 15.8889 22.3305 15.8889 21.8571C15.8889 21.3838 16.2744 21 16.75 21C17.2256 21 17.6111 21.3838 17.6111 21.8571ZM25.3611 21.8571C25.3611 22.3305 24.9755 22.7143 24.5 22.7143C24.0245 22.7143 23.6389 22.3305 23.6389 21.8571C23.6389 21.3838 24.0245 21 24.5 21C24.9755 21 25.3611 21.3838 25.3611 21.8571ZM33.1111 21.8571C33.1111 22.3305 32.7255 22.7143 32.25 22.7143C31.7745 22.7143 31.3889 22.3305 31.3889 21.8571C31.3889 21.3838 31.7745 21 32.25 21C32.7255 21 33.1111 21.3838 33.1111 21.8571Z" stroke="#15803D" stroke-linecap="round" stroke-linejoin="round"/>
</svg>
