<svg width="127" height="33" viewBox="0 0 127 33" fill="none" xmlns="http://www.w3.org/2000/svg">
<g clip-path="url(#clip0_1176_28717)">
<path fill-rule="evenodd" clip-rule="evenodd" d="M11.4925 17.7374H6.8373L9.31037 9.69263L11.4925 17.7374ZM4.65518 25.8694L6.10993 20.9669H12.0744L13.5291 25.8694H18.4753L13.2382 7.26321C12.9472 6.04122 12.3653 5.64844 11.0561 5.64844H3.78234V7.32139H4.36424C5.23708 7.32139 5.67351 7.5978 5.67351 8.26698C5.67351 8.68886 5.67351 8.96526 5.23708 9.96903L0 25.8694" fill="#6E6C68"/>
<path d="M24.7271 25.8694V7.13228C24.7271 6.1576 24.1452 5.64844 23.1269 5.64844H18.6172V7.32139H18.9081C19.781 7.32139 20.2174 7.68508 20.2174 8.47064V25.8694" fill="#6E6C68"/>
<path d="M32.8834 25.8694V7.13228C32.8834 6.1576 32.3015 5.64844 31.2831 5.64844H26.7734V7.32139H27.0644C27.9372 7.32139 28.3737 7.68508 28.3737 8.47064V25.8694" fill="#6E6C68"/>
<path fill-rule="evenodd" clip-rule="evenodd" d="M41.1646 7.43643C41.1646 6.09806 40.1463 5.3125 38.5461 5.3125C36.8004 5.3125 35.9275 6.09806 35.9275 7.43643C35.9275 8.80389 36.8004 9.604 38.5461 9.604C40.1463 9.604 41.1646 8.80389 41.1646 7.43643ZM41.0191 25.8681V12.2225C41.0191 11.277 40.4372 10.7242 39.5644 10.7242H35.0547V12.368H35.3456C36.2185 12.368 36.5094 12.7317 36.5094 13.5609V25.8681" fill="#6E6C68"/>
<path fill-rule="evenodd" clip-rule="evenodd" d="M51.792 18.5245V21.5504C50.9192 22.4233 49.9009 22.9179 49.028 22.9179C48.1552 22.9179 47.7188 22.496 47.7188 21.3613C47.7188 20.1102 48.0097 19.6301 49.028 19.2374C49.7554 18.9319 50.4828 18.7427 51.792 18.5245ZM45.3912 14.9022L45.8276 14.7277C46.9914 14.2621 47.7188 14.0876 48.5916 13.9275C49.028 13.8694 49.6099 13.8112 49.9009 13.8112C51.3556 13.8112 51.792 14.2912 51.792 15.6296V16.0078C49.7554 16.3424 49.1735 16.4588 48.0097 16.7061C47.4278 16.8516 46.8459 17.0407 46.264 17.288C44.3728 18.0445 43.5 19.4992 43.5 21.7832C43.5 24.649 44.6638 26.0165 47.2823 26.0165C48.3007 26.0165 49.319 25.7837 50.0464 25.3182C50.7737 24.9836 51.0647 24.809 51.9375 24.0089V24.4744C51.9375 25.42 52.3739 25.871 53.2468 25.871H57.611V24.3144H57.4656C56.5927 24.3144 56.1563 23.9216 56.1563 23.1361V15.7023C56.1563 11.8327 54.847 10.5234 51.0647 10.5234C49.7554 10.5234 48.5916 10.6689 47.4278 10.9453C46.264 11.2217 45.6821 11.4254 44.3728 12.1091" fill="#6E6C68"/>
<path fill-rule="evenodd" clip-rule="evenodd" d="M64.441 25.8653V15.5948C65.4593 14.6493 66.1867 14.2856 67.205 14.2856C68.2234 14.2856 68.5143 14.722 68.5143 16.264V25.8653H73.024V15.5367C73.024 13.4127 72.7331 12.4962 72.1512 11.6961C71.4238 10.9106 70.5509 10.5469 69.2417 10.5469C67.496 10.5469 66.1867 11.187 64.1501 12.9472V12.1325C64.1501 11.187 63.7136 10.7214 62.8408 10.7214H58.4766V12.3653H58.622C59.4949 12.3653 59.9313 12.729 59.9313 13.5582V25.8653" fill="#6E6C68"/>
<mask id="mask0_1176_28717" style="mask-type:luminance" maskUnits="userSpaceOnUse" x="0" y="0" width="128" height="33">
<path d="M0.0078125 0.00551987H127.007V32.8828H0.0078125V0.00551987Z" fill="white"/>
</mask>
<g mask="url(#mask0_1176_28717)">
<path d="M86.9973 22.9723H80.3055L86.7063 13.8364V10.7232H77.105C75.9412 10.7232 75.5048 11.1888 75.5048 12.309V15.0584H77.105V14.7529C77.105 13.9237 77.5415 13.5891 78.4143 13.5891H81.9057L75.3594 22.7249V25.8672H86.9973" fill="#6E6C68"/>
<path fill-rule="evenodd" clip-rule="evenodd" d="M112.746 25.0417V7.90478C112.746 6.52277 112.164 6.07178 110.855 6.07178H106.927V7.96302H107.363C108.091 7.96302 108.381 8.23936 108.381 9.08312V25.0417H112.746ZM115.073 25.0417H119.292V12.109C119.292 10.7997 118.71 10.276 117.401 10.276H115.073V25.0417ZM106.054 25.0417V10.276H103.726C102.417 10.276 101.835 10.7997 101.835 12.109V25.0417H106.054ZM124.238 16.4296C124.238 24.4453 118.419 30.2933 110.564 30.2933C102.708 30.2933 96.8889 24.4453 96.8889 16.4296C96.8889 8.414 102.708 2.56589 110.564 2.56589C118.419 2.56589 124.238 8.414 124.238 16.4296ZM127.002 16.4296C127.002 7.04655 120.019 0.00551987 110.564 0.00551987C101.253 0.00551987 94.125 7.04655 94.125 16.4296C94.125 25.8418 101.253 32.8828 110.564 32.8828C120.019 32.8828 127.002 25.8418 127.002 16.4296Z" fill="#6E6C68"/>
</g>
</g>
<defs>
<clipPath id="clip0_1176_28717">
<rect width="127" height="32.8772" fill="white"/>
</clipPath>
</defs>
</svg>
