<svg width="127" height="33" viewBox="0 0 127 33" fill="none" xmlns="http://www.w3.org/2000/svg">
<g clip-path="url(#clip0_412_70334)">
<path fill-rule="evenodd" clip-rule="evenodd" d="M11.4925 17.734H6.8373L9.31037 9.68921L11.4925 17.734ZM4.65518 25.866L6.10993 20.9635H12.0744L13.5291 25.866H18.4753L13.2382 7.25979C12.9472 6.0378 12.3653 5.64502 11.0561 5.64502H3.78234V7.31798H4.36424C5.23708 7.31798 5.67351 7.59438 5.67351 8.26356C5.67351 8.68544 5.67351 8.96184 5.23708 9.96561L0 25.866" fill="white"/>
<path d="M24.7291 25.866V7.12886C24.7291 6.15418 24.1472 5.64502 23.1289 5.64502H18.6191V7.31798H18.9101C19.7829 7.31798 20.2194 7.68166 20.2194 8.46723V25.866" fill="white"/>
<path d="M32.8775 25.866V7.12886C32.8775 6.15418 32.2956 5.64502 31.2773 5.64502H26.7676V7.31798H27.0585C27.9314 7.31798 28.3678 7.68166 28.3678 8.46723V25.866" fill="white"/>
<path fill-rule="evenodd" clip-rule="evenodd" d="M41.1685 7.43448C41.1685 6.09611 40.1502 5.31055 38.55 5.31055C36.8043 5.31055 35.9314 6.09611 35.9314 7.43448C35.9314 8.80194 36.8043 9.60205 38.55 9.60205C40.1502 9.60205 41.1685 8.80194 41.1685 7.43448ZM41.023 25.8661V12.2206C41.023 11.275 40.4412 10.7222 39.5683 10.7222H35.0586V12.3661H35.3495C36.2224 12.3661 36.5133 12.7297 36.5133 13.559V25.8661" fill="white"/>
<path fill-rule="evenodd" clip-rule="evenodd" d="M51.7881 18.5197V21.5455C50.9153 22.4184 49.897 22.913 49.0241 22.913C48.1513 22.913 47.7149 22.4911 47.7149 21.3564C47.7149 20.1053 48.0058 19.6253 49.0241 19.2325C49.7515 18.927 50.4789 18.7379 51.7881 18.5197ZM45.3873 14.8973L45.8237 14.7228C46.9875 14.2572 47.7149 14.0827 48.5877 13.9227C49.0241 13.8645 49.606 13.8063 49.897 13.8063C51.3517 13.8063 51.7881 14.2863 51.7881 15.6247V16.0029C49.7515 16.3375 49.1696 16.4539 48.0058 16.7012C47.4239 16.8467 46.842 17.0358 46.2601 17.2831C44.3689 18.0396 43.4961 19.4943 43.4961 21.7783C43.4961 24.6441 44.6599 26.0116 47.2784 26.0116C48.2968 26.0116 49.3151 25.7788 50.0424 25.3133C50.7698 24.9787 51.0608 24.8042 51.9336 24.004V24.4696C51.9336 25.4151 52.37 25.8661 53.2429 25.8661H57.6071V24.3095H57.4616C56.5888 24.3095 56.1524 23.9168 56.1524 23.1312V15.6974C56.1524 11.8278 54.8431 10.5186 51.0608 10.5186C49.7515 10.5186 48.5877 10.664 47.4239 10.9404C46.2601 11.2168 45.6782 11.4205 44.3689 12.1042" fill="white"/>
<path fill-rule="evenodd" clip-rule="evenodd" d="M64.4449 25.8663V15.5958C65.4632 14.6502 66.1906 14.2865 67.2089 14.2865C68.2273 14.2865 68.5182 14.723 68.5182 16.265V25.8663H73.0279V15.5376C73.0279 13.4137 72.737 12.4972 72.1551 11.6971C71.4277 10.9115 70.5549 10.5479 69.2456 10.5479C67.4999 10.5479 66.1906 11.1879 64.154 12.9482V12.1335C64.154 11.1879 63.7176 10.7224 62.8447 10.7224H58.4805V12.3663H58.6259C59.4988 12.3663 59.9352 12.73 59.9352 13.5592V25.8663" fill="white"/>
<mask id="mask0_412_70334" style="mask-type:luminance" maskUnits="userSpaceOnUse" x="0" y="-1" width="128" height="34">
<path d="M0.00195312 -0.000338375H127.001V32.877H0.00195312V-0.000338375Z" fill="white"/>
</mask>
<g mask="url(#mask0_412_70334)">
<path d="M86.9954 22.9703H80.3036L86.7043 13.8345V10.7213H77.103C75.9392 10.7213 75.5029 11.1868 75.5029 12.307V15.0565H77.103V14.751C77.103 13.9218 77.5395 13.5872 78.4124 13.5872H81.9038L75.3574 22.7229V25.8652H86.9954" fill="white"/>
<path fill-rule="evenodd" clip-rule="evenodd" d="M112.744 25.0359V7.89892C112.744 6.51691 112.162 6.06592 110.853 6.06592H106.925V7.95716H107.361C108.089 7.95716 108.379 8.2335 108.379 9.07726V25.0359H112.744ZM115.071 25.0359H119.29V12.1032C119.29 10.7939 118.708 10.2702 117.399 10.2702H115.071V25.0359ZM106.052 25.0359V10.2702H103.724C102.415 10.2702 101.833 10.7939 101.833 12.1032V25.0359H106.052ZM124.236 16.4238C124.236 24.4394 118.417 30.2875 110.562 30.2875C102.706 30.2875 96.8869 24.4394 96.8869 16.4238C96.8869 8.40814 102.706 2.56003 110.562 2.56003C118.417 2.56003 124.236 8.40814 124.236 16.4238ZM127 16.4238C127 7.04068 120.017 -0.000338375 110.562 -0.000338375C101.251 -0.000338375 94.123 7.04068 94.123 16.4238C94.123 25.836 101.251 32.877 110.562 32.877C120.017 32.877 127 25.836 127 16.4238Z" fill="white"/>
</g>
</g>
<defs>
<clipPath id="clip0_412_70334">
<rect width="127" height="32.8772" fill="white"/>
</clipPath>
</defs>
</svg>
