<svg width="101" height="44" viewBox="0 0 101 44" fill="none" xmlns="http://www.w3.org/2000/svg">
<path d="M66.786 8.76372C70.1573 5.51403 74.6746 3.72566 79.3568 3.78701C84.039 3.84836 88.5079 5.75449 91.7929 9.09139C95.078 12.4281 96.9141 16.9262 96.9024 21.6087C96.8906 26.2912 95.0319 30.78 91.7301 34.1002C88.4285 37.4202 83.9506 39.3037 79.2686 39.3417C74.5866 39.3797 70.0787 37.5692 66.7236 34.3033" stroke="#003481" stroke-width="6.83854" stroke-linecap="round" stroke-linejoin="round"/>
<path d="M11.3984 30.3834L17.3108 12.7066H18.8616L24.5952 30.2046M13.0698 25.3864H23.0186M31.1667 30.3252V12.6463H36.8981C36.8981 12.6463 41.0788 11.9893 41.0788 17.6648C41.0788 17.6648 41.6173 22.203 36.183 22.203H31.3454M36.9584 22.3818L41.3373 30.2197M52.6645 30.2649H48.486V12.6463H52.7248C52.7248 12.6463 60.371 12.2887 60.371 21.7248C60.371 21.7248 61.1464 30.2649 52.6645 30.2649Z" stroke="#003481" stroke-width="4.55904" stroke-linecap="round" stroke-linejoin="round"/>
<path d="M71.584 19.0949L82.9349 14.8496V25.0094L76.3527 27.5833V17.2813L71.584 19.0949Z" stroke="#003481" stroke-width="6.83854" stroke-linecap="round" stroke-linejoin="round"/>
</svg>
