<svg width="73" height="73" viewBox="0 0 73 73" fill="none" xmlns="http://www.w3.org/2000/svg">
<mask id="mask0_454_70538" style="mask-type:luminance" maskUnits="userSpaceOnUse" x="4" y="4" width="65" height="65">
<path d="M4.05469 4.05566H68.9436V68.9446H4.05469V4.05566Z" fill="white"/>
</mask>
<g mask="url(#mask0_454_70538)">
<path fill-rule="evenodd" clip-rule="evenodd" d="M4.05469 36.419C4.05469 18.5475 18.5465 4.05566 36.418 4.05566C54.2936 4.05566 68.7841 18.5475 68.7841 36.419C68.7841 54.2945 54.2922 68.785 36.4194 68.785C18.5452 68.785 4.05469 54.2932 4.05469 36.419ZM36.418 66.6802C53.1323 66.6802 66.6792 53.1319 66.6792 36.4203C66.6792 19.7088 53.131 6.1605 36.418 6.1605C19.7051 6.1605 6.15952 19.7088 6.15952 36.4203C6.15952 53.1319 19.7037 66.6802 36.418 66.6802Z" fill="white"/>
<path fill-rule="evenodd" clip-rule="evenodd" d="M36.4208 18.2797V17.2266C47.0193 17.2266 55.6143 25.8203 55.6143 36.4202H54.5613C54.5613 26.4165 46.4231 18.2783 36.4208 18.2783V18.2797ZM18.2816 36.4188C18.2816 46.4225 26.4198 54.5593 36.4208 54.5593V55.611C25.8222 55.611 17.2285 47.0173 17.2285 36.4188H18.2816Z" fill="white"/>
<path d="M52.1042 22.6884C52.5436 23.1616 53.1776 23.9213 53.5331 24.3837L60.0869 20.224C59.6858 19.7024 59.2729 19.1899 58.8486 18.687L54.6984 21.4312L54.4145 21.6746L54.6254 21.3663L56.4585 17.7082L55.1621 16.4131L51.5026 18.2449L51.1944 18.4571L51.4404 18.1733L54.1861 14.0244C53.6831 13.5972 53.1697 13.1825 52.6463 12.7807L48.4866 19.3277C49.0139 19.7333 49.7087 20.3281 50.1521 20.7337L54.0684 18.7018L54.3199 18.518L54.1347 18.7681L52.1042 22.6884ZM37.2338 14.3908L39.0237 10.3785L39.1386 10.0229L39.1061 10.3947L39.2954 15.7548C39.9227 15.8129 40.5716 15.9008 41.211 16.0076L40.919 8.06816C40.0298 7.96913 39.1375 7.90014 38.2437 7.86133L36.4795 12.24L36.4173 12.5644L36.3538 12.24L34.5923 7.86133C33.698 7.90011 32.8053 7.96909 31.9156 8.06816L31.625 16.0076C32.2609 15.9016 32.9003 15.8173 33.5419 15.7548L33.7312 10.3947L33.6974 10.0229L33.8123 10.3785L35.6035 14.3908H37.2338Z" fill="white"/>
<path fill-rule="evenodd" clip-rule="evenodd" d="M22.7509 20.7172C23.7851 19.6263 24.3718 18.3663 23.3363 17.1645C22.7726 16.5116 21.8276 16.3683 21.0435 16.6914L20.9651 16.7211L20.9895 16.6535C21.1057 16.3426 21.1801 15.3531 20.3379 14.669C20.135 14.5092 19.9025 14.3914 19.6537 14.3222C19.4049 14.253 19.1449 14.234 18.8887 14.2662C17.9167 14.3649 17.1691 15.0286 15.1332 17.2997C14.4248 18.0992 13.7427 18.9216 13.0879 19.7655L18.6805 25.0702C20.1446 23.4479 20.9246 22.6328 21.9087 21.6013L22.7509 20.7172ZM15.4523 19.4194C16.5797 18.0405 17.7761 16.7914 18.3182 16.2967C18.4899 16.1412 18.6764 15.9857 18.9022 15.9235C19.2699 15.8235 19.6484 16.0831 19.7336 16.4602C19.8201 16.8387 19.5822 17.1983 19.3172 17.4957C18.7224 18.1676 16.5378 20.4522 16.5378 20.4522L15.4523 19.4194ZM20.4649 18.5286C19.7701 19.2477 17.6423 21.4972 17.6423 21.4972L18.7778 22.5719L21.5964 19.5546C21.8127 19.3207 22.0764 19.0139 22.1466 18.6921C22.1764 18.5604 22.1651 18.4227 22.1143 18.2976C22.0636 18.1724 21.9758 18.0657 21.8628 17.9919C21.6221 17.8324 21.3531 17.8567 21.1084 17.977C20.9178 18.0703 20.7407 18.2433 20.4649 18.5286Z" fill="white"/>
<path d="M36.4208 17.2266V36.4202H17.2285C17.2285 25.8135 25.8141 17.2279 36.4208 17.2279V17.2266ZM55.6144 36.4188C55.6144 47.0268 47.0274 55.6124 36.4208 55.6124V36.4202H55.6157L55.6144 36.4188Z" fill="#0066B1"/>
</g>
</svg>
