<svg width="67" height="60" viewBox="0 0 67 60" fill="none" xmlns="http://www.w3.org/2000/svg">
<g clip-path="url(#clip0_454_70523)">
<path d="M33.5004 8.34C37.7304 3.9 41.4804 0 47.9604 0C58.0104 0 65.8104 7.95 66.5004 17.76C66.9204 23.85 65.0304 28.83 60.5604 33.39C53.0904 40.98 39.7104 54.54 35.1804 59.13C34.9704 59.34 34.2504 60 33.5304 60C32.7804 60 32.0604 59.34 31.8804 59.13C27.3504 54.54 13.9404 40.95 6.50039 33.39C1.97039 28.83 0.0803865 23.85 0.500387 17.76C1.19039 7.95 8.99039 0 19.0404 0C25.5204 0 29.2404 3.9 33.5004 8.34Z" fill="white"/>
<path d="M33.5004 8.34C37.7304 3.9 41.4804 0 47.9604 0C58.0104 0 65.8104 7.95 66.5004 17.76C66.9204 23.85 65.0304 28.83 60.5604 33.39C53.0904 40.98 39.7104 54.54 35.1804 59.13C34.9704 59.34 34.2504 60 33.5304 60C32.7804 60 32.0604 59.34 31.8804 59.13C27.3504 54.54 13.9404 40.95 6.50039 33.39C1.97039 28.83 0.0803865 23.85 0.500387 17.76C1.19039 7.95 8.99039 0 19.0404 0C25.5204 0 29.2404 3.9 33.5004 8.34Z" fill="#F0D722"/>
<path d="M22.6097 33.0898H19.8797C19.1897 33.0898 18.6797 32.8498 18.6797 32.0698V19.0798C18.6797 18.4498 19.1897 17.9398 19.8797 17.9398H22.8497C26.4197 17.9398 26.9597 19.7698 26.9597 21.7498C26.9597 23.3398 26.4497 24.7498 24.4697 25.1698C26.6297 25.2898 27.3797 26.9998 27.3797 28.5298C27.3497 30.9298 26.4797 33.0898 22.6097 33.0898ZM22.3997 20.0098H21.5597V24.2698H22.2497C24.1697 24.2698 24.2297 23.0698 24.2297 22.1098C24.2297 20.5798 23.9897 20.0098 22.3997 20.0098ZM22.3397 26.2498H21.5297V31.0198H22.5497C24.1997 31.0198 24.3797 29.8798 24.3797 28.6198C24.3797 27.2698 24.2297 26.2498 22.3397 26.2498ZM35.5997 31.3798C35.3297 32.6398 34.6397 33.2698 33.4997 33.2698C32.1797 33.2698 31.6097 32.6398 31.3397 31.4998L28.5497 19.9498C28.2797 18.8098 28.7897 17.8498 29.8697 17.8498C30.5597 17.8498 31.1597 18.1798 31.3397 19.1698L33.1697 27.6898C33.3497 28.4998 33.4697 29.4598 33.4997 30.0898C33.5597 29.4598 33.7097 28.4998 33.8297 27.6898L35.4797 19.1698C35.6597 18.3298 36.1697 17.8498 36.8897 17.8498C37.7897 17.8498 38.4497 18.5998 38.2097 19.7698L35.5997 31.3798ZM44.8697 33.2398C40.3697 33.2398 39.3497 30.7498 39.3497 25.5598C39.3497 20.0998 41.6297 17.7598 45.1397 17.7598C45.8897 17.7598 47.5997 17.9398 48.4397 18.5998C48.6197 18.7798 48.8297 19.0498 48.8297 19.4998C48.8297 20.1898 48.2597 20.6998 47.6297 20.6998C46.9997 20.6998 46.3697 20.2498 45.0797 20.2498C43.3697 20.2498 42.2297 21.2698 42.2297 25.7698C42.2297 29.9698 43.1897 30.9298 45.1997 30.9298C45.7097 30.9298 46.0097 30.8698 46.1597 30.8098V26.4898H45.3197C44.5697 26.4898 44.1197 26.0998 44.1197 25.4098C44.1197 24.6598 44.5097 24.2698 45.3197 24.2698H47.8097C48.6497 24.2698 48.9497 24.6598 48.9497 25.5898V30.0898C48.9497 32.2798 47.6597 33.2398 44.8697 33.2398Z" fill="#252424"/>
</g>
<defs>
<clipPath id="clip0_454_70523">
<rect width="66.1141" height="60" fill="white" transform="translate(0.443359)"/>
</clipPath>
</defs>
</svg>
