<svg width="91" height="45" viewBox="0 0 91 45" fill="none" xmlns="http://www.w3.org/2000/svg">
<path d="M6.98374e-05 22.4578C6.98374e-05 29.169 5.26037 35.131 14.8154 39.2491C23.1279 42.8289 34.4373 44.8787 45.8496 44.8787C67.7376 44.8787 91 37.0489 91 22.5369C91 15.0924 85.3203 8.99576 74.5755 4.89887C66.5294 1.83081 55.774 0 45.8074 0C19.6932 0 6.98374e-05 9.65269 6.98374e-05 22.4578Z" fill="white"/>
<path fill-rule="evenodd" clip-rule="evenodd" d="M45.8107 1.30566C20.4405 1.30566 1.30664 10.399 1.30664 22.455C1.30664 28.6122 6.28993 34.1469 15.3306 38.0433C23.4848 41.5546 34.6095 43.5701 45.8529 43.5701C67.1051 43.5701 89.6947 36.1967 89.6947 22.5368C89.6947 7.06988 62.7786 1.30566 45.8107 1.30566Z" fill="#034EA2"/>
<path fill-rule="evenodd" clip-rule="evenodd" d="M45.8078 2.46631C20.6592 2.46631 1.69141 11.0585 1.69141 22.4549C1.69141 28.2718 6.62721 33.5031 15.5914 37.1858C23.6717 40.5018 34.6962 42.4039 45.8446 42.4039C66.9174 42.4039 89.3094 35.4394 89.3094 22.5314C89.3094 7.91127 62.6256 2.46631 45.8078 2.46631Z" fill="white"/>
<path d="M88.1466 20.938V21.2467C88.1466 28.6016 80.5912 33.2314 74.2467 35.8167C65.979 39.1934 54.7197 41.1297 43.3576 41.1297C37.4404 41.1297 31.5681 40.6153 26.1152 39.6577C32.1221 40.9424 38.807 41.6389 45.5419 41.6389C56.3843 41.6389 67.1265 39.7896 75.0143 36.5738C81.074 34.1019 88.2838 29.6858 88.2838 22.6633C88.2838 22.0697 88.2363 21.4946 88.1466 20.938Z" fill="#ED1C24"/>
<path d="M88.1544 20.8281V21.1373C88.1544 28.4907 80.603 33.1253 74.2579 35.7095C65.9874 39.0837 54.7274 41.0204 43.3647 41.0204C37.4489 41.0204 31.5753 40.5079 26.123 39.5487C32.131 40.8329 38.8159 41.5331 45.5482 41.5331C56.3921 41.5331 67.1358 39.6835 75.0244 36.4652C81.0824 33.992 88.2914 29.5767 88.2914 22.5536C88.2914 21.9617 88.2439 21.3856 88.1544 20.8281Z" stroke="#ED1C24" stroke-width="0.203133" stroke-linecap="round" stroke-linejoin="round"/>
<path d="M54.4727 13.6281C54.4727 14.9366 55.4883 15.9602 56.7941 15.9602C58.1 15.9602 59.1236 14.9366 59.1236 13.6281C59.1236 12.3461 58.0789 11.2935 56.7941 11.2935C55.5121 11.2935 54.4727 12.3461 54.4727 13.6281Z" fill="#ED1C24"/>
<path d="M42.4976 9.72359C42.5397 9.57586 42.7245 9.09573 42.3129 8.81873C42.1388 8.71328 41.8776 8.77654 41.6455 8.94535C41.2076 9.25137 40.4795 10.1694 39.7883 11.8314C39.9597 11.0664 40.002 10.9476 40.1523 10.4464C40.1814 10.3118 40.3423 9.88186 39.8964 9.57321C39.7301 9.45439 39.4796 9.5257 39.2633 9.68928C38.5062 10.2459 38.0155 11.4225 37.6778 12.388C37.8256 11.7865 37.9021 11.4304 37.9548 11.1244C38.0157 10.7894 38.0392 10.3857 37.7913 10.1958C37.6355 10.0797 37.5275 10.085 37.4378 10.1089C37.2875 10.1538 37.2295 10.2091 37.1792 10.407C37.0842 10.7921 37.0368 11.0744 36.9233 11.7102C36.8153 12.2985 36.7044 12.8762 36.6384 13.2957C36.5118 14.0871 36.6675 14.4617 36.9102 14.5461C37.1079 14.6094 37.3349 14.5883 37.3718 14.4142C37.4376 14.1055 37.6462 13.0978 37.9443 12.375C38.3031 11.5387 38.435 11.3329 38.7093 10.9531C38.8359 10.7842 39.2158 10.3806 39.0233 11.1377C38.8043 12.0109 38.6566 12.7918 38.6196 13.1849C38.5906 13.5357 38.6854 13.8787 38.9573 13.9736C39.1603 14.0369 39.3952 14.0133 39.4374 13.8312C39.5138 13.5146 39.7408 12.5596 40.0732 11.8183C40.4689 10.9557 40.6061 10.7447 40.9042 10.3542C41.0361 10.1776 41.4529 9.83453 41.3104 10.3278C40.8224 12.0795 40.9411 13.3748 41.6639 13.4961C41.759 13.5088 41.8961 13.467 41.8539 13.322C41.7273 12.8498 41.9436 11.937 42.0913 11.3118C42.284 10.5151 42.3657 10.2565 42.4976 9.72359ZM35.7705 11.4832C35.7895 11.346 35.9077 10.9213 35.541 10.6654C35.3855 10.5679 35.169 10.6152 34.9897 10.7604C34.6467 11.0189 34.0953 11.813 33.602 13.3061C33.7051 12.607 33.7417 12.4989 33.8368 12.053C33.8558 11.9292 33.9634 11.5465 33.5941 11.2643C33.4569 11.1563 33.2591 11.2115 33.0929 11.346C32.5151 11.8076 32.1617 12.8312 31.9031 13.6912C32.0192 13.1504 32.072 12.8312 32.1089 12.5595C32.1485 12.2667 32.1616 11.9105 31.9692 11.7364C31.8451 11.6336 31.7662 11.6336 31.7001 11.6495C31.5868 11.6811 31.5393 11.7286 31.5102 11.9001C31.4416 12.2272 31.4046 12.4699 31.3202 13.0292C31.2438 13.5515 31.1541 14.0739 31.1039 14.4617C31.0037 15.203 31.1303 15.5802 31.3202 15.6857C31.4812 15.7677 31.6605 15.7676 31.6895 15.6013C31.7371 15.3059 31.8926 14.3509 32.1196 13.6967C32.3886 12.9527 32.4836 12.776 32.692 12.4436C32.7869 12.2986 33.0798 11.9556 32.9479 12.6257C32.8002 13.4092 32.6973 14.1373 32.6788 14.5093C32.6684 14.8496 32.7526 15.1925 32.9848 15.3113C33.1589 15.3957 33.3568 15.393 33.3858 15.2162C33.4386 14.9102 33.5863 13.9948 33.8316 13.3116C34.1192 12.5307 34.2274 12.3434 34.4542 11.9978C34.5545 11.8423 34.8816 11.5467 34.7919 11.9932C34.4832 13.6103 34.66 14.8924 35.3195 15.085C35.4012 15.1088 35.5278 15.0745 35.4805 14.9267C35.3301 14.436 35.4515 13.547 35.5333 12.9534C35.6468 12.2095 35.6968 11.972 35.7707 11.484L35.7705 11.4832ZM30.3071 12.7336C30.3307 12.6175 30.4548 12.272 30.1197 11.9501C29.9878 11.8262 29.7899 11.8129 29.6237 11.8999C29.3045 12.0424 28.7875 12.6096 28.2994 13.8099C28.418 13.219 28.4471 13.1293 28.55 12.7547C28.569 12.6544 28.6741 12.3431 28.3523 11.9975C28.2284 11.8684 28.0489 11.8684 27.9012 11.9448C27.363 12.2086 27.0174 13.029 26.7589 13.7281C26.8802 13.2797 26.941 13.0053 26.9752 12.7784C27.0227 12.5252 27.041 12.2165 26.875 12.0134C26.7667 11.8868 26.6876 11.8682 26.6349 11.8682C26.5321 11.8682 26.4847 11.8946 26.4555 12.037C26.3764 12.314 26.342 12.5198 26.255 12.9947C26.1707 13.4405 26.0756 13.8837 26.015 14.2134C25.9067 14.8492 26.0103 15.2159 26.1813 15.3584C26.3185 15.4691 26.4794 15.5166 26.5163 15.371C26.569 15.123 26.73 14.3105 26.9569 13.7881C27.2207 13.1946 27.3077 13.06 27.5109 12.8173C27.5952 12.7118 27.8696 12.4823 27.7325 13.0442C27.5716 13.7037 27.4634 14.3237 27.4396 14.6534C27.4158 14.9515 27.4871 15.2787 27.6902 15.4396C27.8407 15.5556 28.02 15.6059 28.049 15.4544C28.1099 15.1906 28.2706 14.4176 28.508 13.8742C28.7877 13.2516 28.8906 13.1118 29.1069 12.8585C29.2018 12.7505 29.5052 12.571 29.4182 12.9405C29.0884 14.2991 29.2124 15.4836 29.7981 15.8212C29.8747 15.8609 29.988 15.8609 29.9485 15.7157C29.8272 15.2434 29.959 14.4837 30.0541 13.9772C30.1754 13.3441 30.2282 13.1436 30.3074 12.732L30.3071 12.7336ZM47.7315 9.81591C47.7973 9.69731 48.0481 9.28831 47.589 8.86886C47.3964 8.69474 47.035 8.66308 46.7238 8.74476C45.8347 8.97427 44.4075 11.0979 44.4023 11.0953C44.4023 11.0953 44.9932 8.54163 45.8031 7.48377C45.8874 7.3782 46.3281 6.80052 46.4362 6.7161C46.6209 6.57638 46.5603 6.44438 46.4599 6.31248C46.4071 6.24666 46.1565 6.11726 46.0008 6.1067C45.5049 6.08026 45.3149 6.29665 45.125 6.48659C44.4444 7.1593 44.2043 7.86101 43.9009 8.69991C43.6319 9.42538 43.0805 11.7495 43.2361 12.5541C43.2917 12.8417 43.3575 13.0923 43.6081 13.2189C43.8587 13.3508 44.141 13.2798 44.1674 13.0473C44.2281 12.6332 44.389 11.6887 44.79 10.9791C45.03 10.5649 45.5603 10.0136 45.8769 9.79989C46.0668 9.67327 46.3517 9.55455 46.1565 10.0162C45.191 12.2744 46.2384 13.0922 46.6577 13.166C46.7765 13.1871 46.9875 13.211 46.9268 13.0658C46.6577 12.3984 47.3833 10.4754 47.7315 9.81591ZM51.7941 12.8734C51.5118 12.8734 51.277 13.1029 51.277 13.3879C51.277 13.6728 51.5118 13.9075 51.7941 13.9075C52.0764 13.9075 52.3112 13.6728 52.3112 13.3879C52.3112 13.1029 52.0764 12.8734 51.7941 12.8734ZM50.1374 12.5278C49.8499 12.5278 49.623 12.7574 49.623 13.0449C49.623 13.3298 49.8499 13.562 50.1374 13.562C50.425 13.562 50.6492 13.3298 50.6492 13.0449C50.6492 12.7574 50.425 12.5278 50.1374 12.5278ZM48.9978 12.8866C48.9978 13.1715 48.763 13.4037 48.4833 13.4037C48.1984 13.4037 47.9636 13.1715 47.9636 12.8866C47.9636 12.6017 48.1984 12.3696 48.4833 12.3696C48.763 12.3696 48.9978 12.6017 48.9978 12.8866Z" fill="#ED1C24"/>
<path d="M10.0059 13.3332V30.5201H18.4371L18.4767 30.4304C19.1098 29.0718 19.123 27.8293 19.123 27.7792V27.6262H14.0263V23.1336H17.7934V20.324H14.0263V16.2271H18.875C18.875 16.2271 18.8797 16.0688 18.8797 16.0608C18.8797 15.892 18.8586 14.6574 18.2307 13.4175L18.1885 13.333" fill="#034EA2"/>
<path d="M19.0022 17.3241C19.0022 17.3241 22.5926 23.5764 22.6744 23.7241C22.5875 23.8718 18.625 30.525 18.625 30.525H22.7509C22.7509 30.525 24.4868 27.1166 24.7216 26.6497C24.959 27.1193 26.6737 30.525 26.6737 30.525H31.1373C31.1373 30.525 27.0484 23.6397 26.9613 23.4893C27.0484 23.3441 30.6757 17.3241 30.6757 17.3241L26.9243 17.3217C26.9243 17.3217 25.2676 20.3502 25.0276 20.7855C24.8007 20.3449 23.2469 17.3032 23.2469 17.3032" fill="#034EA2"/>
<path d="M29.7599 24.2625C29.7599 28.1484 31.9521 30.7574 35.2127 30.7574C35.9277 30.7574 36.6927 30.6308 37.2678 30.4461V35.6114L37.3944 35.6325C39.1909 35.9544 41.2381 35.0521 41.3251 35.0126L41.4148 34.9729V18.0577L41.2063 17.9338C40.5573 17.5645 39.0879 16.9419 36.5449 16.9419C32.1683 16.9419 29.7599 19.543 29.7599 24.2625ZM33.8884 23.9618C33.8884 20.986 34.6983 19.601 36.4368 19.601C36.7507 19.601 37.0145 19.646 37.2678 19.7146V27.7026C36.9618 27.8082 36.6426 27.8742 36.2759 27.8742C35.2497 27.8742 33.8884 27.4677 33.8884 23.9618Z" fill="#034EA2"/>
<path d="M49.5703 17.2554V27.6704C49.3726 27.7443 48.7842 27.9369 48.0033 27.9369C46.8241 27.9369 46.5735 27.0637 46.5735 26.3277V17.2554H42.4766V26.0691C42.4766 29.2664 44.3153 30.8203 48.0983 30.8203C50.2878 30.8203 52.145 30.4668 53.4667 29.7993L53.6989 29.686V17.2555M54.733 30.5671H58.8375V17.2555H54.733V30.5671Z" fill="#034EA2"/>
<path d="M60.0128 20.9752C60.0128 22.0146 60.4323 23.2175 60.9889 23.7821C61.5376 24.3387 62.4319 24.6685 63.7932 25.0457C63.7956 25.0457 63.9356 25.0851 63.9356 25.0851C65.6266 25.5336 66.6449 25.8027 66.6449 26.8948C66.6449 27.5201 65.6979 27.9211 65.2019 27.9211C63.532 27.9211 63.4423 27.1191 63.379 26.5361L63.3621 26.3989H59.8086V26.5519C59.8086 27.9158 60.2544 28.6122 61.1303 29.4933C62.0087 30.3718 63.3805 30.815 65.2008 30.815C66.8337 30.815 68.1501 30.3454 69.1183 29.4195C70.0706 28.5041 70.498 27.5544 70.498 26.3461C70.498 25.3463 70.192 24.4995 69.5931 23.8347C68.9838 23.1752 68.0657 22.6819 66.8601 22.3653C65.5912 22.0514 63.9029 21.5422 63.9029 20.7403C63.9029 20.0042 64.5333 19.7431 65.0689 19.7431C66.562 19.7431 66.7045 20.7693 66.715 20.8853L66.7277 21.0225H70.0331L70.0184 20.859C69.8891 19.2761 69.5409 18.548 68.5912 17.8674C67.6732 17.2079 66.4729 16.8755 65.0219 16.8755C62.5949 16.8755 60.0123 18.3106 60.0123 20.975" fill="#034EA2"/>
<path d="M72.3776 18.5638C71.8447 19.3183 71.6205 19.7377 71.5572 20.8642L71.5468 21.0224H75.1213V20.872C75.1213 20.2098 76.1264 19.7323 76.8044 19.7323C77.3136 19.7323 77.6934 19.859 77.9256 20.1096C78.1894 20.3918 78.2448 20.7981 78.2448 21.1648C78.2448 21.3178 78.2344 21.4655 78.2258 21.5922C78.2258 21.5922 78.2233 21.6449 78.2233 21.6977C75.1553 21.9272 71.1797 22.716 71.1797 26.7179C71.1797 27.8892 71.7099 29.0368 72.562 29.7201C73.3033 30.311 75.1078 30.7595 76.7618 30.7595C78.1917 30.7595 81.2413 30.2477 81.7135 29.7464L81.8004 29.5328V27.5015V21.0831C81.8004 19.648 80.7425 16.936 76.738 16.936C74.5932 16.936 73.166 17.4689 72.3773 18.5637L72.3776 18.5638ZM75.4852 27.7547C75.1054 27.4857 74.9154 27.0768 74.9154 26.5439C74.9154 25.0666 76.0102 24.2461 78.2183 24.0113V27.8682C77.1446 28.2138 76.0815 28.182 75.4852 27.7547Z" fill="#034EA2"/>
<path d="M37.9675 27.8211C37.9675 28.0321 37.8408 28.2221 37.643 28.296C37.2394 28.4517 36.8041 28.5281 36.3213 28.5281C34.2689 28.5281 33.277 27.0323 33.277 23.9563C33.277 20.6218 34.3533 18.9335 36.477 18.9335C36.9123 18.9335 37.2816 18.9837 37.614 19.0945C37.8223 19.1631 37.9675 19.3583 37.9675 19.5773V27.8211ZM36.5825 17.5986C32.5779 17.5986 30.4648 19.9017 30.4648 24.2518C30.4648 27.7446 32.3853 30.0899 35.2582 30.0899C35.9678 30.0899 36.7804 29.9605 37.2895 29.7706C37.4372 29.7126 37.614 29.7337 37.7459 29.8287C37.8909 29.9237 37.9675 30.0793 37.9675 30.2455V35.0072C39.0887 35.0836 40.2652 34.7223 40.8008 34.5192V18.4375C40.165 18.0999 38.8512 17.5986 36.5825 17.5986Z" fill="url(#paint0_linear_412_70212)"/>
<path d="M43.1797 17.9097V26.0613C43.1797 28.855 44.7625 30.1503 48.1498 30.1503C50.1653 30.1503 51.8642 29.8443 53.0883 29.2613V17.9097H50.2761V27.7681C50.2761 27.9686 50.1653 28.1532 49.978 28.2324C49.9438 28.2514 49.147 28.5938 48.0575 28.5938C46.749 28.5938 45.9681 27.7444 45.9681 26.3198V17.9097" fill="url(#paint1_linear_412_70212)"/>
<path d="M55.4375 29.8972H58.2233V17.9072H55.4375V29.8972Z" fill="url(#paint2_linear_412_70212)"/>
<path d="M69.155 24.2782C68.6432 23.7163 67.828 23.289 66.7464 23.004C64.9526 22.5635 63.2853 21.9831 63.2853 20.7353C63.2853 19.7592 64.0371 19.0786 65.1161 19.0786C66.4431 19.0786 67.0577 19.754 67.2952 20.3581H69.3476C69.1868 19.258 68.8595 18.8359 68.2501 18.4006C67.4429 17.8255 66.3745 17.5327 65.0686 17.5327C62.9555 17.5327 60.7132 18.7383 60.7132 20.9701C60.7132 21.8407 61.0588 22.8695 61.502 23.3127C61.9478 23.7664 62.7893 24.0672 64.0055 24.4049L64.1505 24.4418C65.9364 24.9167 67.3478 25.2913 67.3478 26.8926C67.3478 27.9188 66.1 28.5757 65.2479 28.5757C63.4514 28.5757 62.9844 27.713 62.8367 27.0588H60.5469C60.6419 27.8766 60.9874 28.3673 61.6443 29.0215C62.3909 29.7707 63.607 30.1506 65.2479 30.1506C66.7041 30.1506 67.8675 29.7443 68.709 28.9371C69.5321 28.1483 69.8856 27.3727 69.8856 26.3439C69.8856 25.4997 69.6457 24.8217 69.155 24.2782Z" fill="url(#paint3_linear_412_70212)"/>
<path d="M78.9216 27.9874C78.9216 28.2038 78.7819 28.3963 78.5839 28.4675C77.2622 28.9266 75.9537 28.858 75.1571 28.2882C74.6004 27.8925 74.3102 27.291 74.3102 26.5391C74.3102 24.6397 75.6741 23.5581 78.3728 23.318C78.51 23.3076 78.6525 23.3525 78.7527 23.45C78.8607 23.545 78.9216 23.6821 78.9216 23.8246V27.9874ZM81.1903 27.4941L81.1949 26.9797V21.0731C81.1949 19.8675 80.2769 17.5908 76.7894 17.5908C74.8451 17.5908 73.6264 18.0235 72.9642 18.9415C72.5896 19.4744 72.4023 19.7699 72.3126 20.3555H74.6288C74.9638 19.5483 76.0375 19.0655 76.8501 19.0655C77.5571 19.0655 78.0979 19.2632 78.4619 19.6538C79.0291 20.2658 78.9631 21.1522 78.9315 21.627L78.9211 21.8301C78.9084 22.086 78.7047 22.3208 78.4515 22.3392C73.914 22.6558 71.8906 24.0065 71.8906 26.7131C71.8906 27.6866 72.3285 28.6389 73.025 29.1955C73.6502 29.6968 75.3175 30.0899 76.8132 30.0899C78.2642 30.0899 80.6041 29.6176 81.1951 29.3354C81.1951 28.9898 81.1903 27.4941 81.1903 27.4941Z" fill="url(#paint4_linear_412_70212)"/>
<path d="M24.3181 26.0773C24.4078 25.9032 24.5819 25.7976 24.7745 25.7976C24.9619 25.8001 25.1359 25.9084 25.2256 26.0773C25.2256 26.0773 26.8797 29.3749 27.1224 29.8602H30.0242C28.9743 28.098 26.4971 23.9299 26.3837 23.732C26.3415 23.6582 26.3229 23.571 26.3229 23.484C26.3229 23.3971 26.3465 23.3072 26.3887 23.2282C26.4967 23.0408 28.5968 19.5612 29.557 17.9784H27.3569C27.1115 18.4322 25.5129 21.3499 25.5129 21.3499C25.4232 21.5134 25.2438 21.6163 25.0565 21.6137C24.8745 21.609 24.7003 21.5029 24.6159 21.3367C24.6159 21.3367 23.136 18.4348 22.8906 17.96C22.4923 17.9624 21.1258 17.9681 20.1813 17.9726C21.1205 19.5976 23.2309 23.2856 23.3391 23.4756C23.3813 23.5519 23.3998 23.6366 23.3998 23.7183C23.3998 23.808 23.3808 23.8951 23.334 23.9742C23.226 24.1614 20.8569 28.1449 19.8359 29.8597H22.3922C22.6375 29.3795 24.318 26.0767 24.318 26.0767" fill="url(#paint5_linear_412_70212)"/>
<path d="M10.7051 13.9897V29.855H18.0442C18.2974 29.2377 18.4109 28.6705 18.4636 28.2827H13.9209C13.6412 28.2827 13.4117 28.0559 13.4117 27.7762V22.9776C13.4117 22.698 13.6412 22.4685 13.9209 22.4685H17.1789V20.9779H13.9209C13.6412 20.9779 13.4117 20.7511 13.4117 20.4714V16.0712C13.4117 15.7915 13.6412 15.562 13.9209 15.562H18.2235C18.1839 15.169 18.0705 14.5886 17.812 13.9897" fill="url(#paint6_linear_412_70212)"/>
<defs>
<linearGradient id="paint0_linear_412_70212" x1="34.1499" y1="22.2967" x2="34.1499" y2="14.9545" gradientUnits="userSpaceOnUse">
<stop stop-color="#034FA2"/>
<stop offset="0.25" stop-color="#2055A6"/>
<stop offset="0.5" stop-color="#3D60AC"/>
<stop offset="0.75" stop-color="#546BB3"/>
<stop offset="1" stop-color="#6677BA"/>
</linearGradient>
<linearGradient id="paint1_linear_412_70212" x1="34.1519" y1="22.2967" x2="34.1519" y2="14.9545" gradientUnits="userSpaceOnUse">
<stop stop-color="#034FA2"/>
<stop offset="0.25" stop-color="#2055A6"/>
<stop offset="0.5" stop-color="#3D60AC"/>
<stop offset="0.75" stop-color="#546BB3"/>
<stop offset="1" stop-color="#6677BA"/>
</linearGradient>
<linearGradient id="paint2_linear_412_70212" x1="55.2183" y1="22.0836" x2="55.2183" y2="14.7413" gradientUnits="userSpaceOnUse">
<stop stop-color="#034FA2"/>
<stop offset="0.25" stop-color="#2055A6"/>
<stop offset="0.5" stop-color="#3D60AC"/>
<stop offset="0.75" stop-color="#546BB3"/>
<stop offset="1" stop-color="#6677BA"/>
</linearGradient>
<linearGradient id="paint3_linear_412_70212" x1="60.2587" y1="21.6172" x2="60.2587" y2="14.277" gradientUnits="userSpaceOnUse">
<stop stop-color="#034FA2"/>
<stop offset="0.25" stop-color="#2055A6"/>
<stop offset="0.5" stop-color="#3D60AC"/>
<stop offset="0.75" stop-color="#546BB3"/>
<stop offset="1" stop-color="#6677BA"/>
</linearGradient>
<linearGradient id="paint4_linear_412_70212" x1="34.1506" y1="22.2969" x2="34.1506" y2="14.9546" gradientUnits="userSpaceOnUse">
<stop stop-color="#034FA2"/>
<stop offset="0.25" stop-color="#2055A6"/>
<stop offset="0.5" stop-color="#3D60AC"/>
<stop offset="0.75" stop-color="#546BB3"/>
<stop offset="1" stop-color="#6677BA"/>
</linearGradient>
<linearGradient id="paint5_linear_412_70212" x1="23.509" y1="21.4209" x2="23.509" y2="15.6066" gradientUnits="userSpaceOnUse">
<stop stop-color="#034FA2"/>
<stop offset="0.25" stop-color="#2055A6"/>
<stop offset="0.5" stop-color="#3D60AC"/>
<stop offset="0.75" stop-color="#546BB3"/>
<stop offset="1" stop-color="#6677BA"/>
</linearGradient>
<linearGradient id="paint6_linear_412_70212" x1="18.6479" y1="21.3807" x2="18.6479" y2="14.0406" gradientUnits="userSpaceOnUse">
<stop stop-color="#034FA2"/>
<stop offset="0.25" stop-color="#2055A6"/>
<stop offset="0.5" stop-color="#3D60AC"/>
<stop offset="0.75" stop-color="#546BB3"/>
<stop offset="1" stop-color="#6677BA"/>
</linearGradient>
</defs>
</svg>
