<svg width="155" height="27" viewBox="0 0 155 27" fill="none" xmlns="http://www.w3.org/2000/svg">
<path d="M18.4373 10.6437C18.3363 10.6437 18.2513 10.6463 18.2035 10.6516C18.1477 10.7526 18.0653 10.8881 17.9431 11.0767C19.8454 11.0767 21.5723 11.2335 23.4825 11.5762L22.9432 12.0969C21.2189 11.7914 19.7869 11.6692 17.9617 11.6692C17.6961 11.6692 17.6403 11.6692 17.5765 11.6719C17.5127 11.7675 17.3692 11.9535 17.2258 12.1262C17.3879 12.1156 17.7014 12.1102 18.1344 12.1102C19.6355 12.1102 21.0383 12.2218 22.5606 12.4663L22.0213 12.9896C20.8629 12.809 19.4468 12.7054 18.1769 12.7054C17.7253 12.7054 17.2125 12.7213 16.7529 12.7479C16.6493 12.8674 16.3783 13.1597 16.2959 13.25C16.9043 13.1862 17.5738 13.157 18.3709 13.157C19.5053 13.157 20.5893 13.2314 21.6148 13.3828L21.0755 13.9009C20.3449 13.8106 19.4575 13.7575 18.6738 13.7575C16.652 13.7575 15.0578 14.1958 13.4106 15.2027C14.9808 16.8871 17.5526 17.9525 20.0446 17.9525H20.2784L19.407 18.7948C15.8124 18.1199 12.0291 16.5391 8.83301 14.3738C5.75908 12.2988 4.68309 11.6852 2.28402 10.6251L2.26809 10.0087L3.89138 10.7048L4.444 10.2664L9.74427 12.6947L9.39887 12.971L6.67834 11.7888L6.41 11.9986L7.82345 12.7877C9.01636 13.4519 9.92493 13.7495 10.7645 13.7495C12.6003 13.7495 14.2476 12.4476 15.3102 10.1602C16.11 10.0565 16.9628 10.0087 17.9883 10.0087C20.0925 10.0087 22.1355 10.2106 24.4496 10.6437L23.8863 11.1883C22.4464 10.8881 19.9995 10.6437 18.4373 10.6437ZM13.2858 25.7741C6.3905 25.7741 0.797211 20.1808 0.797211 13.2855C0.797211 6.39028 6.3905 0.796926 13.2858 0.796926C20.181 0.796926 25.7743 6.39028 25.7743 13.2855C25.7743 20.1808 20.181 25.7741 13.2858 25.7741ZM13.2858 -0.000160217C5.93881 -0.000160217 0 5.93853 0 13.2855C0 20.6325 5.93881 26.5713 13.2858 26.5713C20.6328 26.5713 26.5715 20.6325 26.5715 13.2855C26.5715 5.93853 20.6328 -0.000160217 13.2858 -0.000160217ZM48.3853 18.5746H56.0025V22.1427H44.2858V4.42834H48.3853V18.5746ZM65.2139 9.3884H69.0351V22.1427H65.4417V20.675C64.9102 21.6619 63.8222 22.5222 61.8229 22.5222C58.5585 22.5222 56.863 21.0545 56.863 16.8537V9.3884H60.6842V16.6765C60.6842 18.3721 61.4182 19.1312 62.9618 19.1312C64.3536 19.1312 65.2139 18.3721 65.2139 16.6765V9.3884ZM71.9707 8.90765C71.9707 5.82035 73.9194 4.17531 76.9814 4.17531C77.9684 4.17531 78.601 4.32717 78.601 4.32717V7.41446C78.601 7.41446 78.0695 7.36403 77.6139 7.36403C76.4246 7.36403 75.7918 7.76892 75.7918 8.88234V9.3884H78.601V12.5011H75.7918V22.1427H71.9707V12.5011H70.0475V9.3884H71.9707V8.90765ZM85.3319 9.3884H88.2422V12.5011H85.3319V17.4611C85.3319 18.8276 86.0406 19.1819 87.1542 19.1819C87.6098 19.1819 88.2422 19.106 88.2422 19.106V22.168C88.2422 22.168 87.3567 22.3704 86.4206 22.3704C83.3585 22.3704 81.5112 20.9786 81.5112 17.8914V12.5011H79.5877V9.3884H81.5112V5.66844H85.3319V9.3884ZM96.7024 9.00882C99.942 9.00882 101.637 10.4765 101.637 14.6774V22.1427H97.816V14.8545C97.816 13.159 97.0823 12.4 95.4882 12.4C94.0452 12.4 93.1853 13.159 93.1853 14.8545V22.1427H89.3639V4.45371H93.2103V10.6284C93.8684 9.69199 94.9057 9.00882 96.7024 9.00882ZM111.38 17.1827C111.38 18.5746 110.064 19.6122 108.04 19.6122C107.053 19.6122 106.471 19.1567 106.471 18.2961C106.471 17.6382 106.875 17.0816 108.167 16.9045L110.368 16.6007C110.747 16.55 111.152 16.4742 111.38 16.3983V17.1827ZM109.255 9.00889C105.484 9.00889 103.661 10.4514 103.51 13.1591H107.23C107.28 12.4505 107.685 11.919 109.255 11.919C110.646 11.919 111.304 12.3746 111.304 13.0577C111.304 13.6653 110.924 13.893 109.988 13.9941L107.559 14.2472C104.269 14.6014 102.776 15.968 102.776 18.4481C102.776 20.7509 104.193 22.5222 107.205 22.5222C109.255 22.5222 110.469 21.8643 111.532 20.5483V22.1427H115.024V13.7664C115.024 10.2489 112.975 9.00889 109.255 9.00889ZM123.86 9.00882C127.175 9.00882 128.871 10.4765 128.871 14.6774V22.1427H125.049V14.8545C125.049 13.159 124.316 12.4 122.722 12.4C121.279 12.4 120.419 13.159 120.419 14.8545V22.1427H116.597V9.38846H120.191V10.8563C120.722 9.86922 121.81 9.00882 123.86 9.00882ZM136.932 14.1459C140.171 14.5762 141.79 15.5884 141.79 18.2456C141.79 20.9281 139.893 22.5223 135.869 22.5223C131.491 22.5223 129.947 20.7763 129.871 18.2202H133.642C133.743 19.1567 134.401 19.6122 135.869 19.6122C137.362 19.6122 137.969 19.2578 137.969 18.5493C137.969 17.8914 137.463 17.5877 136.147 17.4106L134.806 17.2333C131.997 16.8538 130.377 15.7657 130.377 13.235C130.377 10.8056 132.174 9.00882 135.945 9.00882C139.437 9.00882 141.31 10.4006 141.487 13.159H137.767C137.64 12.4253 137.235 11.9697 135.945 11.9697C134.679 11.9697 134.199 12.4 134.199 12.9568C134.199 13.5133 134.503 13.817 135.591 13.9689L136.932 14.1459ZM151.356 17.1829C151.356 18.5746 150.04 19.6122 148.016 19.6122C147.029 19.6122 146.447 19.1567 146.447 18.2961C146.447 17.6382 146.852 17.0816 148.142 16.9045L150.344 16.6007C150.724 16.5502 151.128 16.4742 151.356 16.3983V17.1829ZM149.23 9.00889C145.46 9.00889 143.638 10.4514 143.486 13.1591H147.206C147.257 12.4505 147.662 11.9192 149.23 11.9192C150.622 11.9192 151.28 12.3746 151.28 13.0579C151.28 13.6653 150.901 13.893 149.964 13.9941L147.535 14.2472C144.245 14.6016 142.752 15.9681 142.752 18.4481C142.752 20.7509 144.169 22.5222 147.18 22.5222C149.23 22.5222 150.445 21.8643 151.508 20.5483V22.1427H155V13.7664C155 10.249 152.95 9.00889 149.23 9.00889Z" fill="white"/>
</svg>
