<svg width="95" height="31" viewBox="0 0 95 31" fill="none" xmlns="http://www.w3.org/2000/svg">
<g clip-path="url(#clip0_412_70251)">
<path d="M15.3532 0.420898C11.2115 0.420898 7.67303 1.89009 4.72833 4.82781C1.79267 7.76617 0.320312 11.297 0.320312 15.4209C0.320312 19.5448 1.79267 23.0847 4.72833 26.014C7.67303 28.9524 11.2115 30.4209 15.3532 30.4209C19.4951 30.4209 23.0161 28.9518 25.9601 26.014C28.9049 23.0847 30.3856 19.5538 30.3856 15.4209C30.3856 11.288 28.9042 7.76617 25.9601 4.82781C23.0155 1.89009 19.477 0.420898 15.3532 0.420898ZM21.7215 21.7753C19.9474 23.5275 17.8276 24.4036 15.3532 24.4036C12.8789 24.4036 10.7418 23.5275 8.98515 21.7753C7.22014 20.0148 6.34216 17.899 6.34216 15.4215C6.34216 12.9441 7.22014 10.8283 8.98515 9.06775C10.7411 7.29751 12.8609 6.41304 15.3532 6.41304C17.8457 6.41304 19.9474 7.29816 21.7215 9.06775C23.4955 10.829 24.3735 12.9531 24.3735 15.4215C24.3735 17.8899 23.4955 20.0148 21.7215 21.7753ZM80.9385 15.0495L94.0825 0.668448H68.4956V6.58H80.6283L72.3007 15.0495L85.6929 30.1559H94.2976L80.9385 15.0495ZM34.5811 0.668448V30.1559H40.8071V17.7488L49.7381 29.6609L58.6601 17.7488V30.1559H64.8951V0.668448L49.7381 19.3063L34.5811 0.668448Z" fill="white"/>
</g>
<defs>
<clipPath id="clip0_412_70251">
<rect width="95" height="30" fill="white" transform="translate(0 0.420898)"/>
</clipPath>
</defs>
</svg>
