<svg width="80" height="80" viewBox="0 0 80 80" fill="none" xmlns="http://www.w3.org/2000/svg">
<path d="M77.7373 2.26416L2.26562 77.7359H77.7373V2.26416Z" fill="#1A5DAE"/>
<path d="M68.424 19.6675C68.2012 19.8367 68.134 19.8923 68.0168 20.009C67.6228 20.4035 67.3811 21.148 67.7672 21.9529L67.741 21.9792L66.9398 21.2699L65.8496 22.3601C66.2226 22.6884 66.6314 23.0762 67.2287 23.6735L69.9476 26.4056L71.2085 25.1446L69.1464 23.0825C69.0439 22.98 68.9614 22.8771 68.8968 22.7804C68.5863 22.2997 68.6557 21.7349 69.1201 21.2699C69.262 21.1281 69.3718 21.0303 69.6061 20.8496L68.424 19.6675ZM65.3242 23.6867C64.7293 23.6714 64.1148 23.8978 63.5379 24.4748C62.1309 25.8812 62.6348 27.6702 63.6692 28.7041C64.9375 29.9724 66.52 29.9908 67.8986 28.6122C68.4439 28.0663 68.8711 27.471 69.1201 26.8784L68.0956 26.1954C67.8697 26.652 67.5781 27.0544 67.1499 27.4826C66.5594 28.0731 65.7949 28.3379 65.2323 27.8504L67.8461 25.2497C67.7667 25.1262 67.607 24.9182 67.3863 24.6981C66.8201 24.1315 66.0891 23.7063 65.3242 23.6867ZM64.9696 25.0921C65.329 25.0911 65.6604 25.3075 65.8496 25.4993L64.3522 26.9966C64.0507 26.6252 63.778 25.9159 64.3128 25.3811C64.5288 25.1653 64.7539 25.0927 64.9696 25.0921ZM61.2131 26.9966L60.1229 28.0999L60.5695 28.6253L60.5432 28.6384C60.002 28.5103 59.4078 28.618 58.8488 29.177C57.8501 30.1752 57.838 31.8575 59.1509 33.1699C60.3162 34.3352 61.8514 34.4366 62.8549 33.4326C63.3235 32.9639 63.5274 32.376 63.4328 31.8039L63.4459 31.7908L63.7086 32.0535C64.4605 32.8053 64.3197 33.5829 63.7218 34.1813C63.2447 34.6578 62.639 34.9394 62.2376 35.0482L62.9468 36.2565C63.5132 36.0942 64.1825 35.6508 64.72 35.1138C65.3184 34.5154 65.8165 33.792 65.8759 32.9597C65.9289 32.0902 65.4487 31.2985 64.6675 30.5167L62.3952 28.2444C61.7884 27.6381 61.4568 27.2787 61.2131 26.9966ZM60.6745 29.5841C60.888 29.5671 61.1072 29.618 61.3181 29.7418C61.4048 29.7927 61.4999 29.8705 61.5808 29.9519L62.1719 30.5561C62.277 30.6617 62.4052 30.7994 62.474 30.9239C62.6852 31.3027 62.6437 31.7787 62.3164 32.106C61.791 32.6314 61.0176 32.4622 60.4118 31.8564C59.6737 31.1183 59.6232 30.3333 60.0835 29.8731C60.2592 29.6974 60.4611 29.6012 60.6745 29.5841ZM56.9049 31.1734C56.7898 31.247 56.7331 31.2927 56.6159 31.4099C56.2214 31.8039 55.9802 32.5494 56.3664 33.3538L56.327 33.3932L55.5258 32.6839L54.4487 33.7741C54.8217 34.1019 55.2168 34.4771 55.8147 35.0744L58.5336 37.8196L59.8077 36.5455L57.7455 34.4834C57.6425 34.3804 57.5474 34.2774 57.4828 34.1813C57.1718 33.7 57.2543 33.1358 57.7192 32.6708C57.8611 32.5284 57.973 32.4412 58.1001 32.3556L56.9049 31.1734ZM53.8577 34.352L52.5836 35.6261L55.0135 38.056C55.1149 38.1569 55.1948 38.2651 55.2368 38.3712C55.3618 38.6591 55.397 39.0915 55.0529 39.4351C54.6069 39.8812 54.0589 39.7157 53.4636 39.1199L51.2833 36.9395L50.0092 38.2005L52.3997 40.6041C53.6507 41.8556 54.7776 41.7594 55.6046 40.9325C56.3343 40.2027 56.3018 39.412 56.2088 39.0017L56.235 38.9754L56.8655 39.4877L57.9557 38.3975C57.6 38.0765 57.1581 37.653 56.6291 37.1234L53.8577 34.352ZM49.3393 39.5533C48.7732 39.5627 48.2435 39.7952 47.8157 40.2232C47.2509 40.7875 47.0508 41.4316 47.159 42.0227L47.1458 42.0358L45.0837 39.9868L43.8228 41.2477L48.2492 45.6741C48.7115 46.1359 49.1796 46.635 49.4313 46.9219L50.5083 45.8448L49.9961 45.2275L50.0092 45.2144C50.7747 45.4135 51.412 45.1251 51.8875 44.6496C52.82 43.717 53.0123 42.0568 51.546 40.591C50.8503 39.8838 50.0672 39.5414 49.3393 39.5533ZM49.0372 41.3265C49.4655 41.3022 49.9156 41.535 50.3113 41.9307C51.0432 42.6626 51.1377 43.416 50.6003 43.9534C50.2304 44.3233 49.6688 44.3527 49.2474 44.0979C49.167 44.047 49.0787 43.9818 48.9978 43.9009L48.4068 43.2967C48.3259 43.2153 48.2528 43.1212 48.1966 43.034C47.9087 42.5848 47.9665 42.0169 48.3148 41.668C48.5351 41.4478 48.7803 41.3411 49.0372 41.3265ZM44.913 43.5594C44.5147 43.706 43.9373 44.0491 43.4156 44.5708C42.3097 45.6767 42.1762 46.9697 42.9428 47.7362C43.4161 48.2206 44.2326 48.3315 45.4383 47.6837C46.1087 47.3296 46.3699 47.2623 46.5811 47.4735C46.7891 47.6816 46.7234 48.0147 46.3052 48.4324C45.9017 48.8359 45.2024 49.2021 44.8079 49.3124L45.4646 50.4682C45.9716 50.2949 46.6173 49.8935 47.1984 49.3124C48.4756 48.0346 48.5644 46.8294 47.8026 46.0681C47.2026 45.4786 46.455 45.4324 45.3464 46.0156C44.6277 46.3891 44.3203 46.4869 44.1249 46.2914C43.9195 46.0865 44.0103 45.7497 44.3482 45.4114C44.7254 45.0347 45.2466 44.7804 45.5434 44.6759L44.913 43.5594ZM40.9463 47.7362C40.4768 47.7663 40.049 47.9768 39.6854 48.3404C39.006 49.0203 38.9834 49.832 39.0812 50.2581L39.0549 50.2843L38.4376 49.7852L37.3343 50.8754C37.7167 51.2227 38.167 51.643 38.674 52.1495L41.4454 54.9209L42.7063 53.6468L40.3552 51.2957C40.2423 51.1822 40.1393 51.0525 40.0925 50.9411C39.946 50.619 39.9018 50.1724 40.2502 49.8246C40.7062 49.3681 41.2626 49.5367 41.7869 50.0611L44.0329 52.3202L45.307 51.0462L42.8902 48.6425C42.2164 47.9684 41.5499 47.6975 40.9463 47.7362ZM36.7826 52.2283C36.1877 52.213 35.5735 52.4392 34.9963 53.0164C33.5898 54.4228 34.0932 56.2112 35.1276 57.2457C36.3954 58.514 37.991 58.5192 39.3701 57.1406C39.9155 56.5953 40.3421 56.0132 40.5917 55.42L39.554 54.7239C39.3276 55.1799 39.0365 55.596 38.6083 56.0242C38.0183 56.6147 37.2539 56.8795 36.6907 56.392L39.3176 53.7913C39.2383 53.6678 39.0654 53.4472 38.8447 53.2265C38.2782 52.6603 37.5475 52.2479 36.7826 52.2283ZM36.428 53.6337C36.7873 53.6326 37.1189 53.8491 37.308 54.0409L35.8106 55.5382C35.5091 55.1662 35.2364 54.4575 35.7712 53.9226C35.987 53.7067 36.2124 53.6343 36.428 53.6337ZM33.2231 54.9866L31.8965 56.3263L33.2625 58.7431C33.52 59.1854 33.7511 59.5532 34.0243 59.9515L33.9981 59.9777C33.6093 59.7156 33.2189 59.4734 32.7765 59.229L30.3335 57.8762L28.9675 59.2553L34.5103 61.8428L35.7844 60.5819L33.2231 54.9866ZM28.7705 60.0697C28.2381 60.0971 27.6691 60.3569 27.0761 60.9497C26.3327 61.6931 25.9807 62.447 25.8283 63.0118L26.8659 63.5897C27.0052 63.0365 27.3052 62.4675 27.7197 62.053C28.3475 61.4225 28.7778 61.6132 28.9938 61.8297L29.0463 61.8822C27.6046 63.3208 27.1586 64.7624 28.2188 65.8226C28.8692 66.4731 29.9515 66.5855 30.7801 65.757C31.2619 65.2752 31.5083 64.6915 31.4499 64.102L31.4762 64.0757L31.9491 64.4041L33.0918 63.2614C32.8191 63.077 32.4293 62.7302 32.041 62.342L30.6225 60.9234C30.0849 60.3856 29.455 60.0344 28.7705 60.0697ZM23.5166 62.6047C23.4473 62.6083 23.3891 62.6194 23.3196 62.6309C22.5578 62.7586 21.7744 63.2835 20.8503 64.2071C20.1016 64.9563 19.5599 65.6099 19.1953 66.1116L24.725 71.6413L25.9859 70.3672L23.7924 68.1606L24.239 67.714C24.8253 67.1414 25.3481 67.0037 26.2224 67.5301C27.0929 68.0471 27.6982 68.3308 27.9561 68.397L29.2565 67.0967C28.9176 67.0016 27.9819 66.4085 27.1549 65.9671C26.4829 65.6088 25.9576 65.4559 25.3686 65.7307L25.3423 65.7044C25.7043 64.9962 25.7111 63.9717 25.0008 63.2614C24.4965 62.7571 24.002 62.5793 23.5166 62.6047ZM29.8738 62.6309L30.3204 63.0775C30.3923 63.149 30.4711 63.2288 30.5174 63.3139C30.6955 63.6581 30.6303 64.1335 30.3204 64.4435C30.0324 64.7314 29.6631 64.7845 29.3353 64.4566C28.8509 63.9722 29.2044 63.2934 29.8738 62.6309ZM23.1882 64.3647C23.419 64.3769 23.6394 64.4745 23.8318 64.6668C24.3189 65.1544 24.1891 65.9387 23.4903 66.637L22.873 67.2543L21.3231 65.7044C21.3998 65.5825 21.6426 65.3062 21.9799 64.9689C22.3837 64.5689 22.8037 64.3444 23.1882 64.3647Z" fill="white"/>
</svg>
