<svg width="129" height="43" viewBox="0 0 129 43" fill="none" xmlns="http://www.w3.org/2000/svg">
<g clip-path="url(#clip0_412_70355)">
<path d="M128.92 10.1976C130.677 20.2681 103.262 33.4564 67.6793 39.6538C32.1008 45.8511 1.83405 42.7064 0.0795807 32.6316C-1.67348 22.5597 25.749 9.37564 61.3274 3.17971C96.9072 -3.02047 127.168 0.124265 128.92 10.1976Z" fill="#034EA2"/>
<path d="M95.432 25.1474L95.2491 14.6758H98.5512V27.874H93.8036L90.5087 17.0425H90.4378L90.6206 27.874H87.3398V14.6758H92.2929L95.3583 25.1474H95.432Z" fill="white"/>
<path d="M35.4122 15.9116L33.5854 28.0129H29.9844L32.4574 14.6758H38.3897L40.8513 28.0129H37.2645L35.4873 15.9116H35.4122Z" fill="white"/>
<path d="M49.2386 28.0129L47.0079 16.0221H46.9356L46.852 28.0129H43.5117L43.8065 14.6758H49.2485L50.8952 24.871H50.9661L52.6143 14.6758H58.0534L58.3425 28.0129H55.0093L54.9215 16.0221H54.852L52.6228 28.0129H49.2386Z" fill="white"/>
<path d="M24.3689 24.2502C24.4993 24.5733 24.4596 24.9885 24.3986 25.2394C24.2867 25.683 23.9862 26.135 23.0991 26.135C22.2629 26.135 21.7556 25.656 21.7556 24.9233V23.6323H18.1786L18.1758 24.6654C18.1758 27.6387 20.517 28.5358 23.0254 28.5358C25.4374 28.5358 27.4243 27.7109 27.7404 25.4888C27.9019 24.3366 27.7815 23.5827 27.7262 23.2978C27.1636 20.506 22.1014 19.6727 21.7244 18.1109C21.6606 17.8431 21.6791 17.5597 21.7102 17.408C21.8024 16.9829 22.0943 16.5138 22.929 16.5138C23.7085 16.5138 24.1691 16.9956 24.1691 17.7241C24.1691 17.9692 24.1691 18.5474 24.1691 18.5474H27.4952V17.6107C27.4952 14.7055 24.8876 14.252 22.9985 14.252C20.6261 14.252 18.6874 15.0357 18.3331 17.2068C18.2367 17.8063 18.2226 18.3405 18.3629 19.0094C18.9453 21.7347 23.683 22.5241 24.3689 24.2502Z" fill="white"/>
<path d="M67.7351 24.2261C67.8669 24.5464 67.8244 24.9503 67.7649 25.2012C67.6558 25.6433 67.3582 26.0883 66.4767 26.0883C65.6519 26.0883 65.1488 25.6093 65.1488 24.8936L65.1459 23.6139H61.6058L61.6016 24.6329C61.6016 27.5764 63.9215 28.4649 66.4044 28.4649C68.7909 28.4649 70.7594 27.6515 71.0698 25.4492C71.2313 24.3055 71.1165 23.5615 71.0584 23.2823C70.4986 20.5159 65.4875 19.6911 65.1148 18.145C65.051 17.8786 65.0694 17.598 65.102 17.4548C65.197 17.0268 65.4832 16.5691 66.3094 16.5691C67.0818 16.5691 67.5325 17.0396 67.5325 17.7624C67.5325 18.0047 67.5325 18.5772 67.5325 18.5772H70.8331V17.6504C70.8331 14.7763 68.2467 14.3257 66.3761 14.3257C64.0306 14.3257 62.1075 15.0995 61.7603 17.255C61.6639 17.846 61.654 18.3703 61.7915 19.0364C62.3654 21.7333 67.0563 22.517 67.7351 24.2261Z" fill="white"/>
<path d="M78.9418 26.0173C79.8672 26.0173 80.1563 25.3767 80.2201 25.0494C80.247 24.9048 80.2541 24.7121 80.2513 24.5392V14.6699H83.6242V24.2373C83.6313 24.4825 83.6072 24.987 83.5958 25.1132C83.3592 27.6031 81.3907 28.4109 78.9404 28.4109C76.4873 28.4109 74.5174 27.6031 74.2835 25.1132C74.2722 24.987 74.2481 24.4825 74.2552 24.2373V14.6699H77.6253V24.5392C77.6253 24.7121 77.6309 24.9062 77.6564 25.0494C77.7287 25.3767 78.0093 26.0173 78.9418 26.0173Z" fill="white"/>
<path d="M106.761 25.8771C107.728 25.8771 108.065 25.2663 108.128 24.9106C108.152 24.7575 108.159 24.5719 108.157 24.4032V22.4674H106.788V20.5202H111.518V24.1C111.515 24.3494 111.509 24.5336 111.469 24.9786C111.247 27.4048 109.142 28.2707 106.778 28.2707C104.41 28.2707 102.309 27.4048 102.083 24.9786C102.045 24.5336 102.039 24.3494 102.035 24.1L102.038 18.4837C102.038 18.247 102.068 17.8275 102.093 17.605C102.389 15.1122 104.41 14.3101 106.778 14.3101C109.144 14.3101 111.214 15.1079 111.459 17.605C111.503 18.0302 111.489 18.4837 111.489 18.4837V18.9287H108.126V18.1818C108.129 18.1832 108.122 17.8644 108.082 17.6745C108.026 17.3797 107.769 16.7023 106.753 16.7023C105.781 16.7023 105.496 17.3428 105.425 17.6745C105.384 17.8502 105.368 18.0883 105.368 18.3037V24.4032C105.366 24.5719 105.375 24.7575 105.402 24.9106C105.46 25.2677 105.796 25.8771 106.761 25.8771Z" fill="white"/>
</g>
<defs>
<clipPath id="clip0_412_70355">
<rect width="129" height="42.8314" fill="white"/>
</clipPath>
</defs>
</svg>
