<svg width="155" height="36" viewBox="0 0 155 36" fill="none" xmlns="http://www.w3.org/2000/svg">
<g clip-path="url(#clip0_412_70501)">
<mask id="mask0_412_70501" style="mask-type:luminance" maskUnits="userSpaceOnUse" x="0" y="0" width="155" height="36">
<path d="M0.351562 35.3438H154.653V0.349729H0.351562V35.3438Z" fill="white"/>
</mask>
<g mask="url(#mask0_412_70501)">
<path d="M54.3131 31.3597C54.43 31.0322 54.6509 30.7879 55.0356 30.7879C55.875 30.7879 55.8984 31.9392 55.8984 32.5136C55.8984 33.0879 55.875 34.2288 55.0356 34.2288C54.1961 34.2288 54.1701 33.0879 54.1701 32.5136C54.1701 32.1029 54.1987 31.6819 54.3131 31.3597ZM55.0356 35.3438C57.0081 35.3438 57.7254 34.0079 57.7254 32.5136C57.7254 31.0192 57.0081 29.673 55.0356 29.673C53.0604 29.673 52.3457 31.0192 52.3457 32.5136C52.3457 34.0079 53.0604 35.3438 55.0356 35.3438Z" fill="#EB690B"/>
<path d="M62.5131 29.8015V32.9435C62.5131 33.3593 62.3936 33.9701 61.736 33.9701C61.2604 33.9701 61.0863 33.627 61.0863 33.0735V29.8015H59.3477V33.6322C59.3477 34.8147 60.0442 35.3423 60.9486 35.3423C61.736 35.3423 62.222 34.9473 62.4637 34.2767H62.6534V34.3755C62.6534 34.6484 62.6612 34.9862 62.6846 35.2149H64.3011C64.2751 35.0252 64.2544 34.7237 64.2544 34.3885V29.8015H62.5131Z" fill="#EB690B"/>
<path d="M66.8066 30.9164V33.7933C66.8066 34.7731 67.4824 35.3423 68.5063 35.3423C69.0001 35.3423 69.4263 35.2825 69.6862 35.2331L69.6394 34.1416C69.5355 34.1702 69.4107 34.1832 69.2808 34.1832C68.8858 34.1832 68.5479 33.9389 68.5479 33.4061V30.9164H69.6342V29.8015H68.5479V28.0472L66.8066 28.5904V29.8015H65.8477V30.9164H66.8066Z" fill="#EB690B"/>
<path d="M76.2174 31.3597C76.3343 31.0322 76.5552 30.7879 76.9398 30.7879C77.7793 30.7879 77.8027 31.9392 77.8027 32.5136C77.8027 33.0879 77.7793 34.2288 76.9398 34.2288C76.1004 34.2288 76.0744 33.0879 76.0744 32.5136C76.0744 32.1029 76.103 31.6819 76.2174 31.3597ZM76.9398 35.3438C78.9124 35.3438 79.6297 34.0079 79.6297 32.5136C79.6297 31.0192 78.9124 29.673 76.9398 29.673C74.9673 29.673 74.25 31.0192 74.25 32.5136C74.25 34.0079 74.9647 35.3438 76.9398 35.3438Z" fill="#EB690B"/>
<path d="M83.581 35.2144V30.9158H84.6362V29.8009H83.581V29.2395C83.581 28.7015 83.8175 28.4079 84.3269 28.4079C84.4491 28.4079 84.553 28.4261 84.6414 28.4494L84.7272 28.4754L84.7635 27.3163C84.5426 27.2722 84.184 27.2072 83.6044 27.2072C82.5181 27.2072 81.8424 27.6672 81.8424 28.9069V29.8009H80.8496V30.9158H81.8424L81.8398 35.2144H83.581Z" fill="#EB690B"/>
<path d="M91.1827 35.2144V32.2334C91.1827 31.6513 91.401 31.0457 91.9805 31.0457C92.4379 31.0457 92.6095 31.3914 92.6095 31.9424V35.2144H94.3507V31.3836C94.3507 30.2011 93.6542 29.6735 92.7472 29.6735C92.0871 29.6735 91.6531 29.9412 91.3282 30.513H91.1281C91.1567 30.2505 91.1827 29.988 91.1827 29.7229V27.3345H89.4414V35.2144H91.1827Z" fill="#EB690B"/>
<path d="M97.9478 31.3597C98.0648 31.0322 98.2857 30.7879 98.6703 30.7879C99.5098 30.7879 99.5331 31.9392 99.5331 32.5136C99.5331 33.0879 99.5098 34.2288 98.6703 34.2288C97.8309 34.2288 97.8075 33.0879 97.8075 32.5136C97.8075 32.1029 97.8335 31.6819 97.9478 31.3597ZM98.6703 35.3438C100.643 35.3438 101.36 34.0079 101.36 32.5136C101.36 31.0192 100.643 29.673 98.6703 29.673C96.6978 29.673 95.9805 31.0192 95.9805 32.5136C95.9805 34.0079 96.6978 35.3438 98.6703 35.3438Z" fill="#EB690B"/>
<path d="M104.738 35.2144V32.2334C104.738 31.6513 104.956 31.0457 105.536 31.0457C105.993 31.0457 106.165 31.3914 106.165 31.9424V35.2144H107.906V32.0723C107.906 31.6565 108.023 31.0457 108.683 31.0457C109.156 31.0457 109.33 31.3888 109.33 31.9424V35.2144H111.071V31.2848C111.071 30.1413 110.38 29.6735 109.522 29.6735C108.678 29.6735 108.252 30.0452 107.828 30.7183C107.495 29.988 107.108 29.6735 106.302 29.6735C105.515 29.6735 105.029 30.0686 104.79 30.7391H104.598V30.6403C104.598 30.3674 104.59 30.0296 104.566 29.8009H102.947C102.973 30.0296 102.997 30.435 102.997 30.908V35.2144H104.738Z" fill="#EB690B"/>
<path d="M117.717 32.4912C117.717 30.9943 116.911 29.6715 115.23 29.6715C113.613 29.6715 112.725 30.9761 112.725 32.4809C112.725 33.8921 113.356 35.3526 115.555 35.3422C116.288 35.3318 116.958 35.1889 117.413 35.0486L117.377 33.9206C116.919 34.1104 116.334 34.3131 115.835 34.3131C114.918 34.3131 114.388 33.9206 114.328 32.9409H117.717V32.4912ZM115.264 30.659C115.932 30.659 116.15 31.0956 116.15 31.8675V32.1274H114.292V32.0286C114.292 31.236 114.627 30.659 115.264 30.659Z" fill="#EB690B"/>
<path d="M124.67 35.2144V32.2334C124.67 31.6513 124.888 31.0457 125.467 31.0457C125.925 31.0457 126.096 31.3914 126.096 31.9424V35.2144H127.838V32.0723C127.838 31.6565 127.955 31.0457 128.615 31.0457C129.09 31.0457 129.262 31.3888 129.262 31.9424V35.2144H131.003V31.2848C131.003 30.1413 130.312 29.6735 129.454 29.6735C128.609 29.6735 128.183 30.0452 127.76 30.7183C127.427 29.988 127.042 29.6735 126.234 29.6735C125.447 29.6735 124.961 30.0686 124.722 30.7391H124.529V30.6403C124.529 30.3674 124.521 30.0296 124.498 29.8009H122.879C122.907 30.0296 122.928 30.435 122.928 30.908V35.2144H124.67Z" fill="#EB690B"/>
<path d="M137.604 32.4912C137.604 30.9943 136.798 29.6715 135.119 29.6715C133.5 29.6715 132.611 30.9761 132.611 32.4809C132.611 33.8921 133.243 35.3526 135.442 35.3422C136.174 35.3318 136.845 35.1889 137.3 35.0486L137.266 33.9206C136.806 34.1104 136.221 34.3131 135.722 34.3131C134.805 34.3131 134.275 33.9206 134.215 32.9409H137.604V32.4912ZM135.15 30.659C135.818 30.659 136.037 31.0956 136.037 31.8675V32.1274H134.178V32.0286C134.178 31.236 134.514 30.659 135.15 30.659Z" fill="#EB690B"/>
<path d="M142.776 27.3347V29.5178C142.776 29.8868 142.794 30.2533 142.828 30.6197H142.643C142.261 29.9986 141.908 29.6711 141.147 29.6711C139.842 29.6711 139.244 31.0641 139.244 32.3739C139.244 34.0658 139.86 35.3003 141.245 35.3003C141.957 35.3003 142.342 34.9183 142.672 34.3101H142.851V34.4089C142.851 34.6766 142.877 34.9442 142.898 35.2145H144.554C144.535 34.9157 144.517 34.6246 144.517 34.3231V27.3347H142.776ZM141.924 30.7886C142.516 30.7886 142.776 31.5423 142.776 32.4597C142.776 33.3745 142.516 34.1412 141.924 34.1412C141.24 34.1412 141.071 33.3667 141.071 32.4597C141.071 31.5501 141.243 30.7886 141.924 30.7886Z" fill="#EB690B"/>
<path d="M148.071 29.8009H146.33V35.2144H148.071V29.8009ZM148.071 27.3345H146.33V28.7509H148.071V27.3345Z" fill="#EB690B"/>
<path d="M152.338 29.6715C151.459 29.6715 150.794 29.843 150.339 30.0068L150.394 31.1581C150.802 30.9216 151.355 30.7007 151.917 30.7007C152.725 30.7007 153.073 31.1425 153.073 31.5635V31.8364H152.478C150.544 31.8364 149.689 32.4913 149.689 33.6556C149.689 34.6796 150.36 35.3423 151.293 35.3423C152.132 35.3423 152.556 34.8537 153.073 34.2793V34.5366C153.073 34.7627 153.104 34.9888 153.128 35.2123H154.651C154.625 34.8901 154.596 34.4821 154.596 34.074V31.6519C154.596 30.5447 154.245 29.6715 152.338 29.6715ZM151.982 34.3131C151.535 34.3131 151.215 34.0818 151.215 33.5257C151.215 32.772 151.883 32.4991 152.746 32.4991H153.073V32.7824C153.073 33.2892 152.985 34.3131 151.982 34.3131Z" fill="#EB690B"/>
<path d="M59.8628 8.72282C60.5619 8.37197 61.1752 8.34338 61.4663 8.34338C63.0438 8.3148 64.3276 9.2478 64.8786 10.7006C65.0008 10.9709 65.1697 11.5192 65.1697 12.3249C65.1697 14.5807 63.7793 15.6307 63.0152 15.9841C62.7163 16.1323 62.2199 16.3064 61.4403 16.3064C59.1844 16.3064 57.8226 14.482 57.794 12.3821C57.794 10.186 59.0987 9.10486 59.8628 8.72282ZM56.978 0.349204L55.7487 3.53544L55.4602 3.71217C54.3609 4.42686 52.0791 6.26687 51.2526 9.76238C50.9798 10.9189 50.9512 11.9376 50.9512 12.3535C50.9512 16.7586 53.3707 20.3035 57.5264 21.7874C59.3742 22.4501 60.9751 22.5073 61.7184 22.5073C67.6984 22.5073 72.0126 18.2451 72.0126 12.2677C72.0126 10.9968 71.8202 9.97808 71.7111 9.54147C70.8872 6.38122 68.6054 4.53861 67.6984 3.93307L67.0305 3.51205L68.2468 0.349204H63.5272L62.8255 2.17362C62.3473 2.12684 61.8665 2.10345 61.3857 2.11385L61.0219 2.11645L61.6976 0.349204H56.978Z" fill="white"/>
<path d="M94.287 11.3269V7.69361H95.3916C96.5533 7.69361 97.7799 7.92231 97.7799 9.46865C97.7799 10.0066 97.6006 10.3731 97.4759 10.5602C96.9769 11.3087 96.1348 11.3269 95.4201 11.3269H94.287ZM95.8386 2.66736H87.834V22.0811H94.287V14.3546L98.1958 22.0811H105.483L100.75 14.248C101.411 14.0089 101.897 13.8218 102.481 13.4216C103.344 12.8004 104.485 11.5893 104.485 9.07882C104.485 7.08287 103.721 5.91337 103.232 5.28964C101.845 3.46782 99.8279 2.85968 97.585 2.72194C97.0055 2.66736 96.4207 2.66736 95.8386 2.66736Z" fill="white"/>
<path d="M39.886 11.3269V7.69361H40.9905C42.1496 7.69361 43.3789 7.92231 43.3789 9.46865C43.3789 10.0066 43.1996 10.3731 43.0748 10.5602C42.5758 11.3087 41.7312 11.3269 41.0191 11.3269H39.886ZM41.4375 2.66736H33.4355V22.0811H39.886V14.3546L43.7947 22.0811H51.082L46.3494 14.248C47.0069 14.0089 47.4955 13.8218 48.0803 13.4216C48.9431 12.8004 50.0814 11.5893 50.0814 9.07882C50.0814 7.08287 49.32 5.91337 48.8288 5.28964C47.4436 3.46782 45.4268 2.85968 43.184 2.72194C42.6044 2.66736 42.0197 2.66736 41.4375 2.66736Z" fill="white"/>
<path d="M17.1113 2.66687V8.28047H21.0227V22.0806H27.9773V8.28047H31.9146V2.66687H17.1113Z" fill="white"/>
<path d="M73.2695 22.0811H86.3965V16.8859H79.6654V14.734H85.7V9.79091H79.6654V7.86254H86.2016V2.66736H73.2695V22.0811Z" fill="white"/>
<path d="M14.1731 3.02848C12.6449 2.42814 10.8569 2.03051 9.20402 2.03051C6.24649 2.03051 3.27336 3.16363 1.91154 5.93924C1.66725 6.43043 1.20204 7.49597 1.20204 8.99813C1.20204 12.4157 3.70997 13.58 4.86908 13.9932C5.64354 14.2427 6.9196 14.5208 7.75124 14.6585L8.20605 14.7547C8.76481 14.8924 9.30278 15.1601 9.30278 15.8436C9.30278 16.5869 8.5387 17.2002 7.27564 17.2002C5.52919 17.2002 3.84771 16.0801 2.51188 15.1575L0.349609 20.2695C2.92771 21.6183 5.2797 22.4214 8.25543 22.4214C10.5736 22.4214 12.4318 21.899 14.1575 20.3657C16.1534 18.5335 16.3977 16.5167 16.3977 15.4512C16.3977 14.1387 16.0469 11.5684 12.8373 10.3184C12.0056 10.0117 10.5632 9.67904 9.70301 9.48412L9.23261 9.39056C8.68684 9.26322 8.09949 9.01112 8.09949 8.33022C8.09949 7.57394 8.7726 7.1971 9.87193 7.16851C11.4235 7.16851 12.7047 7.8884 13.9626 8.63688L15.9351 3.82374C15.5011 3.61583 14.919 3.32216 14.1731 3.02848Z" fill="white"/>
</g>
</g>
<defs>
<clipPath id="clip0_412_70501">
<rect width="155" height="35.6936" fill="white"/>
</clipPath>
</defs>
</svg>
