<svg width="110" height="24" viewBox="0 0 110 24" fill="none" xmlns="http://www.w3.org/2000/svg">
<path d="M95.7196 11.1029C95.8948 11.1489 96.0919 11.2825 96.2452 11.3964L110.001 23.0579H101.239L88.2285 11.1029L100.1 0H108.402L96.2452 10.8072C96.0919 10.954 95.8948 11.0525 95.7196 11.1029Z" fill="#005BAC"/>
<path d="M53.2695 0C53.2695 0 64.5718 0.00654322 68.1859 0.00654322C75.6989 0.00654322 80.5177 4.98085 80.5177 11.5257C80.5177 18.8261 74.6037 23.0623 68.3392 23.0623C64.5937 23.0623 53.2695 23.0623 53.2695 23.0623V0ZM59.1616 18.2085C59.1616 18.2085 63.4328 18.2129 67.9888 18.2085C72.8733 18.1975 74.757 15.3194 74.757 11.5257C74.757 8.06928 73.2676 4.74869 67.6164 4.74429C62.25 4.73994 59.1616 4.74429 59.1616 4.74429V18.2085Z" fill="#005BAC"/>
<path d="M26.6348 14.6184L18.2019 9.74491V0L26.6348 14.6184ZM0 14.6184L8.4548 9.74491V0L0 14.6184ZM13.3174 18.1866L4.88452 23.0623H21.7722L13.3174 18.1866ZM18.2019 0H8.4548L13.3174 4.87354L18.2019 0ZM18.2019 9.74491L13.3174 18.1866L19.9761 16.4014L18.2019 9.74491ZM8.4548 9.74491H18.2019L13.3174 4.87354L8.4548 9.74491ZM19.9761 16.4014L21.7722 23.0623L26.6348 14.6184L19.9761 16.4014ZM8.4548 9.74491L13.3174 18.1866L6.65871 16.4014L8.4548 9.74491ZM6.65871 16.4014L4.88452 23.0623L0 14.6184L6.65871 16.4014Z" fill="#005BAC"/>
<path d="M51.8897 0H24.7949V4.89765H35.2649V23.0623H41.4417V4.89765H51.8897V0Z" fill="#005BAC"/>
<path d="M88.0518 23.0623V0H81.875V23.0623H88.0518Z" fill="#005BAC"/>
</svg>
