<svg width="157" height="38" viewBox="0 0 157 38" fill="none" xmlns="http://www.w3.org/2000/svg">
<g clip-path="url(#clip0_412_70367)">
<path d="M135.169 0C127.013 0 120.297 6.59664 120.297 14.8724C120.297 23.0283 126.894 29.7448 135.169 29.7448C143.325 29.7448 150.042 23.1482 150.042 14.8724C150.042 6.59664 143.325 0 135.169 0ZM146.683 6.59664C145.964 7.07639 145.124 7.55615 144.285 8.0359C143.805 7.07639 143.205 6.11688 142.486 5.27731C143.085 4.91749 143.685 4.43774 144.165 4.07792C145.244 4.67762 146.084 5.63713 146.683 6.59664ZM140.447 1.67914C141.646 2.1589 142.725 2.75859 143.805 3.59817C143.325 4.07792 142.725 4.43774 142.126 4.79755C141.406 3.95798 140.567 3.23835 139.727 2.51872C139.967 2.1589 140.207 1.91902 140.447 1.67914ZM141.646 5.03743C140.806 5.51719 139.967 5.75707 139.127 6.11688C138.767 5.27731 138.408 4.43774 137.928 3.71811C138.408 3.47823 138.887 3.23835 139.247 2.87853C140.087 3.47823 140.926 4.19786 141.646 5.03743ZM139.847 1.43927C139.607 1.67914 139.367 1.91902 139.247 2.1589C138.408 1.67914 137.688 1.19939 136.728 0.839572C137.808 0.839572 138.887 1.07945 139.847 1.43927ZM138.767 2.51872C138.408 2.75859 138.048 2.99847 137.688 3.11841C137.208 2.39878 136.728 1.79908 136.249 1.07945C137.088 1.43927 137.928 1.91902 138.767 2.51872ZM135.409 1.19939C136.009 1.79908 136.489 2.51872 136.968 3.35829C136.489 3.47823 136.009 3.59817 135.409 3.59817V1.19939ZM135.409 4.19786C136.009 4.19786 136.728 4.07792 137.328 3.83804C137.808 4.55768 138.168 5.39725 138.528 6.23682C137.568 6.4767 136.489 6.59664 135.409 6.71658V4.19786ZM134.809 1.19939V3.59817C134.33 3.59817 133.85 3.47823 133.25 3.35829C133.85 2.63866 134.33 1.91902 134.809 1.19939ZM132.771 3.11841C132.411 2.99847 131.931 2.75859 131.691 2.51872C132.531 2.03896 133.37 1.55921 134.21 1.19939C133.61 1.79908 133.13 2.39878 132.771 3.11841ZM133.61 0.719633C132.771 1.07945 131.931 1.55921 131.091 2.03896C130.851 1.79908 130.612 1.55921 130.492 1.31933C131.451 1.07945 132.531 0.839572 133.61 0.719633ZM143.805 26.1467C141.886 25.0672 141.766 23.508 141.886 23.0283C142.006 22.4286 142.366 22.6684 142.606 22.6684C143.925 22.6684 145.244 22.3086 146.923 20.5095C148.842 18.5905 149.442 14.2727 146.444 11.5141C143.325 8.51566 139.967 8.99542 137.808 11.754C137.328 12.3537 136.249 12.7135 135.409 12.7135C133.97 12.7135 134.929 13.793 134.929 14.0328C134.929 14.2727 134.69 14.3927 134.57 14.3927C134.09 14.2727 134.33 14.9924 134.33 15.1123C134.33 15.2322 134.09 15.4721 134.09 15.4721C133.49 15.4721 133.61 15.9519 133.73 16.1917C133.73 16.3117 133.73 16.5516 133.49 16.6715C133.25 16.7914 133.13 17.2712 133.13 17.631C133.13 18.2307 133.73 18.7105 134.69 19.4301C135.649 20.1497 135.769 20.8694 135.769 21.3491C135.769 21.8289 135.889 22.6684 136.009 23.1482C136.249 23.7479 136.249 24.9473 134.929 24.9473C133.25 25.0672 130.372 26.2666 130.132 26.3866C129.172 26.7464 127.973 26.8663 127.013 26.6264C126.534 26.2666 126.054 25.9068 125.574 25.427C125.334 24.8273 125.694 24.1077 126.054 23.628C126.654 24.2277 127.373 24.1077 127.853 24.1077C128.333 24.1077 130.492 23.7479 130.851 23.628C131.211 23.508 131.331 23.508 131.451 23.628C132.291 23.9878 133.49 23.9878 133.97 22.4286C134.45 20.7494 133.37 21.2292 133.13 21.3491C133.01 21.4691 132.771 21.3491 132.89 21.2292C133.13 20.8694 132.771 20.8694 132.651 20.8694C132.171 20.8694 131.571 21.3491 131.451 21.4691C131.211 21.589 131.091 21.589 130.971 21.589C130.372 21.2292 128.573 21.7089 127.973 20.7494C127.973 20.5095 127.493 16.5516 127.253 15.8319C127.253 15.712 127.133 15.4721 127.373 15.2322C127.853 14.5126 129.052 15.2322 129.772 15.2322C130.612 15.2322 130.732 14.8724 130.971 14.6325C131.211 14.3927 131.331 14.5126 131.451 14.3927C131.571 14.2727 131.451 14.1528 131.451 14.0328C131.451 13.9129 131.571 14.0328 131.691 13.9129C131.811 13.793 131.691 13.5531 131.691 13.4332C131.931 13.0733 132.411 13.3132 132.171 12.5936C132.051 12.1138 132.291 11.6341 132.531 11.3942C132.89 10.9144 134.45 8.75554 131.811 6.4767C129.292 4.3178 126.654 4.55768 124.974 6.35676C123.295 8.15584 124.135 10.7945 124.255 11.5141C124.375 12.2338 123.895 12.8335 123.295 13.0733C122.816 13.3132 121.736 14.0328 121.017 14.6325C121.136 8.87548 124.615 3.83804 129.892 1.79908C130.132 2.03896 130.372 2.39878 130.612 2.63866C130.012 3.11841 128.693 4.19786 128.693 4.19786C128.693 4.19786 128.813 4.19786 129.052 4.3178C129.172 4.3178 129.412 4.43774 129.412 4.43774C129.412 4.43774 130.492 3.47823 131.091 3.11841C131.451 3.47823 131.931 3.71811 132.411 3.95798C132.171 4.43774 131.451 5.63713 131.451 5.63713C131.451 5.63713 131.571 5.75707 131.691 5.75707C131.811 5.87701 131.931 5.87701 131.931 5.87701C131.931 5.87701 132.651 4.55768 132.89 4.07792C133.49 4.3178 134.09 4.43774 134.69 4.43774V6.83652C134.33 6.83652 133.49 6.83652 133.13 6.71658H132.89L133.01 6.95645C133.13 7.07639 133.13 7.19633 133.25 7.31627C133.49 7.31627 134.33 7.31627 134.69 7.31627V11.754H135.289V10.6746C136.249 10.6746 136.968 10.5546 137.808 10.4347L138.648 9.71505H138.168C137.208 9.83499 136.369 9.95493 135.649 9.95493C135.649 9.95493 135.409 9.95493 135.289 9.95493V7.19633C136.369 7.19633 137.568 7.07639 138.648 6.71658C138.887 7.43621 139.487 9.23529 139.487 9.23529L140.087 8.99542C140.087 8.99542 139.487 7.19633 139.247 6.4767C140.207 6.23682 141.046 5.75707 141.886 5.39725C142.606 6.23682 143.205 7.19633 143.685 8.15584C143.205 8.39572 142.486 8.6356 142.486 8.6356C143.085 8.75554 143.565 8.87548 143.565 8.87548C143.565 8.87548 143.805 8.75554 143.925 8.75554C143.925 8.87548 144.045 9.11535 144.045 9.11535L144.884 9.47517L144.764 9.23529C144.764 9.23529 144.525 8.6356 144.405 8.51566C145.244 8.15584 146.084 7.67609 146.923 7.07639C148.483 9.35523 149.202 12.1138 149.202 14.8724C149.442 19.4301 147.163 23.508 143.805 26.1467Z" fill="#009EDB"/>
<path d="M118.977 3.95832L118.737 4.1982C117.897 4.91783 115.858 6.95679 116.218 9.23563V9.35557L116.338 9.83532L116.578 9.59545C117.777 8.516 118.737 6.59697 119.096 4.43807L119.216 3.83838L118.977 3.95832Z" fill="#009EDB"/>
<path d="M114.9 7.79621L114.78 8.03609C114.661 8.3959 114.421 9.23547 114.301 10.195C114.061 11.6343 114.181 13.7932 115.38 15.3524L115.5 15.5922L115.62 15.8321L115.86 14.8726C116.1 13.1935 115.74 9.71523 115.14 8.15603L114.9 7.67627V7.79621Z" fill="#009EDB"/>
<path d="M113.463 13.7934V14.0333C113.343 15.4726 113.463 19.1907 116.461 21.2296L116.821 21.4695V20.9897C116.821 19.5505 115.142 15.3526 113.942 13.9133L113.583 13.4336L113.463 13.7934Z" fill="#009EDB"/>
<path d="M113.941 20.3898V20.6297C114.421 22.7886 116.34 26.1468 119.459 27.2263L119.938 27.3462L119.818 26.8665C119.219 25.3073 116.22 21.5892 114.301 20.3898L113.941 20.1499V20.3898Z" fill="#009EDB"/>
<path d="M120.296 7.1966L119.936 7.31654C117.658 8.7558 116.578 10.4349 116.578 12.5938V13.0736L116.938 12.8337C118.137 11.7543 119.816 9.11562 120.176 7.67635L120.296 7.07666V7.1966Z" fill="#009EDB"/>
<path d="M118.86 11.7542L118.74 11.9941C118.14 12.5938 116.221 14.6328 116.341 17.1515C116.341 17.5113 116.461 17.991 116.581 18.3509L116.701 18.7107L116.941 18.3509C117.901 17.0315 119.1 13.6732 118.98 12.114V11.6343L118.86 11.7542Z" fill="#009EDB"/>
<path d="M118.981 16.1922L118.861 16.4321C117.902 17.8713 117.422 19.3106 117.422 20.7499C117.422 21.7094 117.782 22.6689 118.381 23.6284L118.621 23.9882L118.741 23.6284C119.101 22.7888 119.461 20.2701 119.461 18.2312C119.461 17.5115 119.341 16.9118 119.221 16.552L119.101 16.0723L118.981 16.1922Z" fill="#009EDB"/>
<path d="M120.059 20.8698L119.939 21.1096C119.699 22.0691 119.459 22.9087 119.579 23.8682C119.579 25.7873 120.538 27.3465 122.217 28.4259L122.457 28.5458L122.577 28.186V27.8262C122.577 26.267 121.378 22.1891 120.418 20.9897L120.178 20.6299L120.059 20.8698Z" fill="#009EDB"/>
<path d="M116.819 27.1068L116.939 27.3466C118.138 29.3856 120.297 32.1442 124.255 31.4246H124.615L124.375 31.1847C123.656 30.1052 118.858 27.3466 117.179 27.1068L116.699 26.9868L116.819 27.1068Z" fill="#009EDB"/>
<path d="M122.697 32.384L122.098 32.5039L122.697 32.7438C125.216 33.8233 128.334 34.0631 130.253 33.4635C130.973 33.2236 131.333 32.8638 131.813 32.384C135.051 32.7438 138.05 35.3825 139.849 37.5414L139.969 37.6613H140.088C140.328 37.5414 140.568 37.3015 140.688 37.1816L140.808 37.0616L140.688 36.9417C138.889 34.5429 136.011 33.1036 135.891 32.9837C133.252 31.7843 128.694 30.8248 122.697 32.384Z" fill="#009EDB"/>
<path d="M122.819 25.6673V25.9072C123.179 28.306 124.138 31.4244 128.216 31.0646H128.456L128.336 30.8247C128.096 29.7452 124.378 26.6268 123.059 25.7872L122.699 25.5474L122.819 25.6673Z" fill="#009EDB"/>
<path d="M151.125 3.71875L151.245 4.31844C151.605 6.47734 152.564 8.39637 153.764 9.47582L154.004 9.71569L154.123 9.23594V9.116C154.483 6.83716 152.444 4.7982 151.605 4.07857L151.365 3.83869L151.125 3.71875Z" fill="#009EDB"/>
<path d="M155.322 7.55664L155.082 8.0364C154.482 9.5956 154.242 13.0738 154.362 14.753L154.602 15.7125L154.722 15.5925L154.842 15.3527C156.161 13.7935 156.161 11.7545 155.921 10.1953C155.801 9.11585 155.561 8.39621 155.441 8.0364L155.322 7.79652V7.55664Z" fill="#009EDB"/>
<path d="M156.879 13.5537L156.519 14.0335C155.32 15.5927 153.641 19.6706 153.641 21.1099V21.5896L154 21.3497C156.999 19.4307 157.119 15.7126 156.999 14.1534V13.9135L156.879 13.5537Z" fill="#009EDB"/>
<path d="M156.402 20.1499L155.922 20.3898C154.003 21.5892 151.005 25.3073 150.405 26.8665L150.285 27.3462L150.765 27.2263C153.883 26.2668 155.922 22.7886 156.282 20.6297V20.3898L156.402 20.1499Z" fill="#009EDB"/>
<path d="M150.043 6.95654L150.163 7.55624C150.643 9.11544 152.082 11.7541 153.401 12.8335L153.761 13.0734V12.5937C153.881 10.4348 152.802 8.75563 150.523 7.31636L150.283 7.19642L150.043 6.95654Z" fill="#009EDB"/>
<path d="M151.363 11.6343V12.114C151.243 13.6732 152.563 17.1515 153.402 18.3509L153.642 18.7107L153.762 18.3509C153.882 17.8711 154.002 17.5113 154.002 17.1515C154.122 14.6328 152.203 12.5938 151.603 11.9941L151.483 11.8742L151.363 11.6343Z" fill="#009EDB"/>
<path d="M151.243 15.9521L151.123 16.4319C151.003 16.7917 150.883 17.3914 150.883 18.111C150.883 20.15 151.123 22.6687 151.602 23.5083L151.722 23.8681L151.962 23.5083C152.562 22.6687 152.922 21.7092 152.922 20.6298C152.922 19.3104 152.442 17.7512 151.483 16.312L151.363 16.0721L151.243 15.9521Z" fill="#009EDB"/>
<path d="M150.164 20.6299L149.925 20.9897C148.965 22.1891 147.766 26.267 147.766 27.8262C147.766 27.8262 147.766 28.0661 147.766 28.186L147.886 28.5458L148.125 28.4259C149.805 27.3465 150.644 25.7873 150.764 23.8682C150.764 23.0287 150.644 22.0691 150.404 21.1096L150.284 20.8698L150.164 20.6299Z" fill="#009EDB"/>
<path d="M153.643 26.8667L153.163 26.9866C151.484 27.2265 146.686 29.9851 145.966 31.0646L145.727 31.3044H146.086C150.044 32.0241 152.203 29.2655 153.403 27.2265L153.523 26.9866L153.643 26.8667Z" fill="#009EDB"/>
<path d="M134.57 32.9837C134.45 32.9837 131.571 34.5429 129.772 36.9417L129.652 37.0616L129.772 37.1816C129.892 37.3015 130.252 37.5414 130.372 37.6613H130.492L130.612 37.5414C132.411 35.3825 135.409 32.6239 138.648 32.384C139.128 32.8638 139.607 33.2236 140.207 33.4635C142.006 34.0631 145.244 33.8233 147.763 32.7438L148.363 32.5039L147.763 32.384C141.646 30.8248 137.089 31.7843 134.57 32.9837Z" fill="#009EDB"/>
<path d="M147.523 25.4272L147.163 25.6671C145.844 26.5067 142.245 29.6251 141.886 30.7046L141.766 30.9444H142.006C145.963 31.3042 146.923 28.1858 147.403 25.7871V25.5472L147.523 25.4272Z" fill="#009EDB"/>
<path d="M46.2949 1.43945H51.3324V5.99713H46.2949V1.43945ZM46.7747 11.2744H50.9725V33.5831H46.7747V11.2744Z" fill="#009EDB"/>
<path d="M14.9924 11.2744H19.1902V33.583H15.1123V30.3447H14.9924C13.3132 33.1033 10.4347 34.3027 7.31627 34.3027C2.63865 34.3027 0 30.7045 0 26.2668V11.2744H4.19786V24.4677C4.19786 28.3057 5.03743 31.1843 9.11535 31.1843C10.7945 31.1843 13.1933 30.3447 14.0328 27.9459C14.8724 25.907 14.8724 23.2683 14.8724 22.6686V11.2744H14.9924Z" fill="#009EDB"/>
<path d="M27.5846 14.5132C29.1438 11.7546 32.1423 10.5552 34.4211 10.5552C35.9803 10.5552 42.8168 10.915 42.8168 18.1113V33.4635H38.619V19.4307C38.619 15.7125 37.0598 13.7935 33.4616 13.7935C33.4616 13.7935 31.1827 13.6736 29.3837 15.4727C28.784 16.0724 27.5846 17.0319 27.5846 21.4696V33.5834H23.3867V11.2748H27.5846V14.5132Z" fill="#009EDB"/>
<path d="M68.6052 18.3512C68.3653 15.5926 67.046 13.6736 64.0475 13.6736C60.0895 13.6736 58.5303 17.1518 58.5303 22.3092C58.5303 27.4666 60.0895 30.9448 64.0475 30.9448C66.8061 30.9448 68.4853 29.1457 68.7251 25.9074H72.923C72.5632 30.9448 68.8451 33.9433 63.9276 33.9433C56.8512 33.9433 53.9727 28.9058 53.9727 22.4291C53.9727 15.9524 57.211 10.5552 64.2874 10.5552C68.965 10.5552 72.4432 13.5536 72.6831 18.3512H68.6052Z" fill="#009EDB"/>
<path d="M79.1604 23.1484C78.8006 26.9865 80.4797 31.0644 84.6776 31.0644C87.9159 31.0644 89.5951 29.7451 90.0748 26.5067H94.5126C93.7929 31.5442 89.9549 34.0629 84.6776 34.0629C77.6012 34.0629 74.7227 29.0255 74.7227 22.5488C74.7227 16.0721 77.961 10.6748 85.0374 10.6748C91.634 10.7947 94.7525 14.9926 94.7525 21.1095V23.1484H79.1604ZM90.4347 20.2699C90.5546 16.5518 88.8754 13.6733 84.7975 13.6733C81.3193 13.6733 79.2803 16.6717 79.2803 20.2699H90.4347Z" fill="#009EDB"/>
<path d="M99.549 33.3431V14.1528H95.7109V11.2743H99.549V6.47675C99.6689 1.67919 103.387 0.359863 106.505 0.359863C107.465 0.359863 108.544 0.599741 109.504 0.839619V4.31785C108.784 4.31785 108.065 4.19791 107.345 4.19791C104.946 4.19791 103.627 4.7976 103.747 7.19638V11.2743H108.904V14.1528H103.747V33.3431H99.549Z" fill="#009EDB"/>
</g>
<defs>
<clipPath id="clip0_412_70367">
<rect width="157" height="37.7807" fill="white"/>
</clipPath>
</defs>
</svg>
