<svg width="1080" height="1080" viewBox="0 0 1080 1080" fill="none" xmlns="http://www.w3.org/2000/svg">
<path d="M26 540C26 253.364 258.364 21 545 21V21C831.636 21 1064 253.364 1064 540V540C1064 826.636 831.636 1059 545 1059V1059C258.364 1059 26 826.636 26 540V540Z" fill="#6400FF"/>
<path d="M619.856 271.818C470.863 271.818 350.066 391.874 350.066 540.011H425.014C425.014 433.197 512.408 346.325 619.856 346.325C727.304 346.325 814.698 433.229 814.698 540.011H889.647C889.647 391.906 768.849 271.818 619.856 271.818Z" fill="#FAFAFA"/>
<path d="M470.143 808.181C619.135 808.181 739.933 688.125 739.933 539.988H664.984C664.984 646.802 577.591 733.674 470.143 733.674C362.694 733.674 275.301 646.771 275.301 539.988H200.352C200.352 688.094 321.15 808.181 470.143 808.181Z" fill="#FAFAFA"/>
</svg>
