<?xml version="1.0" encoding="UTF-8"?>
<svg id="Logo" xmlns="http://www.w3.org/2000/svg" viewBox="0 0 1920 3991.26">
  <g id="soukosumi">
    <g>
      <path d="M1634.31,2469.22c-76.63,19.17-141.96,47.9-196.04,86.19-7.9,27.04-13.52,56.91-16.9,89.57-3.39,32.69-7.34,62.53-11.84,89.57-4.51,27.04-12.41,46.21-23.66,57.46-18.03,15.79-47.32,24.8-87.88,27.04-40.56,2.27-85.64,2.83-135.2,1.69-29.31-1.11-58.89-1.69-88.73-1.69s-59.44,1.14-88.72,3.38c-3.39,2.27-5.37,7.06-5.92,14.37-.58,7.33-.84,14.36-.84,21.13,0,10.13-.58,16.34-1.69,18.58,16.91,6.77,33.81,9.3,50.7,7.61,16.9-1.68,34.35-4.22,52.4-7.61,9-1.1,18.3-2.52,27.88-4.22,9.55-1.69,19.43-3.09,29.58-4.23,31.52-1.1,62.53,3.12,92.95,12.68,30.42,9.59,59.15,19.43,86.19,29.58,6.75,3.38,13.78,6.49,21.13,9.29,7.31,2.83,14.36,5.37,21.13,7.61-9.04,18.03-25.94,29.58-50.7,34.65-24.8,5.07-52.4,7.61-82.82,7.61h-40.56c-21.41-1.11-45.07-1.69-70.98-1.69s-50.44.84-73.51,2.54c-23.11,1.69-40.86,4.81-53.24,9.3-7.89,3.38-14.1,10.98-18.59,22.81-4.51,11.83-6.75,21.71-6.75,29.58h51.55c17.46,0,35.19.58,53.24,1.68,55.19,1.14,108.71.85,160.55-.84,51.81-1.68,94.06-11.54,126.75-29.58,22.52,10.14,46.74,17.49,72.66,21.97,25.91,4.51,50.97,9.04,75.21,13.52,24.22,4.51,45.35,12.42,63.38,23.66,18,11.28,30.42,28.73,37.17,52.39-34.93,12.42-75.49,17.75-121.68,16.06-46.21-1.68-89.57-4.78-130.13-9.29,18.01,16.9,39.14,30.71,63.38,41.4,24.21,10.72,49.01,21.13,74.36,31.27,25.36,10.14,47.03,23.11,65.07,38.87,0,18.03,2.8,30.71,8.45,38.03,5.63,7.34,12.68,14.95,21.13,22.82,8.45,7.89,16.61,22.55,24.5,43.94-4.51,11.27-14.94,20.85-31.26,28.72-16.35,7.9-37.48,10.72-63.38,8.46-9.03-1.11-23.65-9.86-43.94-26.2-20.27-16.32-40.85-35.49-61.69-57.46-20.85-21.97-38.6-41.96-53.23-60.01-11.28-15.76-20.02-30.96-26.2-45.62-6.21-14.64-13.26-28.16-21.13-40.56-7.89-12.38-20.85-21.97-38.87-28.73-29.31,1.14-54.38,1.69-75.21,1.69s-41.4-.56-61.69-1.69h-69.28c16.9,13.52,33.22,30.16,49.01,49.85,15.76,19.73,27.3,41.99,34.65,66.76,7.31,24.8,6.46,53.52-2.54,86.19-5.65,10.14-11.28,15.5-16.91,16.06-5.65.58-11.83.28-18.58-.84-3.39-1.11-7.34-2.25-11.84-3.39-4.51-1.1-9.59-1.1-15.2,0-14.66-10.13-25.64-23.65-32.96-40.56-7.33-16.9-14.36-33.8-21.12-50.69-6.77-16.91-17.49-30.43-32.11-40.56,12.38-9.01,18.3-21.13,17.74-36.34-.58-15.2-3.12-28.44-7.61-39.71-20.27-1.11-40.56-1.11-60.84,0-20.27,1.13-40,2.82-59.15,5.06-23.66,2.27-47.05,3.97-70.14,5.07-23.11,1.14-45.36-.55-66.75-5.07,2.24,16.91,8.15,30.43,17.74,40.56,9.56,10.14,19.43,20.02,29.58,29.58,10.14,9.59,16.32,22.82,18.59,39.72,31.53-7.87,62.23-3.93,92.11,11.83,29.84,15.79,55.78,36.63,77.74,62.53,21.97,25.94,35.75,50.7,41.4,74.37h1.69c24.77,2.27,48.43,2.54,70.98.84,22.53-1.68,47.32-10.98,74.36-27.88,116.03,7.89,202.8,45.07,260.26,111.54-37.17,6.77-72.4,10.72-105.63,11.83-33.24,1.14-68.44,1.69-105.63,1.69-27.04,0-55.76.3-86.18.84-30.43.59-64.22,2.54-101.41,5.92-12.41,5.65-19.73,13.52-21.97,23.65-2.27,10.14-5.36,18.89-9.29,26.2-3.97,7.34-14.37,10.98-31.27,10.98-2.27,7.89,2.24,11.83,13.52,11.83,7.87,0,12.38,1.14,13.52,3.39-2.27,9.03-11.28,13.52-27.04,13.52,11.25,10.13,25.35,17.18,42.25,21.12,16.9,3.97,35.49,5.92,55.76,5.92,13.52,0,27.6-.27,42.25-.85,14.62-.55,29.84-1.4,45.63-2.54,19.14-1.1,38.87-1.95,59.14-2.54,20.29-.55,39.98-.26,59.15.85,5.63,0,7.32-3.38,5.07-10.14-2.27-7.87,0-12.38,6.77-13.52,39.42,1.14,80.53,5.65,123.37,13.52,42.81,7.89,82.24,19.73,118.31,35.49,36.05,15.76,63.63,37.74,82.8,65.91-14.65,18.01-31,27.31-49.01,27.89-18.03.55-38.87-.85-62.53-4.23-9.03-1.14-18.88-2.54-29.58-4.22-10.72-1.69-21.71-2.54-32.95-2.54-3.38,0-9.59,1.1-18.59,3.38-10.13,3.38-16.9,4.49-20.27,3.38-7.9-1.14-15.5-3.67-22.82-7.61-7.33-3.96-14.36-6.49-21.12-7.6-92.4-9.04-189.28-11.28-290.69-6.77-101.4,4.49-197.18,10.7-287.3,18.59-38.31,3.38-77.73,6.75-118.29,10.14-40.56,3.38-73.81,15.2-99.71,35.49-47.33,7.87-86.77,1.1-118.31-20.29-31.55-21.41-61.43-45.63-89.57-72.67-6.77-5.65-13.26-11.56-19.43-17.74-6.21-6.21-12.68-12.12-19.43-17.75,39.42,3.39,67.01,5.07,82.8,5.07,32.67,0,67.86-1.68,105.63-5.07,37.74-3.38,76.31-7.31,115.77-11.83,47.32-4.49,93.8-8.71,139.42-12.68,45.63-3.93,85.91-4.78,120.84-2.54,6.77-9,9.29-20.54,7.61-34.64-1.69-14.08-3.67-27.89-5.91-41.41-1.14-6.75-2.27-12.94-3.39-18.59-1.13-5.62-1.68-10.69-1.68-15.2-61.98,1.14-114.08,3.38-156.33,6.75-42.25,3.39-84.24,6.77-125.9,10.14-21.42-14.62-41.15-30.68-59.15-48.17-18.03-17.46-37.76-33.51-59.15-48.16,39.42-7.87,79.14-12.68,119.15-14.37,39.98-1.68,81.38-2.54,124.22-2.54,23.66,0,47.87-.26,72.67-.84,24.77-.56,50.11-1.4,76.05-2.54,9.01-4.49,14.92-10.98,17.74-19.43,2.8-8.45,4.79-17.75,5.91-27.88-12.41-3.39-21.41-11.26-27.04-23.66-5.65-12.38-10.98-25.62-16.06-39.72-5.06-14.08-13.25-23.93-24.5-29.58-9.03,28.18-14.65,53.24-16.9,75.21-2.27,21.97-16.34,38.6-42.24,49.85-24.8-9-41.7-21.67-50.7-38.03-9.03-16.32-15.21-34.35-18.59-54.08-3.38-19.7-10.14-37.43-20.27-53.23l13.52-11.84c-1.14-13.52-1.69-27.3-1.69-41.4s2.24-27.3,6.75-39.72c-27.04-5.62-51.55-7.02-73.51-4.22-21.97,2.82-43.68,7.05-65.07,12.68-15.79,3.38-32.11,6.75-49.01,10.13-16.9,3.39-35.49,4.51-55.76,3.39,13.52,15.78,23.65,35.22,30.42,58.3,6.75,23.11,16.9,42.54,30.42,58.31-21.41,12.41-39.72,31-54.92,55.76-15.21,24.8-31.55,48.75-49.01,71.83-17.49,23.11-40.86,38.6-70.14,46.47-19.17-10.14-32.11-23.93-38.88-41.4-6.75-17.46-11.27-36.05-13.52-55.78-2.26-19.7-7.89-37.45-16.9-53.24,37.18-15.76,66.76-38.29,88.73-67.6,21.97-29.28,47.03-55.19,75.21-77.73-23.66-14.64-48.46-28.73-74.37-42.25-25.93-13.52-45.07-24.21-57.46-32.11,51.81-16.9,107.58-27.04,167.31-30.42,59.7-3.38,120.55-5.63,182.52-6.77,34.91,0,69.85-.55,104.78-1.68,34.91-1.11,69.28-3.38,103.09-6.77,5.63-16.9,9.56-33.22,11.83-49.01-38.31-5.62-77.73-7.61-118.29-5.91-40.56,1.69-78.88.3-114.93-4.22-29.31-4.49-56.06-12.68-80.27-24.52-24.24-11.83-44.23-30.68-60.01-56.61,25.9,4.51,53.8,6.2,83.66,5.06,29.84-1.1,62.25-3.38,97.18-6.75,29.29-2.24,60.26-4.23,92.95-5.91,32.67-1.69,67.02-1.96,103.1-.85,0-4.48-.59-9.55-1.69-15.2-1.14-5.63-2.83-11.25-5.07-16.9-1.14-4.49-2.54-9.01-4.23-13.52-1.68-4.49-2.52-9.01-2.52-13.52-38.32-5.63-80.58-5.92-126.75-.85-46.21,5.07-83.4,13.82-111.54,26.2-25.94-10.14-52.68-19.43-80.28-27.88-27.62-8.45-50.44-21.68-68.44-39.72v-69.29c1.1-33.8,1.4-70.14.84-109.01-.58-38.87-5.91-76.89-16.06-114.08-20.27-13.52-40.56-27.04-60.84-40.56-20.29-13.52-36.63-30.98-49.02-52.39,3.39,0,9.01-1.69,16.91-5.07,10.13-2.25,21.97-4.78,35.49-7.61,13.52-2.8,28.14-1.4,43.94,4.22,50.7-15.76,110.7-25.9,179.99-30.42,69.28-4.49,141.96-7.32,218.01-8.45,76.05-1.11,150.12-3.93,222.24-8.45v16.9c100.27-20.28,197.73-29.58,292.37-27.89,94.64,1.69,188.15,26.78,280.55,75.21,1.1,2.27,2.24,5.65,3.38,10.14,3.38,6.76,5.62,13.81,6.75,21.13,1.11,7.34-1.68,16.06-8.45,26.19ZM845.08,2440.49c-40.56,3.38-80.86,5.36-120.84,5.91-40,.58-79.17,5.92-117.45,16.06-5.65,14.66-6.5,32.11-2.54,52.39,3.93,20.28,8.15,37.76,12.68,52.39,34.91-9.01,74.06-13.23,117.45-12.68,43.36.58,80.83-4.78,112.38-16.06l-1.68-98.02ZM853.52,2751.46c-1.14-13.52-1.69-32.37-1.69-56.62s-2.26-45.34-6.75-63.38c-42.83,2.27-83.95,4.8-123.38,7.61-39.45,2.83-73.8,8.18-103.09,16.05v27.04c-1.14,13.52-1.14,26.78,0,39.72,1.11,12.96,6.19,24.5,15.21,34.64,18.01-2.24,35.75-3.38,53.23-3.38h107.32c18.01,0,37.74-.56,59.15-1.69ZM1267.58,2418.52c-45.07,2.27-95.48,4.22-151.26,5.91-55.78,1.69-110.14,3.12-163.08,4.22,9.01,13.52,17.16,29.31,24.5,47.32,7.31,18.03,8.15,36.07,2.54,54.08,30.42,2.27,61.1,6.76,92.11,13.52,30.98,6.76,58.3,15.79,81.96,27.04,23.66,11.27,39.42,25.35,47.32,42.25-9.03,1.14-18.03,1.98-27.04,2.54-9.03.58-18.03,1.43-27.03,2.54-24.8,3.38-50.7,6.2-77.74,8.45-27.04,2.27-54.08,2.27-81.12,0-6.77,13.52-10.72,27.89-11.84,43.1-1.13,15.21-1.68,29.58-1.68,43.1,0,5.65-.3,10.72-.84,15.21-.59,4.51-.85,9.03-.85,13.52,10.14,1.14,22.82,1.43,38.03.85,15.21-.56,31.83-1.4,49.86-2.54,29.28-2.25,60.84-3.65,94.64-4.22,33.8-.56,64.77,3.12,92.95,10.98,2.24-11.25,4.49-22.24,6.75-32.96,2.25-10.69,4.49-21.12,6.77-31.26,10.14-47.32,17.74-92.95,22.81-136.89,5.07-43.94-.84-86.19-17.74-126.75Z"/>
      <path d="M1662.14,3947.28c-112.08-27.89-188.18-42.98-322.33-43.65-72.74-.06-218.36-.17-395.88-.31-187.98,0-392.84,0-603.74-.01-26.36,0-52.82,0-79.35,0-22.39-.1-42.6-3.51-62.64-11.02-39.61-14.7-73.5-45.22-92.34-83.33-9.49-19-15.31-39.75-17.17-60.96l-.77-16.33v-20.07s0-40.12,0-40.12c0-53.46-.01-106.8-.02-159.83-.06-424.25-.13-829.24-.17-1128.18,0-18.65,0-36.89.01-54.7.59-14.21,1.65-28.1,5.3-41.07,6.57-26.06,18.71-49.18,34.13-67.5,31.15-36.86,71.66-54.74,105.11-59.11,8.35-1.75,16.49-1.49,24.05-2.09,9.37-.04,18.15-.07,26.3-.1,16.56,0,30.61,0,41.98,0,22.75,0,34.81,0,34.81,0,0,0,192.87.04,491.8.1,149.46.03,325.44.06,517.09.09,95.56.08,195.02.16,297.04.24,40.85.27,81.26,16.78,111.82,44.98,30.7,28.13,50.57,67.97,54.15,109.99l.77,16.1v19.93s0,39.92,0,39.92c0,26.64,0,53.34,0,80.07,0,53.46,0,107.06-.01,160.61,0,107.11-.01,214.07-.02,319.52,0,209.17,0,412.36.01,598.8.04,44.33.07,84.67.1,118.47.03,16.9.06,32.17.09,45.48.02,6.66.04,12.82.06,18.46-.2,4.62-.38,8.82-.53,12.54-1.47,26.71-7.78,50.01-16.62,70.75-8.91,20.75-20.35,39-33.93,55.63-13.64,16.59-29.47,31.66-48.78,44.94-19.31,13.2-42.25,24.66-70.31,31.76,56.23,13.58,113.06,3.25,161.1-28.34,23.99-15.94,45.98-37.62,63.29-65.85,17.24-28.13,29.73-63.14,32.37-103.44.27-5.29.71-11.93.83-18,.02-5.64.04-11.8.06-18.46.03-13.31.06-28.58.09-45.48.03-33.8.06-74.15.1-118.47,0-186.44,0-389.62.01-598.8,0-105.45-.01-212.41-.02-319.52,0-53.56,0-107.15-.01-160.61,0-26.73,0-53.43,0-80.07v-39.92s0-19.93,0-19.93c-.2-7.46-.68-15.81-1.1-23.66-5.37-63.81-35.74-124.57-82.15-166.99-46.09-42.72-108.08-67.69-169.72-68.18-102.58-.06-202.59-.11-298.67-.17-191.64.03-367.62.06-517.09.09-298.93.06-491.8.1-491.8.1,0,0-12.05,0-34.81,0-11.38,0-25.43,0-41.98,0-8.4.03-17.43.06-27.07.09-11.41.63-23.6.65-36.3,3.05-50.69,6.82-112.34,33.75-159.21,89.48-23.26,27.66-41.88,62.64-51.86,102.28-5.36,19.75-7.33,40.75-7.94,62.14-.01,17.86-.02,36.16-.03,54.87-.05,298.93-.11,703.93-.17,1128.18,0,53.03-.01,106.36-.02,159.83v40.12s0,20.07,0,20.07c.15,7.34.67,15.9,1.08,23.78,2.77,32.13,11.64,63.84,26.07,92.72,28.68,57.93,79.75,103.97,140.11,126.44,29.83,11.41,62.89,16.69,93.56,16.64,26.53,0,52.99,0,79.35,0,210.9,0,415.77,0,603.74-.01,177.52-.14,323.14-.25,395.88-.31,134.15-.68,210.24-15.77,322.33-43.66Z"/>
    </g>
    <g>
      <path d="M257.86,43.98c112.08,27.89,188.18,42.98,322.33,43.65,72.74.06,218.36.17,395.88.31,187.98,0,392.84,0,603.74.01,26.36,0,52.82,0,79.35,0,22.39.1,42.6,3.51,62.64,11.02,39.61,14.7,73.5,45.22,92.34,83.33,9.49,19,15.31,39.75,17.17,60.96l.77,16.33v20.07s0,40.12,0,40.12c0,53.46.01,106.8.02,159.83.06,424.25.13,829.24.17,1128.18,0,18.65,0,36.89-.01,54.7-.6,14.21-1.65,28.1-5.3,41.07-6.57,26.06-18.71,49.18-34.13,67.5-31.15,36.86-71.66,54.74-105.11,59.11-8.35,1.75-16.49,1.49-24.05,2.09-9.37.04-18.15.07-26.3.1-16.56,0-30.61,0-41.98,0-22.75,0-34.81,0-34.81,0,0,0-192.87-.04-491.8-.1-149.46-.03-325.44-.06-517.09-.09-95.56-.08-195.02-.16-297.04-.24-40.85-.27-81.26-16.78-111.82-44.98-30.7-28.13-50.57-67.97-54.15-109.99l-.77-16.1v-19.93s0-39.92,0-39.92c0-26.64,0-53.34,0-80.07,0-53.46,0-107.06.01-160.61,0-107.11.01-214.07.02-319.52,0-209.17,0-412.36-.01-598.8-.04-44.33-.07-84.67-.1-118.47-.03-16.9-.06-32.17-.09-45.48-.02-6.66-.04-12.82-.06-18.46.2-4.62.38-8.82.53-12.54,1.47-26.71,7.78-50.01,16.62-70.75,8.91-20.75,20.35-39,33.93-55.63,13.64-16.59,29.47-31.66,48.78-44.94,19.31-13.2,42.25-24.66,70.31-31.76-56.23-13.58-113.06-3.25-161.1,28.34-23.99,15.94-45.98,37.62-63.3,65.85C16.22,166.3,3.73,201.3,1.09,241.6c-.27,5.29-.71,11.93-.83,18-.02,5.64-.04,11.8-.06,18.46-.03,13.31-.06,28.58-.09,45.48-.03,33.8-.06,74.15-.1,118.47,0,186.44,0,389.62-.01,598.8,0,105.45.01,212.41.02,319.52,0,53.56,0,107.15.01,160.61,0,26.73,0,53.43,0,80.07v39.92s0,19.93,0,19.93c.2,7.46.68,15.81,1.1,23.66,5.37,63.81,35.74,124.57,82.15,166.99,46.09,42.72,108.08,67.69,169.72,68.18,102.58.06,202.59.11,298.67.17,191.64-.03,367.62-.06,517.09-.09,298.93-.06,491.8-.1,491.8-.1,0,0,12.05,0,34.81,0,11.38,0,25.43,0,41.98,0,8.4-.03,17.43-.06,27.07-.09,11.41-.63,23.6-.65,36.3-3.05,50.69-6.82,112.34-33.75,159.21-89.48,23.26-27.66,41.88-62.64,51.86-102.28,5.36-19.75,7.33-40.75,7.94-62.14.01-17.86.02-36.16.03-54.87.05-298.93.11-703.93.17-1128.18,0-53.03.01-106.36.02-159.83v-40.12s0-20.07,0-20.07c-.15-7.34-.67-15.9-1.08-23.78-2.77-32.13-11.64-63.84-26.07-92.72-28.68-57.93-79.75-103.97-140.11-126.44C1722.88,5.23,1689.83-.04,1659.15,0c-26.53,0-52.99,0-79.35,0-210.9,0-415.77,0-603.74.01-177.52.14-323.14.25-395.88.31-134.15.68-210.24,15.77-322.33,43.66Z"/>
      <path d="M1349.84,1586.76c-1.48-2.97-3.58-5.52-6.27-7.6-.12-.16-.26-.39-.4-.68-.01,0-.17-.55-.17-1.96,0-5.51-4.02-10.21-9.47-11.06-17.06-2.66-31.67-6.52-43.43-11.5-12.86-5.43-26.1-10.37-39.33-14.69-14.02-4.57-31.39-6.89-51.63-6.89-2.42,0-4.78.78-6.71,2.24-4.66,3.49-7.39,7.61-8.12,12.11-.15.9-.28,1.8-.38,2.76-10.73-.69-20.65-1.05-29.58-1.05h-31.66c-14.15-.55-28.17-.97-42.05-1.27-10.95-.21-23.08-1.09-36.17-2.62-.27-2.84-.34-5.51-.2-7.98.04-.94.2-1.83.46-2.67,8.59.22,17.54-.01,26.8-.7,11.18-.85,22.09-1.54,33.46-2.16,13.72-1.64,26.94-2.76,39.29-3.31,11.49-.51,21.39.24,29.34,2.22,3.47.83,7.19-.3,9.95-2.65,1.66-1.41,2.84-3.37,3.45-5.49,4.7-.23,8.86-3.43,10.21-8.11,3.49-12.2,6.56-26.26,9.15-41.79,2.46-14.77,5.91-29.82,10.26-44.76,4.08-14,10.49-26.47,19.08-37.06,2.22-2.75,2.58-6.47,1.66-9.87,8.15-1.61,14.59-3.14,19.51-4.64,6.27-1.91,17.32-4.84,32.84-8.72,4.97-1.25,8.47-5.72,8.47-10.86,0-3.22-.73-6.56-2.17-9.89-.91-2.14-1.99-4.45-2.95-6.37-1.05-2.42-1.9-4.85-2.55-7.28,3.25-2.09,5.21-5.73,5.14-9.65-.1-4.33-2.67-8.21-6.62-9.98-16.65-7.45-32.17-13.68-46.1-18.53-14.02-4.86-28.25-9.46-42.29-13.66-14.17-4.26-30.58-8.93-49.28-14.03-2.55-.69-5.28-.46-7.68.66-16.7,7.83-35.81,12.45-56.79,13.76-17.28,1.11-32.24-1.21-44.46-6.85l.24-6.19c14.41-2.76,29.77-4.49,45.81-5.17,35.69-1.51,72.69-1.03,110.84-1.68,17.13-.28,34.49-1.29,51.62-3.01,3.1-.31,5.94-1.9,7.81-4.39,1.88-2.49,2.63-5.65,2.09-8.72-3.45-19.31-12.12-32.66-25.76-39.67-11.45-5.88-24.71-9.95-39.41-12.1-12.48-1.81-24.88-5.38-36.86-10.6-4.14-1.79-8.95-.94-12.22,2.19-11.37,10.9-24.54,16.06-40.51,15.48-18.34-.54-37.7-2.21-57.49-4.97-.51-.07-1.02-.15-1.5-.22.24-.98.58-2.02,1.02-3.12.2-.48.35-.97.48-1.47.58-2.32,1.16-4.81,1.76-7.48.73-3.33,1.1-7.13,1.1-11.28,0-2.15-.62-4.25-1.78-6.05-5.45-8.47-12.38-15.64-20.64-21.35,28.21-2,54.69-3.22,79.01-3.64,32.26-.57,65.43-.14,98.63,1.26,33.08,1.39,69.97,4.08,109.65,7.98,3.01.35,6.02-.64,8.32-2.59,2.32-1.96,3.74-4.76,3.95-7.78,1.39-20.15-5.01-36.01-19-47.13-12.24-9.74-27.96-16.86-46.71-21.17-17.32-3.97-34.96-7.13-52.42-9.41-4.18-.99-6.77-1.35-9.43-.78-20.65,4.37-41.71,6.84-62.62,7.37-21.4.55-43.52.56-66.04,0h-45.55c1.54-4.19,2.8-8.06,3.61-10.99,2.9-7.55,5.41-14.94,7.48-22.01,2.45-8.42,2.96-16.68,1.53-24.57-2.89-15.8-11.6-27.81-25.9-35.69-12.59-6.91-27.86-11.2-45.39-12.74-16.73-1.46-33.79-1.32-50.73.43-16.9,1.75-31.76,4.44-44.16,7.98-3.37.96-6.09,3.44-7.36,6.71-1.27,3.26-.94,6.93.89,9.91,5.52,8.99,13.61,16.43,24,22.11,8.95,4.92,18.67,9.64,28.87,14,8.8,3.78,16.53,8.46,23.68,14.47,5.77,4.12,9.49,9.43,11.34,16.22,1.43,5.27.2,12.73-3.57,21.82-12.21.11-25.43.54-39.42,1.25-16.68.84-33.5,1.84-50.43,2.97-34.45,2.22-69.42,3.78-103.91,4.63-33.48.81-62.99-2.06-87.73-8.52-4.73-1.22-9.72.74-12.32,4.89-1.42,2.27-2.36,2.38-2.9,2.45-5.15.64-9.91,1.64-14.16,2.95-7.54,2.33-12.76,8.63-15.52,18.72-.26.96-.39,1.96-.39,2.95,0,14.6,8.68,20.36,16.78,20.88,1.78.12,3.65,1.04,5.05,2.2.37.37,2.43,2.63,6.48,10.4,3.66,7.04,7.73,13.44,11.79,18.65,4.42,6.21,11.02,10.38,19.04,12.05,3.23.69,5.68,1.91,7.17,3.39,4.28,4.66,6.36,9.37,6.36,14.4,0,7.19-.51,15.03-1.53,23.32-.59,2.47-1.04,4.93-1.34,7.39-.34,2.72-.5,5.45-.47,7.25-1.66,20.49-4.34,43.13-7.95,67.27-3.63,24.22-7.85,47.58-12.54,69.44-4.6,21.36-10.18,39.21-16.55,53.02-.36.79-.63,1.62-.81,2.48-.98,4.89.03,9.54,2.77,13.32-2.82,3.3-5.1,8.1-5.88,15.12-.83,7.57-1.83,15.99-2.95,25.24-.77,6.33-3.42,11.06-8.37,14.85-2.26,1.74-3.77,4.27-4.23,7.09-3.2,19.77-9.89,41.32-19.89,64.03-10.42,23.61-20.38,45.81-29.94,66.61-.67,1.46-1.02,3.06-1.02,4.67,0,3.32.43,6.18,1.27,8.64-3.84,2.14-7.47,5-10.86,8.57-6.36,6.68-11.27,13.43-14.57,20.03-2,4.01-1.39,8.73,1.33,12.07-1.18,1.06-2.71,2.31-4.69,3.75-9.64,7.03-15.38,14.89-17.05,23.35-1.07,5.47,2.03,10.9,7.29,12.73,13.33,4.67,26.61,5.33,39.5,1.94,13.45-3.55,25.05-12.84,34.47-27.61,1.49-2.34,1.85-5.33,1.3-8.16,11.78-5.78,19.94-14.53,24.24-26.03,2.41-6.45,5.98-10.86,10.89-13.51,2.93-1.58,5.01-4.39,5.66-7.66.3-1.48,1.79-5.65,9.29-12.56,1.36-1.25,2.37-2.8,2.98-4.54,3.79-10.88,7.85-21.65,12.06-32.02.17-.43.35-.85.53-1.28.85,1.14,1.93,2.13,3.21,2.9,2.56,1.52,5.22,3.32,8.02,5.35,2.96,2.15,5.8,4.32,9.03,6.86,15.55,10.95,32.32,21.16,49.82,30.33,19.42,10.2,42.26,12.83,67.76,7.84,2.94-.57,5.52-2.3,7.18-4.79,1.1-1.66,2.1-3.32,3.01-5.02,3.83-.54,7.79-1.22,11.82-2.03,5.57-1.1,11.44-2.22,17.77-3.38,16.55-3.31,34.95-6.39,54.72-9.18,15.57-2.21,30.47-2.59,44.39-1.15.38,5.43.49,11.18.32,17.19-.28,9.76-.7,19.37-1.27,29.2-.57,22.74-.13,44.71,1.29,65.28,1.67,24.26,11.75,41.53,29.94,51.34,1.67.9,3.5,1.34,5.31,1.34,2.8,0,5.57-1.05,7.69-3.07,12.12-11.48,20.68-25.68,25.46-42.2,4.43-15.36,7.13-31.55,8.03-48.14.84-15.95,1.28-31.22,1.28-45.38v-19.02c0-2.32.04-4.56.13-6.72,17.58-2.36,36.32-3.46,55.71-3.22,23.39.29,47.85,1.01,73.23,2.12,6.38,0,13.06.27,19.81.8l20.89,1.71c26.02,1.69,50.86,2.55,73.81,2.55,25.24,0,44.47-4.44,58.82-13.57,3.22-2.06,5.18-5.62,5.18-9.44s-.82-7.64-2.44-10.89ZM702.36,1557.15c9.9-22.73,18.56-45.46,25.75-67.58,6.38-19.64,9.75-39.95,10.04-60.52,1.54-.56,2.96-1.45,4.14-2.63l5.06-5.07c3.4-3.42,4.24-8.62,2.08-12.93-.81-1.62-1.07-2.44-1.13-2.64.16-.94.23-1.88.21-2.83,8.74-20.47,16.55-42.83,23.3-66.8,3.21,5,7.62,10.66,13.3,17.09,7.13,8.08,13.44,15.35,18.95,21.81-.38,8.25-.45,16.02-.19,23.13.27,8.35.71,16.26,1.35,24.33,1.06,8.01,1.74,16.31,2.01,24.66.25,7.73-.66,15.99-2.67,24.55-.6,2.55-.28,5.23.89,7.57,1.5,3,3.26,5.72,5.21,8.06,1.34,1.62,2.82,3.25,4.4,4.88,2.39,3.88,4.46,7.41,6.17,10.57.56,1.04.13,2.89-.33,4.26-1.53,4.57.04,9.61,3.9,12.5,17.49,13.11,36.13,20.4,55.4,21.65,17.55,1.15,37.74,1.15,60.48-.02,6.04-.55,11.95-.95,17.67-1.24,2.28-.1,4.62-.19,7.03-.26.19,2.04.28,3.88.28,5.56v6.47c-9.68,1.87-20.66,3.04-32.75,3.47-15.42.57-30.69.98-45.84,1.26-15.6.3-29.71,1.32-42.36,3.14-5.34.97-10.58,1.37-15.64,1.09-5.71-.26-11.29-.67-16.71-1.22-5.21-.54-10.45-.16-15.74-.46-5.64-.3-11.39-.14-16.78.45-12.54,1.1-24.64,1.49-35.95,1.23-11.29-.26-23.85-1.5-37.35-3.67-.6-.09-1.19-.14-1.78-.14-.82,0-1.64.09-2.44.27ZM890.72,1479.24c-.44-2.28-.66-4.79-.66-7.49v-25.45c11.85,2.23,24.55,3.01,37.93,2.41,13.11-.63,25.61-1.79,37.35-3.45.24,3.53.36,7.29.36,11.28,0,.46.03.92.09,1.37.5,4.07.75,8.15.75,12.15,0,1.13-.02,2.25-.07,3.34h-.01c-15.41,2.77-29.38,4.86-41.54,6.24-9.72,1.12-21.19.97-34.2-.4ZM949.12,1382.09c-11.5,1.64-23.31,2.89-35.11,3.72-8.28.57-16.72.51-25.23-.19.26-3.56.4-7.27.43-11.1.54-3.93.95-7.88,1.24-11.82.11-1.49.14-2.99.1-4.49,10.71-2.81,22.35-5.4,34.74-7.71,12.48-2.32,25.4-2.45,38.51-.37.36,5.4.72,11.09,1.09,17.06.27,4.66.48,8.91.62,12.76-1.07.14-2.14.28-3.19.42-4.2.56-8.53,1.13-13.19,1.7ZM953.75,1174.55c5.07,8.51,6.31,17.79,3.72,28.22-13.5,1.22-28.17,1.96-43.71,2.18-18.82.3-37.48.43-56.02.43h-30c-10,0-19.49.29-28.19.86-1.87.13-3.65.71-5.2,1.68.58-8.95.94-17.84,1.07-26.67.01-.88-.08-1.76-.27-2.62-1.35-6.06-4.02-11.36-7.93-15.82,10.27-2.43,21.35-4.19,33.08-5.23,18.62-1.67,37.93-2.94,57.36-3.77,18.48-.79,36.22-1.97,52.79-3.5,9.38,5.75,17.03,13.71,23.3,24.25ZM792.23,1232.48c4.94,15.77,14.16,27.11,27.55,33.8,15.02,7.52,33.62,11.33,55.28,11.33,20.23,0,41.42-.86,63.33-2.6,4.86-.54,10-.93,15.38-1.21,1.74-.09,3.47-.19,5.16-.3v6.02c0,.81-.03,1.8-.1,2.96-9.44,1.78-18.54,3-27.12,3.62-11.48.84-22.53,1.54-32.99,2.09-15.45.58-30.54,1.74-44.86,3.45-14.15,1.7-28.41,6.26-42.43,13.59-5.73-1.15-12.03-1.47-18.79-.96-5.07.39-9.56,1.52-13.46,3.37.69-2.91,1.35-5.83,2.01-8.78,4.96-22.23,8.65-44.41,11.03-66.37ZM1043.85,1463.3c0-.67-.07-1.34-.17-2-.97-5.34-1.34-10.45-1.1-15.19.12-2.4.7-4.98,1.72-7.71,7.51-.46,14.67-.34,22.46.58,12.07.59,22.92.11,32.33-1.4,6.59-1.06,12.34-3.68,17.1-7.77-2.15,12.87-4.67,24.89-7.49,35.9-8.03-2.17-15.86-3.05-23.47-2.62-9.8.58-19.7,1.45-29.66,2.63l-11.55,1.64c-.11-1.46-.16-2.83-.16-4.09ZM1081.1,1380.76c-12.15-3.66-24.94-6.83-38.15-9.43.3-3.94.58-8.26.87-12.95.33-5.25.66-10.2.98-14.87,2.23-.16,4.43-.31,6.61-.42,5.64-.3,10.82-.74,15.26-1.3,11.76-1.12,23.1-2.11,34.01-2.95,7.6-.58,15.79-.5,24.47.22.25,9.12-.21,20.1-1.41,32.78-.85,9.18-1.91,18.61-3.17,28.25-11.19-8.29-24.46-14.79-39.49-19.34Z"/>
      <path d="M1383.89,564.96c-8.24-15.29-17.94-29.46-28.82-42.13-10.74-12.46-22.65-24.37-35.38-35.38-2.33-2.01-5.45-2.97-8.3-2.68-.56-2.22-1.78-4.24-3.54-5.76-2.45-2.13-5.68-3.07-8.92-2.62-1.18.17-2.09-.03-3.2-.79-2.95-1.96-6.27-4.52-10.47-8.08-4.62-3.46-9.25-6.78-13.89-9.98-5.31-3.64-11.01-5.34-17.07-4.92-12.35-11.42-26.61-20.87-42.48-28.13-15.92-7.29-31.13-15.91-45.12-25.59-14.61-10.29-29.43-23.06-44.08-37.98-14.95-15.23-29.93-31.05-44.51-47.03-14.84-16.26-29.92-31.19-44.83-44.39-9.63-8.42-20.42-15.86-32.06-22.13-9.5-5.12-17.23-11.6-22.97-19.26-2.77-3.69-4.84-7.24-6.17-10.54-2.22-5.57-5.89-10.95-10.91-16-2.1-2.11-4.95-3.3-7.94-3.3-1.48,0-2.92.29-4.25.84-1.09-.81-2.11-1.69-3.04-2.62-4.85-4.85-8.42-7.43-11.94-8.61-1.68-.57-3.46-.73-5.18-.48-2.48.36-4.72.3-6.66-.19-3.28-.83-6.81-1.77-11.01-2.97-4.6-1.15-9.48-2.28-14.66-3.44-6.84-1.53-14.33-1.2-22.25.97-4.16,1.13-7.3,4.55-8.08,8.78-1.59,8.62-.67,16.39,2.68,23.05,2.62,5.29,5.98,10.33,9.71,14.66,2.01,2.53,3.9,5.18,5.66,7.92.82,1.29,1.2,2.74,1.22,5.16.27,5.15-1.77,14.61-13.13,30.47-10.43,14.54-21.07,28.41-31.69,41.27-5.2,6.37-9.83,12.29-13.87,17.78-4.26,5.8-7.53,10.71-10,15.02-.96,1.69-1.48,3.61-1.48,5.56v4.22c0,.52.03,1.04.11,1.56.04.31.09.6.12.87-6.34,7.42-13.82,14.6-22.25,21.38-10.6,8.55-20.18,17.68-28.75,27.48-2.98,3.73-5.42,8.01-7.21,12.71-.58,1.53-1.27,2.95-2.05,4.25-5.34.2-9.61,1.85-12.73,4.94-5.16,5.15-8.91,11.18-11.16,17.91-.46,1.37-1.51,3.42-5.38,5.35-4.06,2.03-6.43,6.28-6.15,10.7-5.46,3.59-10.31,7.49-14.48,11.67-6.94,6.94-13.68,14.28-20.06,21.81-5.51,6.49-12.96,12.9-22.19,19.06-3.52,2.36-5.33,6.53-4.8,10.74v.02c-13.4,9.07-25.96,18.82-37.42,29.07-13.07,11.67-26.71,23.2-40.53,34.26-13.31,10.65-28.76,20.13-45.92,28.18-5.49,2.57-7.92,9.05-5.51,14.61,5.21,11.94,14.93,20.37,28.1,24.39,10.66,3.26,20.65,5.53,29.7,6.73,2.19.3,4.4-.07,6.37-1.03,42.38-20.62,80.86-45.75,114.37-74.68,29.29-25.27,57.28-52.57,83.39-81.31,5.42,10.65,8.97,21.84,10.6,33.42,2.37,16.84,2.23,34.23-.44,51.93-3.79,29.23-12.04,58.48-24.5,86.93-13.01,29.68-24.64,55.63-34.56,77.12-.4.87-.68,1.78-.82,2.71-4.72,2.27-8.19,5.37-10.64,8.25-5.04,5.92-10,12.53-14.73,19.64-.55.82-.98,1.71-1.3,2.65-.25.76-.67,1.57-1.21,2.39l-3.41,5.11c-2.17,3.28-2.47,7.45-.8,10.98l-10.63,12.45c-11.53,13.49-24.03,27.25-37.16,40.92-2.01,2.08-3.07,4.79-3.13,7.55-5.19.09-9.72,3.78-10.77,8.98-.11.56-.22,1.04-.33,1.43-2.03.56-4.19,1.26-6.43,2.09-8.56,3.07-12.85,12.47-15.64,20.3-1.44,4.07-.43,8.61,2.63,11.66,11.42,11.42,23.84,16.64,36.79,15.49,11.43-1.02,22.71-5.19,33.52-12.41,9.42-6.28,18.33-12.71,26.69-19.27,13.51-11.16,26.46-24.69,38.48-40.23,11.61-15.01,22.97-30.69,33.78-46.62,4.24-6.25,8.42-12.15,12.48-17.7.49,4.36,1.09,8.57,1.76,12.38l3.38,38.47c1.07,12.05,1.34,23.32.81,33.49-.13,2.59.63,5.14,2.17,7.23,8.08,10.95,16.5,21.55,25.03,31.49,9.08,10.59,19.48,19.91,30.9,27.72,1.89,1.3,4.1,1.95,6.32,1.95,1.67,0,3.34-.37,4.9-1.13,18.22-8.86,39.76-13.89,64.03-14.94,25.54-1.11,51.53-1.67,76.9-1.68,17.62.56,34.87.69,51.26.42,17.02-.3,32.54-1.95,46.12-4.9,3.3-.72,6.11-2.9,7.63-5.92,1.51-3.03,1.57-6.57.17-9.66-1.89-4.14-2.31-10.47-1.21-18.33,1.32-9.58,3.08-18.5,5.19-26.42,2.89-10.43,5.38-21.43,7.41-32.7,1.87-10.42,3.89-19.22,5.78-25.46,3.34-8.78,7.66-14.31,12.85-16.46,8.11-3.37,16.37-6.73,24.78-10.08,11.48-4.59,19.87-13.89,24.94-27.65,1.97-5.36-.4-11.34-5.51-13.89-5.28-2.63-10.59-5.68-15.79-9.09-5.39-3.49-10.53-7.14-15.95-11.34-15.55-10.35-32.2-19.84-49.5-28.22-19.02-9.19-42.38-11.36-69.4-6.43-4.87.89-8.56,5.43-9.15,10.34-.17.14-.34.25-.48.36-1.87,1.11-3.49,2.29-4.86,3.54-8.41.13-17.46.55-26.99,1.25-11.47.84-23.05,1.54-35.31,2.13-23.49,2.24-47.11,3.64-70.2,4.18-16.66.37-31.83-.83-45.15-3.67.97-3.27,1.66-6.81,2.07-10.61.23-2.29.61-4.32,1.13-6.06,13.87,3.47,31,4.28,52.03,2.54,23.94-1.97,49.27-4.68,75.21-8.07,18.5-2.24,36.31-4.21,53.4-5.9,16.41-1.61,30.64-1.9,42.26-.83,5.02.36,9.39-2.29,11.3-6.72.56-1.31,1.28-2.03,2.58-2.59,3.1-1.33,5.44-4,6.36-7.25,5.24-18.62,8.78-37.19,10.5-55.19,1.63-16.77,4.49-32.62,8.52-47.09,2.54-9.13,6.56-17.04,12.19-23.96,5.72,7.22,12.11,14.66,19.07,22.21,8.77,9.49,14.12,18.19,15.94,25.83.75,3.23,2.91,5.95,5.87,7.43,11.09,5.56,23.9,12.31,38.07,20.09,14.76,8.1,30.3,15.29,46.19,21.35,26,9.92,52.29,12.5,74.61,6.24,8.17-2.28,16.21-6.04,24.26-11.44,8.08-5.87,13.69-13.41,16.72-22.43,2.54-7.65,4.13-16.26,4.77-25.59.14-2.1-.32-4.2-1.32-6.06ZM1035.04,497.35c-.58,5.83-1.02,12.08-1.31,18.77-.1,2.2-.08,4.4.08,6.6-.02-.02-.04-.03-.05-.04-.62-.5-1.29-.93-2-1.28-2.12-1.06-4.36-2.25-6.78-3.59-3.52-1.95-7.29-3.33-11.59-4.19-11.25-1.89-23.49-1.89-36.38-.04-11.77,1.68-23.89,3.69-36.02,6-11.67,2.22-23.08,4.17-34.2,5.84-5.9.89-11.54,1.18-16.92.81-.1-2.27-.43-4.55-.99-6.82-1.24-4.94-2.78-9.9-4.79-15.23-1.05-2.42-1.98-4.87-2.79-7.32,8.45.13,17.4-.26,26.96-1.21,14.38-1.4,29.75-2.95,46.26-4.67,14.26-1.65,29.45-3.05,45.14-4.17,12.2-.87,24.32-1.4,36.18-1.59-.01,3.52-.3,7.52-.8,12.14ZM924.72,414.51c.2,3.82.32,7.63.38,11.45-15.55.64-30.84,1.66-45.6,3.03l-26.89,2.52c4.19-4.59,8.51-9.05,12.94-13.36,9.08-8.86,17.55-18.44,25.26-28.57,4.68,2.91,9.55,5.55,14.6,7.89,6.22,2.9,12.35,6.12,18.26,9.6.56,2.14.9,4.63,1.04,7.43ZM882.24,607.12c.98-4.93,2.07-9.2,3.21-12.75,19.93-4.02,43.5-7.96,70.19-11.74,25.07-3.55,50.24-5.8,74.99-6.72-.63,5.75-1.51,11.31-2.6,16.61-1.09,5.28-2.72,9.89-4.86,13.79-11.24-1.45-23.06-1.69-35.35-.7-14.13,1.13-29.16,2.86-44.07,5.07-12.46,1.14-25.06,2.42-37.82,3.83-8.26.92-16.7,1.4-25.19,1.44.37-2.77.87-5.71,1.5-8.81ZM1054.02,408.29c-9.86.9-20.56,2.86-31.47,5.73-7.24,1.66-15.02,3.33-23.35,5-2.35.47-4.81.81-7.39,1.03,2.57-6.48,3.87-13.05,3.87-19.62,0-12.17-2.83-22.96-8.47-32.14-6.84-10.92-16.63-19.19-29.13-24.61-7.43-3.21-15.28-4.9-23.48-5.06,4.78-5.95,10.25-12.02,15.84-17.65,4.78-4.17,9.18-8.43,13.08-12.63.95-1.03,1.87-2.06,2.75-3.1,13.5,11.77,26.35,24.97,38.32,39.39,15.01,18.07,29.39,36.25,42.74,54.04l7.08,9.59c-.13.01-.26.02-.4.04ZM891.63,775.16c12.21-2.44,27.31-4.64,45.09-6.6,22.5-2.48,45.32-3.87,67.78-4.16,17.53-.22,32.27.68,44.18,2.66.04,14.22-.84,30.17-2.64,47.53-1.77,17.16-5.25,31.6-10.33,43.05-.83.06-1.67.13-2.51.21-2.43.26-4.85.37-8.15.4-21.17,1.67-41.93,2.93-61.7,3.78-17.77.74-38.35.95-61.28.55-4.22-12.92-6.69-26.13-7.34-39.36-.72-14.32-1.75-30.44-3.07-48.05Z"/>
    </g>
  </g>
</svg>